<svg width="25" height="25" viewBox="0 0 25 25" fill="none" xmlns="http://www.w3.org/2000/svg">
<path fill-rule="evenodd" clip-rule="evenodd" d="M2.18549 0.37495C1.68557 -0.124983 0.875025 -0.124983 0.375098 0.37495C-0.124828 0.874883 -0.124826 1.68544 0.3751 2.18537L10.5269 12.3373L0.373968 22.4903C-0.125958 22.9902 -0.125958 23.8008 0.373968 24.3007C0.873894 24.8007 1.68444 24.8007 2.18436 24.3007L12.3373 14.1477L22.8143 24.6249C23.3142 25.1248 24.1248 25.1248 24.6247 24.6249C25.1246 24.125 25.1246 23.3144 24.6247 22.8145L14.1476 12.3373L24.2963 2.18843C24.7963 1.6885 24.7963 0.877946 24.2963 0.378012C23.7964 -0.121921 22.9859 -0.121919 22.486 0.378015L12.3373 10.5269L2.18549 0.37495Z" fill="black"/>
</svg>
