<svg width="70" height="70" viewBox="0 0 70 70" fill="none" xmlns="http://www.w3.org/2000/svg">
<g clip-path="url(#clip0_2044_2010)">
<path d="M34.995 69.9899C54.3221 69.9899 69.9899 54.3221 69.9899 34.995C69.9899 15.6678 54.3221 0 34.995 0C15.6678 0 0 15.6678 0 34.995C0 54.3221 15.6678 69.9899 34.995 69.9899Z" fill="#FFFDF3"/>
<path d="M45.4593 18.7546H26.9978V14.038C26.9978 13.105 25.767 12.6471 25.0637 13.321L21.2835 16.9319L16.3165 21.6745C15.8945 22.0718 15.8945 22.7111 16.3165 23.1085L21.2835 27.851L25.0637 31.462C25.767 32.1358 26.9978 31.6779 26.9978 30.745V25.8469H43.5077C46.4176 25.8469 48.7736 28.162 48.7736 31.0214V41.9924C48.7736 44.8518 46.4176 47.1669 43.5077 47.1669H17.0637C16.4835 47.1669 16.0088 47.6334 16.0088 48.2035V52.9634C16.0088 53.5335 16.4835 54 17.0637 54H45.4681C51.2879 54 56 49.3611 56 43.651V29.1036C55.9912 23.3935 51.2791 18.7546 45.4593 18.7546Z" fill="#EDC700"/>
</g>
<defs>
<clipPath id="clip0_2044_2010">
<rect width="70" height="70" fill="white"/>
</clipPath>
</defs>
</svg>
