<svg width="33" height="56" viewBox="0 0 33 56" fill="none" xmlns="http://www.w3.org/2000/svg">
<g clip-path="url(#clip0_2273_1924)">
<path d="M16.5302 54.7114C23.594 54.7114 29.3202 53.1399 29.3202 51.2014C29.3202 49.2629 23.594 47.6914 16.5302 47.6914C9.46651 47.6914 3.74023 49.2629 3.74023 51.2014C3.74023 53.1399 9.46651 54.7114 16.5302 54.7114Z" fill="#29A874" stroke="black" stroke-miterlimit="10"/>
<path d="M16.53 52.6023C19.6062 52.6023 22.1 51.886 22.1 51.0023C22.1 50.1187 19.6062 49.4023 16.53 49.4023C13.4537 49.4023 10.96 50.1187 10.96 51.0023C10.96 51.886 13.4537 52.6023 16.53 52.6023Z" fill="#2D2D2D"/>
<path d="M16.3195 0.501417C16.3195 0.501417 -0.240478 0.0414181 0.519522 18.9214C1.13952 34.2314 9.22952 43.9314 9.22952 43.9314C9.22952 43.9314 13.7395 51.2014 16.4095 51.2014C19.0795 51.1914 23.5595 43.9114 23.5595 43.9114C23.5595 43.9114 31.6195 34.1714 32.1795 18.8614C32.8695 -0.0185814 16.3195 0.501417 16.3195 0.501417ZM21.6695 24.9614C18.7395 27.8914 13.9795 27.8914 11.0495 24.9614C8.11952 22.0314 8.11952 17.2714 11.0495 14.3414C13.9795 11.4114 18.7395 11.4114 21.6695 14.3414C24.5995 17.2714 24.5995 22.0214 21.6695 24.9614Z" fill="#29A874" stroke="black" stroke-miterlimit="10"/>
</g>
<defs>
<clipPath id="clip0_2273_1924">
<rect width="32.71" height="55.2" fill="white"/>
</clipPath>
</defs>
</svg>
