<svg width="41" height="72" viewBox="0 0 41 72" fill="none" xmlns="http://www.w3.org/2000/svg">
<path d="M38.2989 64.668V66.836C38.2989 69.1325 30.8379 70.9993 21.6309 70.9993C12.4239 70.9993 4.96289 69.1374 4.96289 66.836V64.668" fill="#085E7F"/>
<path d="M38.2989 64.668V66.836C38.2989 69.1325 30.8379 70.9993 21.6309 70.9993C12.4239 70.9993 4.96289 69.1374 4.96289 66.836V64.668" stroke="#002366" stroke-miterlimit="10"/>
<path d="M27.2321 37.1942C26.0121 38.0486 24.38 38.3399 22.6178 38.3399C17.6619 38.3399 13.644 34.6804 13.644 30.1666C13.644 28.0281 14.5169 26.1663 16.0623 24.5859L11.1172 27.238L11.2961 34.5422L16.0894 40.0092L23.8866 40.4586L27.2321 37.1942Z" fill="#085E7F" stroke="#002366" stroke-miterlimit="10"/>
<path d="M21.6368 68.8343C30.8423 68.8343 38.3048 66.9703 38.3048 64.6711C38.3048 62.3718 30.8423 60.5078 21.6368 60.5078C12.4313 60.5078 4.96875 62.3718 4.96875 64.6711C4.96875 66.9703 12.4313 68.8343 21.6368 68.8343Z" fill="#1283D8" stroke="#002366" stroke-miterlimit="10"/>
<path d="M21.6369 66.3379C25.6497 66.3379 28.9027 65.4866 28.9027 64.4365C28.9027 63.3864 25.6497 62.5352 21.6369 62.5352C17.6241 62.5352 14.3711 63.3864 14.3711 64.4365C14.3711 65.4866 17.6241 66.3379 21.6369 66.3379Z" fill="#2D2D2D"/>
<path d="M38.3156 11.9343C37.9523 11.2577 32.2969 1.05951 20.9318 1.00024C10.1361 0.945919 3.81917 9.99344 3.19018 11.0305C0.500743 15.4704 0.46821 22.9968 2.11658 27.2835L17.3369 61.0734C18.5135 63.8292 19.3268 64.9897 21.6476 64.9897C23.9683 64.9897 24.9551 63.355 26.0396 61.1623C30.5184 49.8974 34.8236 38.2867 39.3024 27.0267C39.8772 25.4562 42.0569 18.9669 38.3156 11.9343ZM20.7258 39.7436C15.7698 39.7436 11.7519 36.0841 11.7519 31.5702C11.7519 27.0563 15.7698 23.3968 20.7258 23.3968C25.6817 23.3968 29.6996 27.0563 29.6996 31.5702C29.6996 36.0841 25.6817 39.7436 20.7258 39.7436Z" fill="#1283D8" stroke="#002366" stroke-miterlimit="10"/>
<path d="M13.1891 4.47483C13.6771 4.97857 12.0992 5.45267 10.0767 6.98858C8.39041 8.26768 7.39814 9.46282 6.91556 9.04304C6.50347 8.68252 7.76143 7.37379 9.5074 6.16383C11.2534 4.95387 12.956 4.23778 13.1891 4.47483Z" fill="#39BDFF"/>
</svg>
