<svg width="46" height="45" viewBox="0 0 46 45" fill="none" xmlns="http://www.w3.org/2000/svg">
<g clip-path="url(#clip0_2201_3123)">
<path opacity="0.5" d="M26.2367 26.7212C30.8323 22.9832 31.5034 16.2569 27.7356 11.6976C23.9679 7.13829 17.1881 6.47249 12.5925 10.2105C7.99693 13.9485 7.32584 20.6748 11.0936 25.2341C14.8613 29.7934 21.6411 30.4592 26.2367 26.7212Z" fill="#00B1FF"/>
<path d="M43.9367 40.0696L33.5027 29.7179C39.2303 22.6671 38.8092 12.3259 32.2076 5.77644C25.1428 -1.23261 13.6875 -1.23261 6.6227 5.77644C-0.442106 12.7855 -0.442106 24.1504 6.6227 31.1594C13.2242 37.7089 23.6477 38.1372 30.7547 32.4443L41.1887 42.7959C41.9468 43.548 43.1786 43.548 43.9367 42.7959C44.6948 42.0438 44.6948 40.8217 43.9367 40.0696ZM11.9187 25.9053C7.78087 21.8001 7.78087 15.1358 11.9187 11.0306C16.0565 6.92547 22.7738 6.92547 26.9117 11.0306C31.0495 15.1358 31.0495 21.8001 26.9117 25.9053C22.7738 30.0104 16.0565 30.0104 11.9187 25.9053Z" fill="#39BC93" stroke="black" stroke-miterlimit="10"/>
<path d="M38.9039 43.3914L28.1646 32.7368C26.7116 31.2953 26.7116 28.945 28.1646 27.5035C29.6175 26.062 31.9865 26.062 33.4395 27.5035L44.1788 38.1581C45.6318 39.5996 45.6318 41.9499 44.1788 43.3914C42.7259 44.8433 40.3674 44.8433 38.9039 43.3914Z" fill="#39BC93" stroke="black" stroke-miterlimit="10"/>
</g>
<defs>
<clipPath id="clip0_2201_3123">
<rect width="45" height="45" fill="white" transform="translate(0.800293)"/>
</clipPath>
</defs>
</svg>
