<svg xmlns="http://www.w3.org/2000/svg" viewBox="0 0 60 60"><defs><style>.cls-1{fill:#221e1f;}</style></defs><title>flowers</title><g id="圖層_4" data-name="圖層 4"><path class="cls-1" d="M43.61,43c-.24-.69-.49-1.36-.74-2,2.31.74,4.37,1.32,5.64,1.65C53.09,43.85,58.69,40,59.79,30.83c1-8.44-10.72-9.09-10.72-9.09a46.15,46.15,0,0,0-6.23.26c2.58-2.4,4.84-4.69,6.09-6C52.6,12.11,52.3,5.4,44.74,1,37.75-3,30.47,7.76,30.47,7.76a56.55,56.55,0,0,0-3.61,6.59C24.34,10.9,21.56,7.62,20.12,6,16.81,2.28,10.25,2.15,5,9.05.19,15.44,9.8,23,9.8,23a54.18,54.18,0,0,0,5.51,3.6C11,28.28,6.84,30.24,4.75,31.27,0,33.64-2.07,40,3.5,46.77c5.16,6.23,15.73-1.4,15.73-1.4a50.47,50.47,0,0,0,7.34-6.72c.33,5.45,1.24,11.64,1.71,14.43.89,5.25,5.84,9,12.85,5.44C47.62,55.27,43.61,43,43.61,43Z"/></g></svg>