<svg width="28" height="28" viewBox="0 0 28 28" fill="none" xmlns="http://www.w3.org/2000/svg">
<circle cx="14" cy="14" r="13" stroke="black" stroke-width="2"/>
<path d="M10.3047 21.0195C9.99219 21.0195 9.73828 20.9284 9.54297 20.7461C9.34766 20.5508 9.25 20.2969 9.25 19.9844C9.25 19.2943 9.45182 18.6628 9.85547 18.0898C10.2201 17.556 10.6628 17.0807 11.1836 16.6641C11.7044 16.2344 12.4857 15.6875 13.5273 15.0234C14.2826 14.5417 14.9141 14.112 15.4219 13.7344C16.5156 12.9141 17.0625 12.0938 17.0625 11.2734C17.0625 10.4922 16.8021 9.89974 16.2812 9.49609C15.7734 9.07943 15.0117 8.87109 13.9961 8.87109C12.8242 8.87109 11.7109 9.10547 10.6562 9.57422C10.5 9.63932 10.3763 9.67188 10.2852 9.67188C10.0768 9.67188 9.89453 9.60026 9.73828 9.45703C9.59505 9.30078 9.52344 9.11198 9.52344 8.89062C9.52344 8.5651 9.67318 8.31771 9.97266 8.14844C11.3008 7.48438 12.7461 7.15234 14.3086 7.15234C15.168 7.15234 15.9297 7.3151 16.5938 7.64062C17.2969 7.97917 17.8438 8.45443 18.2344 9.06641C18.625 9.66536 18.8203 10.3555 18.8203 11.1367C18.8203 11.931 18.599 12.6471 18.1562 13.2852C17.7396 13.8971 17.2383 14.444 16.6523 14.9258C16.0794 15.4076 15.2266 16.013 14.0938 16.7422C13.1042 17.4193 12.3945 17.9336 11.9648 18.2852C11.5482 18.6237 11.2552 18.9688 11.0859 19.3203H17.8438C18.0781 19.3203 18.2799 19.4049 18.4492 19.5742C18.6185 19.7435 18.7031 19.9453 18.7031 20.1797C18.7031 20.4141 18.6185 20.6159 18.4492 20.7852C18.2799 20.9414 18.0781 21.0195 17.8438 21.0195H10.3047Z" fill="black"/>
</svg>
