<svg width="28" height="28" viewBox="0 0 28 28" fill="none" xmlns="http://www.w3.org/2000/svg">
<circle cx="14" cy="14" r="14" fill="black"/>
<path d="M11.457 21.0195C11.2227 21.0195 11.0208 20.9414 10.8516 20.7852C10.6953 20.6159 10.6172 20.4141 10.6172 20.1797C10.6172 19.9453 10.6953 19.7435 10.8516 19.5742C11.0208 19.4049 11.2227 19.3203 11.457 19.3203H13.7617V9.76953C13.7617 9.67839 13.7357 9.61979 13.6836 9.59375C13.6445 9.55469 13.5794 9.5612 13.4883 9.61328L11.7891 10.4336C11.6198 10.5117 11.4701 10.5508 11.3398 10.5508C11.0924 10.5508 10.8841 10.4727 10.7148 10.3164C10.5586 10.1471 10.4805 9.9388 10.4805 9.69141C10.4805 9.3138 10.6562 9.04036 11.0078 8.87109L13.6641 7.48438C13.8073 7.39323 13.9896 7.34766 14.2109 7.34766H14.6211C14.8815 7.34766 15.1029 7.44531 15.2852 7.64062C15.4805 7.82292 15.5781 8.04427 15.5781 8.30469V19.3203H17.4922C17.7266 19.3203 17.9284 19.4049 18.0977 19.5742C18.2669 19.7435 18.3516 19.9453 18.3516 20.1797C18.3516 20.4141 18.2669 20.6159 18.0977 20.7852C17.9284 20.9414 17.7266 21.0195 17.4922 21.0195H11.457Z" fill="#FFFDF3"/>
</svg>
