<svg width="28" height="28" viewBox="0 0 28 28" fill="none" xmlns="http://www.w3.org/2000/svg">
<circle cx="14" cy="14" r="13" stroke="black" stroke-width="2"/>
<path d="M13.7422 21.2148C12.2578 21.2148 10.8971 20.9544 9.66016 20.4336C9.30859 20.2904 9.13281 20.0365 9.13281 19.6719C9.13281 19.4375 9.20443 19.2422 9.34766 19.0859C9.50391 18.9167 9.69922 18.832 9.93359 18.832C10.0508 18.832 10.1745 18.8581 10.3047 18.9102C11.2552 19.2878 12.2904 19.4766 13.4102 19.4766C14.4909 19.4766 15.3568 19.3008 16.0078 18.9492C16.6719 18.5977 17.0039 18.0573 17.0039 17.3281C17.0039 15.7005 15.5716 14.8867 12.707 14.8867H12.3945C12.1732 14.8867 11.9779 14.8021 11.8086 14.6328C11.6393 14.4635 11.5547 14.2682 11.5547 14.0469C11.5547 13.8255 11.6393 13.6302 11.8086 13.4609C11.9779 13.2917 12.1732 13.207 12.3945 13.207H12.5117C13.8268 13.207 14.8229 13.0117 15.5 12.6211C16.1771 12.2174 16.5156 11.6315 16.5156 10.8633C16.5156 10.2253 16.2487 9.73047 15.7148 9.37891C15.181 9.02734 14.4258 8.85156 13.4492 8.85156C12.3555 8.85156 11.3464 9.06641 10.4219 9.49609C10.2917 9.54818 10.1745 9.57422 10.0703 9.57422C9.875 9.57422 9.69922 9.5026 9.54297 9.35938C9.39974 9.21615 9.32812 9.04036 9.32812 8.83203C9.32812 8.53255 9.46484 8.30469 9.73828 8.14844C10.9753 7.48438 12.2643 7.15234 13.6055 7.15234C15.1029 7.15234 16.2617 7.45833 17.082 8.07031C17.9154 8.68229 18.332 9.55469 18.332 10.6875C18.332 12.276 17.5573 13.3633 16.0078 13.9492C16.8281 14.1445 17.4987 14.5286 18.0195 15.1016C18.5534 15.6745 18.8203 16.4492 18.8203 17.4258C18.8203 18.6107 18.3516 19.5417 17.4141 20.2188C16.4896 20.8828 15.2656 21.2148 13.7422 21.2148Z" fill="black"/>
</svg>
