<svg width="21" height="22" viewBox="0 0 21 22" fill="none" xmlns="http://www.w3.org/2000/svg">
<g clip-path="url(#clip0_2115_1071)">
<path d="M15.1395 6.27539H10.4999H5.8603L2.8916 8.68302L5.30387 18.6843L10.4999 21.9991L15.6959 18.6843L17.9849 8.68302L15.1395 6.27539Z" fill="#F27579"/>
<path d="M19.5326 10.5062L19.0631 8.09854L17.4507 4.42556L13.7548 2.60327L11.1197 2.17886L11.9859 0.220884L10.5 0C10.5 0 10.1665 1.51621 10.0495 2.15046L7.24518 2.60327L3.54932 4.42398L1.93693 8.09854L1.46744 10.5062L0.5 11.5554L2.58188 10.4446L3.31537 9.20927L3.99036 9.9508L3.46238 11.5554L5.66598 10.1401L6.95273 8.80852L7.18669 11.0915L9.41559 8.8385L10.5 8.16007L11.5844 8.8385L13.8133 11.0915L14.0473 8.80694L15.334 10.1386L17.5376 11.5538L17.0096 9.94923L17.6846 9.20769L18.4181 10.4431L20.5 11.5538L19.5326 10.5062Z" fill="#73C483"/>
</g>
<defs>
<clipPath id="clip0_2115_1071">
<rect width="20" height="22" fill="white" transform="translate(0.5)"/>
</clipPath>
</defs>
</svg>
