<svg width="30" height="30" viewBox="0 0 30 30" fill="none" xmlns="http://www.w3.org/2000/svg">
<path d="M15 30C23.2843 30 30 23.2843 30 15C30 6.71573 23.2843 0 15 0C6.71573 0 0 6.71573 0 15C0 23.2843 6.71573 30 15 30Z" fill="#55B781"/>
<path d="M21.71 21.89V5.71998C21.71 5.03998 21.16 4.47998 20.47 4.47998H15.03H14.96H9.52998C8.84998 4.47998 8.28998 5.02998 8.28998 5.71998V21.9V24.29C8.28998 25.29 9.41998 25.88 10.24 25.3L14.29 22.43C14.72 22.13 15.29 22.13 15.72 22.43L19.77 25.3C20.59 25.88 21.72 25.29 21.72 24.29L21.71 21.89Z" fill="#7DE5AF" stroke="black" stroke-width="0.5" stroke-miterlimit="10"/>
</svg>
