<svg width="30" height="30" viewBox="0 0 30 30" fill="none" xmlns="http://www.w3.org/2000/svg">
<g clip-path="url(#clip0_2208_4102)">
<path d="M15 30C23.2843 30 30 23.2843 30 15C30 6.71573 23.2843 0 15 0C6.71573 0 0 6.71573 0 15C0 23.2843 6.71573 30 15 30Z" fill="#FFFDF3"/>
<path d="M14.9995 22.6394C22.1682 22.6394 27.9795 19.2188 27.9795 14.9994C27.9795 10.7799 22.1682 7.35938 14.9995 7.35938C7.83087 7.35938 2.01953 10.7799 2.01953 14.9994C2.01953 19.2188 7.83087 22.6394 14.9995 22.6394Z" fill="white" stroke="black" stroke-width="0.5" stroke-miterlimit="10"/>
<path d="M15.0004 22.6394C18.6455 22.6394 21.6004 19.2188 21.6004 14.9994C21.6004 10.7799 18.6455 7.35938 15.0004 7.35938C11.3553 7.35938 8.40039 10.7799 8.40039 14.9994C8.40039 19.2188 11.3553 22.6394 15.0004 22.6394Z" fill="#7FDCF4" stroke="black" stroke-width="0.5" stroke-miterlimit="10"/>
</g>
<defs>
<clipPath id="clip0_2208_4102">
<rect width="30" height="30" fill="white"/>
</clipPath>
</defs>
</svg>
