<svg width="45" height="45" viewBox="0 0 45 45" fill="none" xmlns="http://www.w3.org/2000/svg">
<g clip-path="url(#clip0_2333_1921)">
<path d="M22.5 45C34.9264 45 45 34.9264 45 22.5C45 10.0736 34.9264 0 22.5 0C10.0736 0 0 10.0736 0 22.5C0 34.9264 10.0736 45 22.5 45Z" fill="#FFAEAE"/>
<path d="M33.4199 11.6559C30.2399 10.0659 25.9949 11.6559 22.4999 15.3159C18.9899 11.6559 14.7599 10.0659 11.5799 11.6559C7.07989 13.9059 6.38989 21.6759 10.0649 28.9959C13.1399 35.1309 18.2699 39.0009 22.5149 38.7759C26.7449 39.0009 31.8899 35.1309 34.9649 28.9959C38.6099 21.6609 37.9349 13.9059 33.4199 11.6559Z" fill="#FFAEAE" stroke="black" stroke-width="0.5" stroke-miterlimit="10"/>
</g>
<defs>
<clipPath id="clip0_2333_1921">
<rect width="45" height="45" fill="white"/>
</clipPath>
</defs>
</svg>
