<svg width="45" height="45" viewBox="0 0 45 45" fill="none" xmlns="http://www.w3.org/2000/svg">
<g clip-path="url(#clip0_2319_2881)">
<path d="M22.5 45C34.9264 45 45 34.9264 45 22.5C45 10.0736 34.9264 0 22.5 0C10.0736 0 0 10.0736 0 22.5C0 34.9264 10.0736 45 22.5 45Z" fill="#FFFDF3"/>
<path d="M33.42 11.6549C30.24 10.0649 25.995 11.6549 22.5 15.3149C18.99 11.6549 14.76 10.0649 11.58 11.6549C7.08001 13.9049 6.39001 21.6749 10.065 28.9949C13.14 35.1299 18.27 38.9999 22.515 38.7749C26.745 38.9999 31.89 35.1299 34.965 28.9949C38.61 21.6599 37.935 13.9049 33.42 11.6549Z" fill="#FFAEAE" stroke="black" stroke-width="0.5" stroke-miterlimit="10"/>
</g>
<defs>
<clipPath id="clip0_2319_2881">
<rect width="45" height="45" fill="white"/>
</clipPath>
</defs>
</svg>
