<svg width="30" height="30" viewBox="0 0 30 30" fill="none" xmlns="http://www.w3.org/2000/svg">
<g clip-path="url(#clip0_2339_1512)">
<path d="M27.2802 13.2483L19.3402 6.04826C18.9302 5.67826 18.2602 5.96826 18.2602 6.52826V8.98826C18.2602 9.35826 17.9602 9.64826 17.5902 9.62826C15.7302 9.51826 11.6902 9.80826 8.35022 12.7283C4.80022 15.8283 4.17022 19.8283 4.20022 22.3883C4.21022 23.0683 5.12022 23.2583 5.42022 22.6583C6.40022 20.7183 8.15022 18.1683 10.8202 17.5483C13.5302 16.9183 16.2702 17.0583 17.7102 17.2483C18.0302 17.2883 18.2602 17.5683 18.2602 17.8883V20.9383C18.2602 21.4983 18.9202 21.7883 19.3402 21.4183L27.2802 14.2183C27.5602 13.9383 27.5602 13.4983 27.2802 13.2483Z" fill="#FFF48F" stroke="black" stroke-width="0.5" stroke-miterlimit="10"/>
</g>
<defs>
<clipPath id="clip0_2339_1512">
<rect width="30" height="30" fill="white"/>
</clipPath>
</defs>
</svg>
