<svg width="30" height="30" viewBox="0 0 30 30" fill="none" xmlns="http://www.w3.org/2000/svg">
<g clip-path="url(#clip0_2221_4123)">
<path d="M15 30C23.2843 30 30 23.2843 30 15C30 6.71573 23.2843 0 15 0C6.71573 0 0 6.71573 0 15C0 23.2843 6.71573 30 15 30Z" fill="#FFFDF3"/>
<path d="M27.2802 13.2502L19.3402 6.05021C18.9302 5.68021 18.2602 5.97021 18.2602 6.53021V8.99021C18.2602 9.36021 17.9602 9.65021 17.5902 9.63021C15.7302 9.52021 11.6902 9.81021 8.35022 12.7302C4.80022 15.8302 4.17022 19.8302 4.20022 22.3902C4.21022 23.0702 5.12022 23.2602 5.42022 22.6602C6.40022 20.7202 8.15022 18.1702 10.8202 17.5502C13.5302 16.9202 16.2702 17.0602 17.7102 17.2502C18.0302 17.2902 18.2602 17.5702 18.2602 17.8902V20.9402C18.2602 21.5002 18.9202 21.7902 19.3402 21.4202L27.2802 14.2202C27.5602 13.9402 27.5602 13.5002 27.2802 13.2502Z" fill="#FFF48F" stroke="black" stroke-width="0.5" stroke-miterlimit="10"/>
</g>
<defs>
<clipPath id="clip0_2221_4123">
<rect width="30" height="30" fill="white"/>
</clipPath>
</defs>
</svg>
