<svg width="30" height="30" viewBox="0 0 30 30" fill="none" xmlns="http://www.w3.org/2000/svg">
<path d="M15 30C23.2843 30 30 23.2843 30 15C30 6.71573 23.2843 0 15 0C6.71573 0 0 6.71573 0 15C0 23.2843 6.71573 30 15 30Z" fill="#F5E556"/>
<path d="M27.28 13.25L19.34 6.04997C18.93 5.67997 18.26 5.96997 18.26 6.52997V8.98997C18.26 9.35997 17.96 9.64997 17.59 9.62997C15.73 9.51997 11.69 9.80997 8.34997 12.73C4.79997 15.83 4.16997 19.83 4.19997 22.39C4.20997 23.07 5.11997 23.26 5.41997 22.66C6.39997 20.72 8.14997 18.17 10.82 17.55C13.53 16.92 16.27 17.06 17.71 17.25C18.03 17.29 18.26 17.57 18.26 17.89V20.94C18.26 21.5 18.92 21.79 19.34 21.42L27.28 14.22C27.56 13.94 27.56 13.5 27.28 13.25Z" fill="#FFF48F" stroke="black" stroke-width="0.5" stroke-miterlimit="10"/>
</svg>
