<svg width="1680" height="1680" viewBox="0 0 1680 1680" fill="none" xmlns="http://www.w3.org/2000/svg">
<path d="M840 1680C1303.92 1680 1680 1303.92 1680 840C1680 376.081 1303.92 0 840 0C376.081 0 0 376.081 0 840C0 1303.92 376.081 1680 840 1680Z" fill="url(#paint0_linear_2334_2853)"/>
<path d="M839.61 1637.61C1280.12 1637.61 1637.22 1280.51 1637.22 840.001C1637.22 399.493 1280.12 42.3906 839.61 42.3906C399.102 42.3906 42 399.493 42 840.001C42 1280.51 399.102 1637.61 839.61 1637.61Z" fill="url(#paint1_linear_2334_2853)"/>
<path d="M839.98 1617.98C1269.65 1617.98 1617.96 1269.67 1617.96 840C1617.96 410.333 1269.65 62.0195 839.98 62.0195C410.313 62.0195 62 410.333 62 840C62 1269.67 410.313 1617.98 839.98 1617.98Z" fill="url(#paint2_radial_2334_2853)"/>
<path d="M840.11 1102.11C984.869 1102.11 1102.22 984.76 1102.22 840.001C1102.22 695.241 984.869 577.891 840.11 577.891C695.351 577.891 578 695.241 578 840.001C578 984.76 695.351 1102.11 840.11 1102.11Z" fill="url(#paint3_linear_2334_2853)"/>
<g clip-path="url(#clip0_2334_2853)">
<path d="M353.891 874.986L262.505 835.987L300.861 927.655L231.346 856.613L231.707 956L194.678 863.769L156.966 955.759L158.051 856.371L88.0137 926.891L127.053 835.505L35.3447 873.861L106.388 804.346L7 804.707L99.231 767.678L7.28144 729.966L106.629 731.051L36.1086 661.014L127.536 700.053L89.1394 608.345L158.654 679.388L158.293 580L195.322 672.231L233.034 580.281L231.949 679.629L301.986 609.109L262.987 700.536L354.655 662.139L283.613 731.654L383 731.293L290.769 768.322L382.759 806.034L283.371 804.949L353.891 874.986Z" fill="black" fill-opacity="0.05"/>
</g>
<g clip-path="url(#clip1_2334_2853)">
<path d="M1617.62 1094.14L1468.87 1030.66L1531.3 1179.86L1418.16 1064.23L1418.75 1226L1358.48 1075.88L1297.09 1225.61L1298.86 1063.84L1184.86 1178.62L1248.41 1029.87L1099.14 1092.3L1214.77 979.158L1053 979.747L1203.12 919.476L1053.46 858.093L1215.16 859.86L1100.38 745.863L1249.19 809.405L1186.7 660.136L1299.84 775.769L1299.25 614L1359.52 764.121L1420.91 614.458L1419.14 776.162L1533.14 661.379L1469.66 810.191L1618.86 747.695L1503.23 860.842L1665 860.253L1514.88 920.524L1664.61 981.907L1502.84 980.14L1617.62 1094.14Z" fill="black" fill-opacity="0.05"/>
</g>
<defs>
<linearGradient id="paint0_linear_2334_2853" x1="0" y1="840" x2="1680" y2="840" gradientUnits="userSpaceOnUse">
<stop stop-color="#C10404"/>
<stop offset="1" stop-color="#D41104"/>
</linearGradient>
<linearGradient id="paint1_linear_2334_2853" x1="42.0025" y1="840.001" x2="1637.22" y2="840.001" gradientUnits="userSpaceOnUse">
<stop stop-color="#C71F04"/>
<stop offset="1" stop-color="#E02104"/>
</linearGradient>
<radialGradient id="paint2_radial_2334_2853" cx="0" cy="0" r="1" gradientUnits="userSpaceOnUse" gradientTransform="translate(839.98 840) scale(777.977)">
<stop offset="0.2384" stop-color="#CE0404"/>
<stop offset="0.9048" stop-color="#AF0404"/>
</radialGradient>
<linearGradient id="paint3_linear_2334_2853" x1="578.004" y1="840.001" x2="1102.22" y2="840.001" gradientUnits="userSpaceOnUse">
<stop offset="0.4993" stop-color="#CE0404"/>
<stop offset="1" stop-color="#AF0404"/>
</linearGradient>
<clipPath id="clip0_2334_2853">
<rect width="376" height="376" fill="white" transform="translate(7 580)"/>
</clipPath>
<clipPath id="clip1_2334_2853">
<rect width="612" height="612" fill="white" transform="translate(1053 614)"/>
</clipPath>
</defs>
</svg>
