<svg width="1100" height="239" viewBox="0 0 1100 239" fill="none" xmlns="http://www.w3.org/2000/svg">
<path d="M106.186 182.008L92.11 186.196C84.2699 188.911 79.685 190.246 78.3554 190.292C73.8164 190.292 70.6987 187.945 69.0023 183.251L65.3803 169.399L43.4188 187.622L42.1809 187.991C48.4163 180.213 55.2936 172.068 62.8128 163.508L63.0878 159.781C61.7582 157.388 60.4286 155.915 59.1907 155.455L73.9998 152.371C75.5587 148.276 76.98 145.238 78.2637 143.167L51.6257 151.727C48.2787 153.752 44.8859 155.363 41.3556 156.651C39.43 157.341 37.5043 157.94 35.5328 158.4L31.5898 157.157C34.3408 156.375 37.0458 155.501 39.6592 154.58C41.7224 153.844 43.7397 153.016 45.6654 152.141L64.0965 147.079L60.016 133.181L42.9603 138.842L38.4671 140.59L35.7162 138.796C38.192 138.75 42.3643 137.691 48.1412 135.666L57.6319 130.19C57.3568 128.717 56.9441 127.337 56.4856 126.048C55.2477 122.597 53.4138 119.651 51.0755 117.212C60.4745 115.141 67.1684 114.267 71.2489 114.681L71.4323 113.899L71.2947 113.853C70.928 113.991 70.1485 115.095 68.8648 117.212L74.1374 126.232L75.8796 124.898L80.2352 114.957C83.1695 116.614 87.0667 117.672 91.9266 118.087C93.8981 113.393 96.0072 108.1 98.2537 102.256L116.456 105.247L114.759 105.753C113.659 106.168 112.834 106.674 112.283 107.364C108.707 115.97 102.976 124.99 95.1819 134.424L105.91 129.822L109.716 126.416C108.982 126.37 108.616 126.232 108.524 126.048C108.432 125.864 108.57 125.588 108.936 125.312C109.257 122.781 109.991 121.262 111.183 120.848C111.458 120.756 111.733 120.71 111.962 120.71C111.917 120.572 111.962 120.48 112.1 120.434C112.742 120.204 114.897 120.526 118.656 121.446C123.195 122.551 125.671 123.701 126.13 124.944L126.176 125.036C125.992 125.174 125.671 125.358 125.167 125.496L123.379 126.048L94.7692 137.553C89.084 144.41 82.8944 150.945 76.3381 157.111L80.602 166.591C85.9663 162.588 90.1385 157.894 93.1645 152.463C97.4743 147.769 101.234 144.318 104.397 142.109L120.903 145.376C120.765 144.962 118.565 145.238 114.301 146.251C104.993 152.924 93.3938 160.057 79.41 167.558L84.3158 175.519L84.545 176.118C85.0035 177.452 85.8746 177.866 87.1125 177.406C87.6627 177.222 88.3046 176.854 89.084 176.348L105.085 171.101C108.524 170.227 111.55 169.353 114.163 168.386L117.327 167.098C117.923 165.717 118.473 164.889 119.023 164.705C121.04 161.943 121.957 158.216 121.774 153.568L122.783 152.141L128.606 162.358C131.035 161.989 132.549 162.082 133.053 162.634C133.97 162.312 134.474 162.404 134.658 162.864C134.749 163.14 134.749 163.508 134.703 163.922L134.841 164.336C135.391 165.809 134.382 168.064 131.952 171.147C128.147 173.034 119.619 176.67 106.186 182.008ZM79.3641 141.741C84.1324 133.549 87.9836 126.462 90.918 120.342L74.5042 126.692L79.9601 141.373L79.3641 141.741Z" fill="black" fill-opacity="0.6"/>
<path d="M84.6368 225.129C123.784 225.129 155.519 193.276 155.519 153.982C155.519 114.689 123.784 82.8359 84.6368 82.8359C45.4898 82.8359 13.7549 114.689 13.7549 153.982C13.7549 193.276 45.4898 225.129 84.6368 225.129Z" stroke="black" stroke-opacity="0.6" stroke-width="6" stroke-miterlimit="10"/>
<path d="M240.568 149.611L232.774 140.315C236.946 138.75 241.073 137.6 245.153 136.91L247.904 136.541L242.494 117.765C237.359 121.079 230.573 123.84 222.183 126.095L224.154 123.932C228.969 121.677 234.287 118.824 240.064 115.372C246.07 111.691 251.847 106.352 257.486 99.4035C256.065 101.152 254.781 102.349 253.543 103.039C253.085 104.558 251.71 105.478 249.463 105.892C248.042 106.168 246.208 106.168 244.007 105.938C243.732 104.512 242.952 103.315 241.623 102.441C240.202 100.83 237.588 100.14 233.783 100.462L235.525 101.382L237.772 100.876C239.56 100.554 241.577 100.37 243.824 100.37C245.841 99.8637 246.712 99.0813 246.529 97.9769L247.491 92.0863L236.396 93.8351L233.737 98.4371C232.316 98.7592 230.711 99.2194 228.923 99.7256C228.373 99.6796 227.822 99.6796 227.272 99.7716C226.172 99.9557 224.934 100.508 223.558 101.428C224.154 97.9769 225.071 94.2033 226.401 90.1535L222.733 90.2456C222.733 90.3376 221.358 91.0739 218.561 92.4545L217.14 90.1075L218.24 89.9234C221.633 89.3252 225.759 88.2667 230.665 86.8401L251.297 83.4346L254.415 79.523C251.618 81.4558 249.417 82.5603 247.721 82.8364L246.529 83.1585L245.841 81.1336L232.224 82.4222L231.995 83.5727L232.04 83.8028C232.178 84.6772 231.674 85.2294 230.436 85.4135L228.143 85.8277C226.401 86.1498 224.384 86.4259 222.045 86.702L220.899 87.8986L221.679 80.8115C220.945 76.6697 220.166 73.5864 219.386 71.5615L232.132 73.4484L242.311 71.1013L244.786 69.8588C244.786 69.0305 245.245 68.5242 246.208 68.3862C247.537 68.018 248.592 67.4198 249.371 66.7295C249.6 66.4534 249.967 66.2693 250.38 66.2233C251.526 66.0392 253.223 66.4994 255.469 67.6038C257.716 68.7543 258.908 69.7668 259.091 70.7332C259.137 71.0093 259.091 71.3314 258.908 71.6536V71.5615C258.862 71.1934 258.403 71.0093 257.578 71.0093L257.762 79.615C257.991 79.569 258.082 79.4769 258.037 79.3389C257.991 79.1088 257.12 78.7406 255.377 78.2344C257.303 79.9832 258.724 80.8575 259.641 80.8575L266.473 82.7904L266.06 80.3973L262.438 74.3227C263.538 72.9882 263.951 71.5155 263.676 69.8588L263.355 68.5703L278.439 72.2979L278.027 70.5951C277.843 66.9136 277.431 63.186 276.835 59.4584L288.847 59.2743L289.81 59.0902L289.718 59.2283L289.351 61.069L291.598 64.9347L293.294 62.4957L294.028 59.6885L294.67 60.1486C296.183 58.538 297.237 57.6636 297.925 57.5715C298.154 57.5255 298.292 57.5255 298.383 57.6176L298.613 57.5715C299.621 57.3875 301.318 57.9857 303.748 59.3663C305.398 60.3327 306.269 60.931 306.315 61.1611L305.719 61.023L305.948 61.7593C306.04 62.3576 305.903 62.6797 305.536 62.7258C305.169 62.7718 304.527 62.5877 303.61 62.0355C307.828 65.3949 310.304 67.0516 310.946 67.0056C311.817 67.6959 312.276 68.2021 312.321 68.5703C312.413 68.9844 312.092 69.3066 311.359 69.3986L310.396 69.4907L310.35 68.7083C306.865 70.5031 303.656 72.528 300.676 74.7829L300.447 74.0466C299.805 73.4944 299.392 72.4359 299.117 70.9173L298.934 69.1685L291.46 69.9509C295.953 71.7916 298.246 72.8961 298.292 73.3563V73.4484C298.75 73.8165 298.979 74.0926 299.025 74.3227C299.025 74.4148 298.979 74.4608 298.842 74.4608C298.567 74.5068 298.017 74.4148 297.237 74.1847L289.947 77.7282C289.764 78.0503 289.718 78.2804 289.718 78.4185C289.764 78.6486 290.039 78.7406 290.497 78.7866C290.956 78.8327 291.873 79.0167 293.111 79.3849L301.73 78.7406C302.922 77.8662 303.702 77.406 304.069 77.314C304.16 77.314 304.16 77.314 304.206 77.406C304.252 77.5441 304.206 77.7282 304.069 78.0043C305.169 76.6237 305.857 75.8874 306.132 75.8414C306.223 75.8414 306.269 75.8414 306.269 75.9334L307.416 75.5192L308.149 76.3936C311.45 75.7954 313.147 75.7033 313.238 76.0715C313.284 76.3016 313.192 76.5777 312.917 76.8998C312.826 78.4645 311.955 79.8451 310.258 80.9496C309.937 80.9496 309.479 80.9956 308.837 81.0876C307.232 81.3638 304.756 82.1461 301.409 83.3886L289.076 85.6896C285.913 86.2418 283.804 86.1958 282.703 85.4595C281.649 84.7692 280.778 82.8364 280.09 79.7531L276.468 80.0752C277.339 86.4259 275.642 91.4421 271.287 95.1236C275.092 95.952 276.972 96.4122 277.018 96.4582L276.789 96.3662L272.204 98.207C274.771 99.1734 276.514 99.5876 277.431 99.4035C278.027 99.3114 278.302 99.0353 278.302 98.5751C279.127 96.0901 279.265 93.3289 278.714 90.1995C278.531 89.1871 278.256 88.1286 277.935 87.0702L291.231 86.3799L290.406 86.0578C296.87 86.0117 301.318 86.1958 303.794 86.4719L303.931 86.0117H303.839C303.702 86.0578 303.289 86.4719 302.601 87.3463L300.217 88.4508L302.372 87.9446L302.418 88.7269C302.556 89.5092 303.106 90.0155 304.114 90.1995L305.536 88.8189L306.82 89.8314C308.378 89.3252 309.112 88.8189 309.02 88.3127L308.883 88.1286C309.525 87.2083 309.937 85.9657 310.121 84.4471L312.138 84.5391L314.201 87.3003C315.118 88.3127 315.668 89.2331 315.76 89.9234C315.852 90.4296 315.852 91.0279 315.76 91.7182L315.898 91.9023C316.081 92.9147 312.184 94.2953 304.206 95.998L300.538 98.1149C297.971 97.8848 296.137 97.8848 295.036 98.0689C294.624 98.1609 294.303 98.253 294.074 98.345C292.882 97.8848 292.102 96.6883 291.781 94.7095C291.644 93.8351 291.552 92.8227 291.598 91.7182L289.947 88.0826C290.268 88.1286 290.406 88.1747 290.406 88.2207C290.452 88.4508 290.222 88.6809 289.764 89.003L289.856 89.5553C290.131 91.0279 289.764 92.5005 288.847 93.9732C287.15 95.3077 284.308 97.7468 280.319 101.29C284.4 101.566 288.801 101.244 293.569 100.416C296.32 99.9097 299.163 99.2654 302.143 98.4371C305.307 98.5291 308.378 98.345 311.404 97.7928C313.697 97.3786 315.989 96.7804 318.236 96.044L319.841 96.3202C318.19 97.8848 316.035 100.094 313.422 102.947C313.009 105.248 312.917 106.997 313.101 108.147L311.359 108.469C306.178 109.39 301.18 109.344 296.458 108.285L301.318 110.54C300.538 110.218 299.805 110.126 299.163 110.264C298.383 110.402 297.604 110.816 296.916 111.461L298.567 118.364C298.979 117.259 299.3 116.661 299.621 116.615H299.713C299.392 116.431 299.163 115.971 299.025 115.188L298.934 114.728L315.164 121.401L308.424 121.263C305.49 122.367 300.538 124.668 293.523 128.074C302.005 127.107 310.763 125.819 319.795 124.208L323.142 123.61L321.904 122.92C318.878 126.095 317.135 129.776 316.585 134.056C300.126 135.253 287.792 134.332 279.677 131.295C269.545 136.081 257.853 140.959 244.465 145.929C243.319 148 241.99 149.197 240.568 149.611ZM246.987 79.2468L244.832 74.0006L231.078 76.4396L233.187 80.7655L246.987 79.2468ZM237.451 93.7431L245.52 91.396L250.426 86.2879L238.138 89.4632C238.092 90.0615 237.68 90.7058 236.9 91.35C236.809 91.35 236.809 91.5341 236.855 91.8102L237.451 93.7431ZM257.716 115.694L281.694 111L288.572 106.997C280.915 104.236 275.918 101.658 273.488 99.2654C271.287 101.981 266.244 105.386 258.403 109.436L270.003 108.055L272.616 107.135C272.8 106.122 273.075 105.616 273.35 105.57C273.488 105.524 273.625 105.754 273.809 106.168C273.533 105.846 273.35 105.524 273.304 105.248C273.213 104.604 273.442 103.821 274.038 102.993L274.267 102.947C275.642 102.717 277.018 103.223 278.439 104.558C279.861 105.892 281.465 106.675 283.208 106.951C282.474 107.917 281.236 108.561 279.54 108.93L260.512 111.875L259.962 110.724C258.633 111.185 255.744 112.381 251.297 114.268L257.716 115.694ZM252.214 107.181L260.329 96.8724L266.427 96.4582C267.16 93.8811 266.931 89.1411 265.739 82.3302C265.923 83.2506 265.602 83.8028 264.776 83.9408C264.41 83.9869 263.951 83.9869 263.401 83.8488L252.076 86.1958C256.661 88.0826 259.916 89.3712 261.934 90.0615L261.475 90.0155C261.338 90.0615 261.292 90.1535 261.338 90.2916C261.384 90.5217 261.567 90.7978 261.934 91.212L258.403 90.8438C259.183 95.6759 257.12 101.152 252.214 107.181ZM269.178 132.538C271.791 132.077 274.084 131.525 276.147 130.835C274.267 129.915 272.387 128.81 270.553 127.568L270.37 127.061L270.737 127.798L258.449 127.844L261.2 133.412C261.338 133.366 261.429 133.412 261.429 133.458L260.788 133.596C263.859 133.32 266.656 132.998 269.178 132.538ZM258.999 127.936L284.95 122.92L285.592 117.075L259.32 122.643L258.999 127.936ZM259.32 120.941L285.546 115.648L284.583 111.461L258.587 118.087L259.32 120.941ZM289.81 128.994C291.827 126.003 293.936 123.564 296.091 121.585C293.844 122.735 291.965 123.426 290.452 123.702C289.535 123.886 288.709 123.84 288.113 123.656L286.004 125.589L285.179 125.405L273.121 126.739C277.522 128.626 283.07 129.362 289.81 128.994ZM275.642 78.3264L275.046 77.5441L280.227 76.5317L279.356 72.2058L274.771 74.0466L275.642 78.3264ZM288.343 76.2095L289.535 74.6449L293.294 71.1934L288.251 70.5031L288.343 76.2095ZM291.506 68.8004L297.879 67.5578L301.776 64.1984L290.222 64.6586L291.506 68.8004Z" fill="black" fill-opacity="0.6"/>
<path d="M270.782 179.109C309.929 179.109 341.664 147.256 341.664 107.963C341.664 68.6698 309.929 36.8164 270.782 36.8164C231.635 36.8164 199.9 68.6698 199.9 107.963C199.9 147.256 231.635 179.109 270.782 179.109Z" stroke="black" stroke-opacity="0.6" stroke-width="6" stroke-miterlimit="10"/>
<path d="M409.245 80.8108L407.595 75.8407C410.437 75.9327 414.701 76.4849 420.341 77.4974L481.503 77.0372L490.535 66.6367C496.403 70.9626 501.63 74.5981 506.261 77.4514C506.719 77.8195 506.903 78.0956 506.903 78.2337C506.903 78.3257 506.765 78.3257 506.444 78.3257L505.252 78.2337L454.727 78.3257L424.696 78.0036C420.478 79.2922 415.343 80.2125 409.245 80.8108Z" fill="black" fill-opacity="0.6"/>
<path d="M456.928 156.1C496.075 156.1 527.81 124.246 527.81 84.9531C527.81 45.66 496.075 13.8066 456.928 13.8066C417.781 13.8066 386.046 45.66 386.046 84.9531C386.046 124.246 417.781 156.1 456.928 156.1Z" stroke="black" stroke-opacity="0.6" stroke-width="6" stroke-miterlimit="10"/>
<path d="M607.082 120.895C604.606 120.066 602.176 118.41 599.838 115.832C601.397 111.737 602.13 107.779 602.13 104.005C602.13 100.232 601.488 97.7467 600.25 96.5042C597.545 96.5042 595.895 96.136 595.299 95.3997L593.557 93.743L597.729 95.8599L600.48 94.0651C600.25 94.5713 600.159 94.9395 600.159 95.1696C600.159 95.3076 600.205 95.3997 600.25 95.3997L600.709 95.1696C600.801 94.8935 601.534 93.9731 603.001 92.5004C603.872 91.2579 605.294 88.8649 607.219 85.3214C609.145 81.7779 615.839 70.2269 627.209 50.6225L626.109 52.3712C625.009 56.421 622.9 63.3239 619.828 73.1261C617.994 80.9955 616.389 86.1037 614.968 88.4967C613.73 90.4756 613.088 92.4544 613.088 94.4793C613.088 95.8139 613.363 97.1484 613.959 98.437C613.822 98.437 613.73 98.6211 613.73 98.9892C613.73 99.8636 614.143 101.658 614.922 104.281C616.664 105.892 617.581 107.871 617.581 110.126L617.489 111.553C617.994 112.289 618.269 113.071 618.269 113.854C618.269 115.05 617.444 116.431 615.839 118.041C614.28 119.744 611.346 120.665 607.082 120.895ZM605.431 75.7493C603.872 75.7493 601.947 75.105 599.609 73.8624C598.554 71.7916 597.729 68.9844 597.087 65.4869C595.528 64.4744 594.336 63.0018 593.465 61.069C599.929 61.6672 605.615 63.1859 610.521 65.5789C612.125 66.0391 613.134 67.4197 613.501 69.7667C613.042 72.4358 611.208 74.0926 607.907 74.8289C607.265 75.4271 606.486 75.7493 605.431 75.7493ZM684.016 119.928C674.984 116.615 668.886 112.289 665.768 106.905C661.733 101.981 659.166 93.5589 658.066 81.5938L656.186 83.8027C655.59 92.7305 652.105 99.7255 645.732 104.788C639.268 111.046 629.594 115.924 616.664 119.376L617.123 119.698C623.725 114.82 629.456 109.482 634.27 103.591C637.663 97.4246 640.185 90.4756 641.881 82.8363L635.279 82.2841C631.336 82.5142 626.934 83.4346 622.074 85.0452L619.232 80.5353C620.836 80.8114 622.625 80.9955 624.642 80.9955C627.485 80.9955 630.74 80.6734 634.316 79.9831L641.01 82.1C642.019 80.1672 642.569 78.0963 642.569 75.7953C642.569 74.2306 642.294 72.5739 641.789 70.8252L642.66 58.906L638.03 59.2282C637.159 58.9981 636.196 58.906 635.187 58.906C632.986 58.906 630.465 59.4123 627.576 60.4707L627.347 56.1449C628.722 56.513 630.281 56.6971 631.978 56.6971C633.72 56.6971 635.646 56.513 637.709 56.1449L643.99 57.4794L643.761 55.8227C643.761 49.426 642.752 43.9496 640.781 39.3477C647.979 41.4646 653.068 42.6611 656.094 42.8912C657.928 43.0292 658.845 43.3974 658.845 43.9957V44.2257C660.037 44.2257 660.587 44.5019 660.587 45.0081V45.1001L657.057 43.9957L656.736 58.4458L664.209 57.1113L667.969 54.9944C668.198 54.7643 668.519 54.6722 668.978 54.6722L670.078 54.7643C670.949 53.3837 672.141 52.6013 673.608 52.4633L673.516 52.2332C673.516 52.1411 673.562 52.1411 673.608 52.1411C674.067 52.1411 675.809 53.1076 678.881 54.9944C682.64 57.4334 684.474 58.86 684.474 59.2742V59.3662H684.245C683.649 59.3662 683.007 59.8264 682.274 60.7008L682.365 79.2468L682.824 75.7032L683.374 74.9209L683.053 75.7032C683.191 74.6908 683.878 73.7704 685.162 73.0341H685.254C685.987 73.0341 687.363 74.2766 689.426 76.8077C691.489 79.2928 693.002 80.5813 693.919 80.5813H694.24C694.378 81.0415 694.469 81.4097 694.469 81.6858C694.469 82.5142 694.011 82.8823 693.048 82.8823L657.836 83.4346C660.633 90.1995 665.493 95.3076 672.462 98.8051C678.56 103.913 685.483 106.536 693.277 106.767L694.148 108.976L693.369 108.883C691.764 108.883 690.022 110.172 688.188 112.749C685.85 114.774 684.428 117.167 684.016 119.928ZM614.143 56.2829C612.905 56.2829 611.621 56.0068 610.291 55.5006C608.824 52.8314 607.449 49.9322 606.119 46.7568L602.039 41.6947L601.947 42.1549H603.689C610.154 42.1549 614.83 43.3514 617.765 45.6984C620.561 46.4347 622.258 47.9994 622.808 50.3464C622.304 52.8314 621.57 54.12 620.607 54.12H620.286C618.315 55.5466 616.252 56.2829 614.143 56.2829ZM666.181 82.0079L665.951 58.4919L658.341 59.1361L657.332 70.503C657.469 71.8376 657.561 73.1261 657.561 74.3687C657.561 77.2219 657.103 79.707 656.232 81.7778L666.181 82.0079Z" fill="black" fill-opacity="0.6"/>
<path d="M643.073 156.1C682.22 156.1 713.955 124.246 713.955 84.9531C713.955 45.66 682.22 13.8066 643.073 13.8066C603.926 13.8066 572.191 45.66 572.191 84.9531C572.191 124.246 603.926 156.1 643.073 156.1Z" stroke="black" stroke-opacity="0.6" stroke-width="6" stroke-miterlimit="10"/>
<path d="M808.311 140.453C819.452 136.449 827.017 128.488 831.052 116.661L827.384 114.084C825.504 113.808 823.716 114.038 822.02 114.728L819.131 112.197L832.106 114.038L834.307 102.763C828.713 105.8 822.02 108.239 814.271 110.08L811.337 130.098C810.741 133.596 809.457 135.161 807.486 134.931C806.385 137.416 803.313 138.244 798.362 137.37C797.261 137.186 796.069 136.909 794.694 136.495C795.152 134.194 795.657 132.077 796.115 130.237C794.877 128.902 792.952 127.705 790.338 126.739L789.009 124.714C791.484 125.911 793.456 126.601 794.877 126.877C795.381 126.969 795.84 127.015 796.207 127.015C796.619 127.245 796.94 127.383 797.261 127.429C798.362 127.613 799.049 127.107 799.416 125.911L802.626 109.666L802.35 109.528C799.966 109.113 798.499 107.825 797.995 105.708L798.132 105.064C798.362 103.775 798.362 101.52 798.178 98.3449C795.886 105.8 792.997 111.921 789.467 116.661C786.028 123.84 781.031 129.132 774.383 132.584L774.52 131.939C777.363 128.396 779.472 122.781 780.847 115.004L781.352 111.507L785.983 90.7976C785.937 90.2454 785.937 89.7852 786.028 89.325C786.212 88.1745 786.9 87.3462 788.046 86.886L790.292 71.0092C791.393 64.6124 791.668 59.8724 791.026 56.7891L804.368 64.1062L807.44 63.8761L810.099 61.9893C810.191 62.4035 810.466 62.6336 810.97 62.6796C811.429 62.7716 812.025 62.7256 812.896 62.5875L812.987 62.0353C813.217 60.7468 814.088 60.1945 815.601 60.4706C817.481 60.7928 819.544 62.0813 821.882 64.2903C824.358 66.8214 825.55 68.202 825.504 68.386C823.991 69.3064 822.661 69.6746 821.515 69.4905L821.194 69.4445L815.509 109.482C819.91 106.813 825.275 102.855 831.556 97.6086L826.971 96.366C826.008 96.32 825.091 96.274 824.22 96.0899C822.57 95.8138 821.011 95.2155 819.59 94.3872L819.085 90.9357C820.415 91.3959 823.578 92.1322 828.53 93.1907L830.272 95.8598C833.344 93.1907 835.224 89.8772 835.958 85.8735L836.003 85.5514L829.126 85.3213L830.226 83.3885C827.521 84.8611 824.404 86.0116 820.873 86.886L819.498 85.2753C820.644 84.585 821.515 83.8487 822.02 83.1123C824.083 79.7529 825.733 76.4395 826.834 73.1261C827.98 69.8587 828.897 67.2355 829.63 65.2567L841.689 71.5614C842.651 70.2268 843.247 69.0763 843.431 68.0639C843.614 67.1435 843.385 66.3151 842.835 65.5788L862.596 71.4233L861.77 71.6074C861.679 71.6074 861.449 71.8375 861.083 72.3897L862.871 72.4818C870.161 75.5651 875.158 78.1882 877.909 80.3051C879.651 83.1584 880.339 85.4594 880.064 87.2081L879.926 87.8524C880.11 88.9569 880.156 89.8312 880.018 90.5675C879.651 92.6844 877.909 93.4668 874.791 92.9146C873.645 92.7305 872.499 92.2242 871.353 91.534C871.123 91.626 870.848 91.672 870.573 91.626C870.206 91.58 869.886 91.3959 869.565 91.1198L856.589 89.279C857.598 92.9606 859.845 97.1023 863.467 101.704L865.438 101.29L869.794 98.0227L869.977 97.0563H869.885C871.032 96.0439 872.132 95.6757 873.232 95.8598L874.195 96.1359C874.562 96.1819 875.938 97.4245 878.413 99.8635C880.843 102.257 882.677 104.235 883.915 105.708L882.265 105.524C881.027 105.294 879.926 104.788 878.964 104.051L867.593 102.026C872.315 106.813 876.534 110.31 880.156 112.427L880.247 111.875C874.745 111.368 870.986 113.946 868.923 119.652C862.55 115.234 858.24 108.837 855.993 100.416L841.872 97.3785C839.442 98.4369 836.829 100.554 834.078 103.637C843.11 105.11 848.841 105.846 851.225 105.892C850.767 105.984 850.537 106.122 850.492 106.306C850.446 106.444 850.537 106.628 850.721 106.812L849.3 107.227C847.832 110.54 846.09 113.808 844.119 116.983L851.225 117.121L855.902 116.707C855.306 115.326 855.031 114.59 855.076 114.452L855.26 114.59C857.461 114.314 858.79 113.577 859.203 112.381C860.303 114.084 862.229 116.016 864.934 118.225C867.639 120.434 869.519 121.999 870.527 122.919C869.885 123.564 868.648 123.932 866.768 124.024C865.209 131.663 863.283 137.186 860.991 140.499C860.257 143.306 858.423 144.641 855.489 144.549C852.601 145.699 848.979 145.883 844.669 145.101C843.431 144.871 842.147 144.595 840.817 144.181C841.551 143.03 841.964 142.018 842.147 141.051C842.376 139.671 841.964 138.52 840.863 137.554C840.221 136.081 838.387 134.47 835.361 132.63L833.803 132.584C837.104 133.642 840.084 134.654 842.743 135.621C843.981 134.931 844.944 134.654 845.677 134.793L846.09 134.977C847.603 134.7 849.391 129.316 851.409 118.732L843.66 118.271C841.138 124.576 837.425 129.316 832.565 132.584C827.017 136.541 819.177 138.75 809.044 139.164L808.311 140.453ZM802.35 98.667L806.477 89.1869C805.56 89.325 804.735 89.325 804.001 89.1869C802.992 89.0029 802.259 88.5887 801.754 87.8984L801.938 86.932C802.442 84.1248 801.846 81.3636 800.15 78.7405L798.408 88.5427C798.408 90.1073 798.545 92.5464 798.82 95.8138C800.425 97.2864 801.617 98.2528 802.35 98.667ZM804.964 77.59C805.835 77.728 806.706 77.728 807.623 77.636L810.007 66.7293L802.626 66.2231L800.562 75.381C801.938 76.5775 803.451 77.3139 804.964 77.59ZM836.829 84.4469C838.525 81.0875 840.13 78.1422 841.643 75.5191C837.837 78.4644 834.032 80.6733 830.181 82.238L836.829 84.4469ZM855.627 99.3573C855.764 95.9979 855.306 92.7765 854.205 89.5551L848.337 89.279C846.961 92.0402 844.485 94.2951 840.909 96.0439L855.627 99.3573ZM851.5 86.1496L855.076 86.6559L860.716 81.1335C862.917 84.3089 865.576 86.4258 868.648 87.4842C866.905 82.0999 864.705 77.0838 862.045 72.3897C861.77 72.5738 861.449 72.6198 860.991 72.5278C860.349 72.3897 859.478 71.8835 858.469 70.9631C855.489 76.2554 853.151 81.3176 851.5 86.1496Z" fill="black" fill-opacity="0.6"/>
<path d="M829.218 179.109C868.365 179.109 900.1 147.256 900.1 107.963C900.1 68.6698 868.365 36.8164 829.218 36.8164C790.071 36.8164 758.336 68.6698 758.336 107.963C758.336 147.256 790.071 179.109 829.218 179.109Z" stroke="black" stroke-opacity="0.6" stroke-width="6" stroke-miterlimit="10"/>
<path d="M957.503 170.366L956.907 169.077C963.005 170.274 970.157 170.32 978.273 169.215C986.434 168.065 992.669 166.362 996.979 164.107L1002.48 173.541L1009.04 180.03C1008.4 180.03 1007.66 179.892 1006.74 179.57C1005.28 179.018 1003.54 178.143 1001.52 176.855C995.924 177.683 989.276 177.545 981.711 176.441C974.1 175.29 966.031 173.265 957.503 170.366ZM982.124 164.706C981.345 164.429 980.611 164.107 979.923 163.693L976.485 162.543C975.705 162.266 975.568 161.438 975.98 160.104C978.364 155.041 980.748 149.243 983.087 142.754L984.004 140.269L991.156 124.76C985.333 124.484 980.428 124.392 976.485 124.438L977.126 124.668C981.895 122.966 988.176 120.066 995.97 116.017C999.225 114.59 1001.98 112.427 1004.22 109.528C1006.52 106.583 1008.95 104.42 1011.56 103.039C1018.39 108.055 1023.43 112.059 1026.64 115.004C1026.87 115.004 1027.01 115.004 1027.01 114.912C1027.1 114.728 1026.83 114.314 1026.28 113.716C1024.12 114.912 1021.1 115.787 1017.24 116.385L1029.58 120.757L1033.75 119.238L1033.7 119.008C1033.8 118.778 1034.02 118.778 1034.44 118.916L1035.22 119.33C1036.73 118.226 1038.06 117.903 1039.3 118.364L1039.89 118.686L1039.71 118.87C1039.53 119.422 1040.58 121.309 1042.92 124.438C1045.26 127.568 1046.63 129.27 1047.05 129.408L1047.14 129.454C1046.54 130.237 1045.44 130.559 1043.88 130.375C1036.32 131.387 1029.12 131.893 1022.24 131.893L1040.4 137.692L1042.05 136.035L1042.69 136.265C1043.88 136.679 1044.84 136.495 1045.58 135.667C1046.5 135.069 1047.41 134.839 1048.28 135.023L1048.24 135.115C1048.05 135.621 1049.48 137.692 1052.5 141.373C1055.53 145.055 1057.64 147.264 1058.78 147.908C1057.64 147.632 1056.17 147.724 1054.47 148.23L1048.33 164.798C1046.22 170.596 1044.02 175.796 1041.73 180.352L1041.82 180.398C1041.77 180.536 1039.94 180.72 1036.32 180.996C1034.71 180.904 1033.25 180.582 1031.87 180.076C1030.77 179.662 1029.71 179.11 1028.71 178.465L1025.22 177.775L1027.93 175.244L991.844 162.312L992.394 163.095C991.523 164.015 990.331 164.705 988.864 165.074C986.617 165.626 984.371 165.488 982.124 164.706ZM993.265 161.116L1026.69 172.621L1032.19 161.944L997.896 151.268L993.265 161.116ZM1033.2 161.852L1037.28 150.623L1000.92 138.152L999.73 148.184L1033.2 161.852ZM1038.47 199.957L1037.33 199.542C1034.76 198.622 1032.28 197.011 1029.85 194.71C1026.32 187.715 1020.04 181.043 1011.05 174.784C1012.2 175.106 1016.01 176.487 1022.47 178.834C1028.61 181.089 1033.7 182.975 1037.74 184.54C1043.97 189.096 1047.05 192.363 1046.95 194.388C1047.27 195.447 1047.27 196.367 1047 197.241C1046.63 198.208 1045.9 199.082 1044.75 199.819C1043.84 200.233 1041.77 200.325 1038.47 199.957ZM1001.11 137.922L1036.18 150.025L1040.72 141.466L1004.82 128.442L1001.11 137.922ZM1018.85 131.341C1021.55 129.731 1025.13 126.923 1029.67 122.828L1016.97 117.489C1011.65 118.364 1006.93 119.606 1002.85 121.263L1007.62 126.555L1018.85 131.341Z" fill="black" fill-opacity="0.6"/>
<path d="M1015.36 225.129C1054.51 225.129 1086.25 193.276 1086.25 153.982C1086.25 114.689 1054.51 82.8359 1015.36 82.8359C976.217 82.8359 944.482 114.689 944.482 153.982C944.482 193.276 976.217 225.129 1015.36 225.129Z" stroke="black" stroke-opacity="0.6" stroke-width="6" stroke-miterlimit="10"/>
</svg>
