<svg width="315" height="95" viewBox="0 0 315 95" fill="none" xmlns="http://www.w3.org/2000/svg">
<rect width="315" height="95" rx="20" fill="#480202"/>
<path d="M46.352 39.44H85.352L89.096 34.968C89.096 34.968 93.308 37.984 95.908 40.064C95.752 40.636 95.18 40.896 94.452 40.896H46.768L46.352 39.44ZM72.404 23.528L81.66 24.412C81.608 25.088 81.192 25.712 79.84 25.92C79.58 40.584 80.516 54.26 89.512 61.28C90.292 61.956 90.708 61.956 91.228 61.124C92.164 59.72 93.776 56.808 94.868 54.468L95.336 54.624L94.088 63.62C96.116 67.052 96.376 68.924 95.388 69.964C92.684 72.72 87.9 70.432 85.404 68.3C73.652 58.16 72.456 42.092 72.404 23.528ZM82.544 25.348C97.728 27.22 91.332 38.92 85.352 34.136C85.3 31.068 83.844 27.74 82.128 25.608L82.544 25.348ZM85.612 41.936L94.296 45.888C93.984 46.46 93.464 46.824 92.216 46.668C87.38 55.82 78.956 65.388 64.812 69.964L64.448 69.392C75.628 62.788 82.596 51.556 85.612 41.936ZM46.3 50.1C50.824 49.736 62.212 48.28 73.496 46.668L73.548 47.24C69.024 49.736 61.9 53.012 51.032 57.276C50.72 57.952 50.096 58.42 49.472 58.576L46.3 50.1ZM65.644 22.852L73.444 29.612C72.768 30.184 71.52 30.288 69.648 29.664C63.876 31.276 54.568 32.628 46.404 33.044L46.3 32.524C53.112 30.132 61.484 25.868 65.644 22.852ZM57.636 28.78H65.02V63.1C65.02 67.936 63.772 71.316 55.764 71.888C55.66 69.496 55.296 67.676 54.412 66.584C53.528 65.492 52.384 64.66 49.316 64.14V63.516C49.316 63.516 55.244 63.88 56.544 63.88C57.376 63.88 57.636 63.464 57.636 62.84V28.78ZM104.228 25.92H141.772L145.464 21.864C145.464 21.864 149.572 24.568 152.224 26.544C152.068 27.116 151.496 27.376 150.716 27.376H104.644L104.228 25.92ZM119.256 25.92H126.38V43.392H119.256V25.92ZM129.552 25.92H136.78V43.392H129.552V25.92ZM112.756 43.028H143.904V44.484H112.756V43.028ZM140.004 32.94H139.484L142.708 29.404L149.468 34.448C149.156 34.864 148.48 35.332 147.388 35.592V45.42C147.336 45.784 143.592 46.98 141.304 46.98H140.004V32.94ZM108.96 32.94V30.028L116.76 32.94H143.592V34.396H116.24V45.732C116.24 46.356 112.912 47.916 109.948 47.916H108.96V32.94ZM103.552 51.088H142.344L146.088 46.408C146.088 46.408 150.352 49.528 152.952 51.712C152.796 52.284 152.224 52.544 151.444 52.544H103.968L103.552 51.088ZM121.96 44.744L131.372 46.72C131.216 47.5 130.54 48.02 128.98 48.02C126.692 51.608 120.712 60.136 117.384 64.036C115.356 64.4 112.236 63.932 109.74 62.32C113.484 57.952 120.036 48.696 121.96 44.744ZM134.18 51.088H142.604V51.92C137.924 65.232 129.916 70.172 104.54 71.888L104.384 71.212C122.428 67.728 131.268 62.632 134.18 51.088ZM116.916 59.096C161.22 60.24 149.936 75.788 141.928 70.796C137.456 67.624 129.136 62.84 116.76 59.772L116.916 59.096ZM186.804 40.272C182.644 46.72 173.284 54.26 161.22 57.38L161.012 56.808C170.424 51.92 177.756 43.288 180.564 35.696L190.132 38.4C189.924 39.128 189.352 39.492 187.532 39.7C192.472 44.64 201.572 47.916 210.776 48.956L210.724 49.788C207.916 50.88 206.72 53.792 206.252 56.392C197.204 53.428 190.652 47.916 186.804 40.272ZM167.824 33.772L175.624 35.696C175.468 36.372 174.844 36.788 173.7 36.788C172.088 38.556 169.384 40.948 166.992 42.716H166.264C166.94 40.168 167.564 36.424 167.824 33.772ZM161.376 41.52C164.028 41.624 170.06 41.572 175.936 41.468V42.144C173.752 43.236 170.424 44.692 165.536 46.668C165.172 47.344 164.6 47.708 164.028 47.76L161.376 41.52ZM173.284 37.62C184.672 40.532 178.224 48.592 174.012 44.328C174.22 42.092 173.596 39.544 172.764 37.828L173.284 37.62ZM194.188 33.72L202.04 35.8C201.832 36.424 201.208 36.892 200.064 36.84C198.348 38.66 195.54 41.104 192.888 42.872H192.212C193.044 40.324 193.824 36.424 194.188 33.72ZM190.028 41.052C192.888 41.104 199.128 41.104 205.264 40.948L205.316 41.624C203.132 42.716 199.804 44.068 194.76 45.992C194.396 46.72 193.876 47.032 193.356 47.136L190.028 41.052ZM200.324 37.568C212.7 39.596 207.812 48.8 203.028 45.212C202.768 42.612 201.26 39.7 199.856 37.88L200.324 37.568ZM167.252 29.04C172.92 29.144 185.348 29.144 198.972 28.936V29.716C193.408 31.224 185.244 32.784 172.4 35.02C172.036 35.696 171.464 36.06 170.892 36.164L167.252 29.04ZM188.052 25.244C205.524 25.036 204.224 36.632 197.88 34.812C195.644 31.744 191.016 27.844 187.636 25.66L188.052 25.244ZM177.34 22.54L186.7 23.996C186.596 24.672 186.024 25.14 184.776 25.244C182.488 27.48 178.172 30.548 174.896 32.576H174.272C175.416 29.768 176.664 25.452 177.34 22.54ZM184.932 45.68L191.692 50.048C191.328 50.568 190.756 50.672 189.56 50.464C183.424 54.988 176.196 58.108 168.604 59.876L168.24 59.096C174.688 55.976 180.356 51.504 184.932 45.68ZM191.068 50.88L197.932 55.508C197.516 56.028 196.84 56.132 195.644 55.872C187.48 61.28 178.796 64.036 168.968 65.284L168.708 64.504C177.34 61.696 184.88 57.536 191.068 50.88ZM196.788 56.34L204.224 61.436C203.756 61.956 202.924 62.06 201.728 61.748C190.704 69.6 179.94 71.68 166.368 71.94L166.264 71.16C178.38 68.82 188.676 65.336 196.788 56.34ZM248.84 62.736H261.112V64.192H248.84V62.736ZM257.42 31.38H256.9L260.384 27.532L267.092 32.888C266.728 33.356 266.104 33.772 265.064 34.032V67.26C264.96 67.884 261.528 69.86 258.668 69.86H257.42V31.38ZM218.472 34.188H237.972V35.644H218.94L218.472 34.188ZM224.66 23.06L234.02 23.892C233.864 24.672 233.396 25.14 232.096 25.348C231.836 42.04 232.356 59.72 217.796 71.992L217.12 71.316C225.544 56.704 224.66 39.804 224.66 23.06ZM235.476 34.188H234.852L238.7 30.34L244.94 35.852C244.524 36.372 243.848 36.736 242.652 36.944C242.236 59.356 241.664 65.44 238.596 68.404C236.672 70.276 234.228 71.108 231.16 71.108C231.16 68.612 231.004 66.948 230.38 66.012C229.6 64.868 228.508 64.14 226.48 63.568L226.532 62.944C227.936 63.1 230.172 63.204 231.212 63.204C231.992 63.204 232.46 62.996 232.928 62.58C234.696 60.968 235.164 53.064 235.476 34.188ZM245.512 31.38V28.312L253 31.38H261.372V32.836H252.792V68.352C252.792 69.236 249.932 70.952 246.708 70.952H245.512V31.38Z" fill="#B10404"/>
</svg>
