<svg id="eQJftmA8ade1" xmlns="http://www.w3.org/2000/svg" xmlns:xlink="http://www.w3.org/1999/xlink" viewBox="0 0 817 298" shape-rendering="geometricPrecision" text-rendering="geometricPrecision" project-id="53d5fbe541cc42e58fcb6bc3cd2529c4" export-id="26b3af29b23c47c6ad4503f0c85914b1" cached="false">
<style><![CDATA[
#eQJftmA8ade3 {animation: eQJftmA8ade3_c_o 3000ms linear infinite normal forwards}@keyframes eQJftmA8ade3_c_o { 0% {opacity: 0} 63.333333% {opacity: 0;animation-timing-function: step-end} 66.666667% {opacity: 1;animation-timing-function: step-end} 100% {opacity: 0}} #eQJftmA8ade5 {animation: eQJftmA8ade5_c_o 3000ms linear infinite normal forwards}@keyframes eQJftmA8ade5_c_o { 0% {opacity: 0} 33.333333% {opacity: 0;animation-timing-function: step-end} 36.666667% {opacity: 1;animation-timing-function: step-end} 66.666667% {opacity: 0} 100% {opacity: 0}} #eQJftmA8ade7 {animation: eQJftmA8ade7_c_o 3000ms linear infinite normal forwards}@keyframes eQJftmA8ade7_c_o { 0% {opacity: 1} 33.333333% {opacity: 1;animation-timing-function: step-end} 36.666667% {opacity: 0} 100% {opacity: 0}}
]]></style>
<defs><filter id="eQJftmA8ade2-filter" x="-150%" width="400%" y="-150%" height="400%"><feGaussianBlur id="eQJftmA8ade2-filter-blur-0" stdDeviation="10,10" result="result"/></filter><filter id="eQJftmA8ade4-filter" x="-150%" width="400%" y="-150%" height="400%"><feGaussianBlur id="eQJftmA8ade4-filter-blur-0" stdDeviation="10,10" result="result"/></filter><filter id="eQJftmA8ade6-filter" x="-150%" width="400%" y="-150%" height="400%"><feGaussianBlur id="eQJftmA8ade6-filter-blur-0" stdDeviation="10,10" result="result"/></filter></defs><g filter="url(#eQJftmA8ade2-filter)"><path id="eQJftmA8ade3" d="M752.330143,249.466755c-15.345401-12.71728-23.930739-48.850232-61.9167-52.563416-37.98497-3.714189-71.42855,9.795973-88.695346,3.964415-14.982724-5.058774-20.641873-19.603001-20.087948-33.453832c7.352633,1.595815,15.067943,2.459043,23.023056,2.459043c50.041505,0,90.607824-33.553319,90.607824-74.936382C695.261027,53.553821,654.694708,20,604.653204,20c-23.549235,0-45.003663,7.437423-61.113064,19.612346-16.091564-12.074532-37.459782-19.441711-60.902988-19.441711-23.548244,0-45.003663,7.437423-61.113064,19.612346-16.091564-12.074532-37.449873-19.441711-60.893079-19.441711-23.549235,0-45.003663,7.437423-61.113064,19.612346-16.091564-12.074532-37.450864-19.441711-60.89407-19.441711-23.548244,0-45.002672,7.437423-61.113064,19.612346-16.090573-12.074532-37.458791-19.441711-60.901997-19.441711C66.566815,20.682543,26,54.236364,26,95.619025c0,41.382963,40.566815,74.936281,90.608815,74.936281c23.548244,0,45.002672-7.437423,61.113064-19.612045c16.090573,12.084179,37.449873,19.442213,60.893079,19.442213c23.548244,0,45.002672-7.438428,61.113064-19.61305c16.090573,12.085184,37.449873,19.442213,60.893079,19.442213c23.548244,0,45.002672-7.437423,61.113064-19.61305c16.090573,12.085184,37.449873,19.442213,60.893079,19.442213c11.779077,0,23.041883-1.857095,33.367279-5.249709c9.26511,18.488543,25.661878,43.992442,46.408789,46.110816c28.940835,2.950449,24.676903,34.316054,64.469313,37.618226c27.219606,2.258058,49.534153-18.086574,81.113811-10.930529c22.334366,5.058774,18.232944,19.893423,32.402122,32.219788C756.622812,283.933547,790,276.095161,790,276.095161v-9.956761c.018827.010049-22.324457-3.954365-37.669857-16.671645Z" opacity="0" fill="#fffdf3" fill-opacity="0.2"/></g><g transform="translate(6 0.456696)" opacity="0.2" filter="url(#eQJftmA8ade4-filter)"><path id="eQJftmA8ade5" d="M738.774096,247.643196c-14.678496-12.435515-11.825438-37.868603-51.709234-40.688925s-66.112263,13.18827-74.061475-4.877853c-5.627413-12.786801,3.207232-19.752295,7.880346-32.328325c48.954557-2.268302,87.795511-34.887692,87.795511-74.803789C708.669405,53.552806,666.926201,20,615.433406,20c-24.231325,0-46.308098,7.437221-62.885355,19.611781-16.55758-12.074193-38.54581-19.441156-62.668916-19.441156-24.231325,0-46.308098,7.437221-62.885355,19.611781-16.55758-12.074193-38.535972-19.441156-62.659078-19.441156-24.231325,0-46.308098,7.437221-62.885355,19.611781-16.55758-12.074193-38.535972-19.441156-62.659078-19.441156-24.231325,0-46.308098,7.437221-62.885355,19.611781-16.55758-12.074193-38.54581-19.441156-62.668916-19.441156C61.743204,20.682498,20,54.235304,20,95.616765s41.743204,74.934267,93.235999,74.934267c24.231325,0,46.308098-7.437221,62.885355-19.611781c16.55758,12.084229,38.535972,19.441156,62.659078,19.441156c24.231325,0,46.308098-7.437221,62.885355-19.611781c16.55758,12.084229,38.535972,19.441156,62.659078,19.441156c24.231325,0,46.308098-7.437221,62.885355-19.611781c16.55758,12.084229,38.535972,19.441156,62.659078,19.441156c11.874628,0,23.227835-1.796576,33.675934-5.048478c8.244357,9.304054,17.010134,20.545197,21.683248,30.65219c8.864159,19.220348,28.442046,45.596889,106.094441,44.372407c36.056762-.572094,45.619429-4.235502,68.886617,14.412752c21.516,17.253148,51.128784,24.439451,63.790463,23.526108v-13.348858c.009838-.010037-30.547407-4.526568-45.225904-16.962083Z" opacity="0" fill="#fffdf3"/></g><g filter="url(#eQJftmA8ade6-filter)"><path id="eQJftmA8ade7" d="M738.275,252.883c-22.094-6.437-40.565-48.946-71.19-52.604s-55.726,10.945-71.01-6.187c-5.958-6.676-5.627-16.302-3.357-25.017c1.891.1,3.792.17,5.712.17c49.503,0,102.07-18.285,102.07-73.745s-33.415-74.8203-102.079-75.5c-23.295,0-44.519,7.4063-60.455,19.5302-15.918-12.024-37.056-19.3603-60.247-19.3603-23.295,0-44.518,7.4063-60.455,19.5302-15.918-12.024-37.047-19.3603-60.237-19.3603-23.295,0-44.519,7.4063-60.455,19.5302-15.918-12.024-37.047-19.3603-60.238-19.3603-23.294,0-44.518,7.4063-60.455,19.5302-15.917-12.0239-37.056-19.3602-60.246-19.3602C66.1299,20.6797,26,54.0928,26,95.302c0,41.209,40.1299,74.622,89.633,74.622c23.294,0,44.518-7.406,60.454-19.53c15.918,12.034,37.047,19.361,60.238,19.361c23.295,0,44.518-7.407,60.455-19.531c15.917,12.034,37.046,19.361,60.237,19.361c23.295,0,44.519-7.407,60.455-19.531c15.918,12.034,37.047,19.361,60.238,19.361c9.193,0,18.055-1.17,26.397-3.309c6.762,5.378,12.947,11.774,16.428,18.961c10.791,22.259,25.3,52.064,68.598,50.654c28.478-.919,54.326-12.383,77.763,0c23.437,12.384,35.949,34.053,77.489,34.893C785.924,271.453,790,278,790,278v-19.77c.009,0-24.922,2.469-51.725-5.347Z" fill="#fffdf3" fill-opacity="0.2"/></g></svg>
