<svg width="373" height="183" viewBox="0 0 373 183" fill="none" xmlns="http://www.w3.org/2000/svg">
<g filter="url(#filter0_f_1518_1920)">
<path d="M327.268 102.562C327.268 103.914 327.125 105.239 326.839 106.551C326.422 108.656 325.629 110.735 324.51 112.761C322.416 116.685 319.072 120.44 314.662 124C314.649 124.026 314.636 124.039 314.61 124.052C314.61 124.065 314.597 124.065 314.597 124.078C314.584 124.091 314.584 124.104 314.584 124.104C291.312 142.891 238.535 156 177.134 156C94.2162 155.987 27 132.068 27 102.562C27 97.7813 28.7692 93.143 32.0864 88.7256C32.7499 87.8292 33.4914 86.9457 34.2979 86.0622L34.3499 86.0102C34.48 85.8803 34.5971 85.7374 34.7272 85.6075C37.7322 82.3984 41.5828 79.3322 46.1619 76.4219C71.8802 60.1295 120.897 49.125 177.147 49.125C260.052 49.138 327.268 73.0569 327.268 102.562Z" stroke="#FFFDF3" stroke-width="3" stroke-miterlimit="10"/>
</g>
<g filter="url(#filter1_f_1518_1920)">
<path d="M346 78.9174C346 82.6332 337.74 95.6255 334.826 99.7311C331.743 104.071 327.983 108.8 324.51 112.775C325.641 110.736 326.422 108.67 326.838 106.565C327.124 105.253 327.268 103.928 327.268 102.576C327.268 73.0708 260.051 49.1519 177.134 49.1519C120.884 49.1519 71.8668 60.1564 46.1486 76.4488C41.5695 79.3461 37.7189 82.4253 34.7139 85.6344L50.7146 66.7565C67.717 43.8511 126.269 27 195.866 27C278.784 27 346 49.3988 346 78.9174Z" stroke="#FFFDF3" stroke-width="3" stroke-miterlimit="10"/>
</g>
<g filter="url(#filter2_f_1518_1920)">
<path d="M327.268 102.562C327.268 103.914 327.125 105.239 326.839 106.551C326.422 108.656 325.629 110.735 324.51 112.761C322.416 116.685 319.072 120.44 314.662 124C314.649 124.026 314.636 124.039 314.61 124.052C314.61 124.065 314.597 124.065 314.597 124.078C314.584 124.091 314.584 124.104 314.584 124.104C291.312 142.891 238.535 156 177.134 156C94.2162 155.987 27 132.068 27 102.562C27 97.7813 28.7692 93.143 32.0864 88.7256C32.7499 87.8292 33.4914 86.9457 34.2979 86.0622L34.3499 86.0102C34.48 85.8803 34.5971 85.7374 34.7272 85.6075C37.7322 82.3984 41.5828 79.3322 46.1619 76.4219C71.8802 60.1295 120.897 49.125 177.147 49.125C260.052 49.138 327.268 73.0569 327.268 102.562Z" stroke="#FFFDF3" stroke-width="3" stroke-miterlimit="10"/>
</g>
<g filter="url(#filter3_f_1518_1920)">
<path d="M346 78.9174C346 82.6332 337.74 95.6255 334.826 99.7311C331.743 104.071 327.983 108.8 324.51 112.775C325.641 110.736 326.422 108.67 326.838 106.565C327.124 105.253 327.268 103.928 327.268 102.576C327.268 73.0708 260.051 49.1519 177.134 49.1519C120.884 49.1519 71.8668 60.1564 46.1486 76.4488C41.5695 79.3461 37.7189 82.4253 34.7139 85.6344L50.7146 66.7565C67.717 43.8511 126.269 27 195.866 27C278.784 27 346 49.3988 346 78.9174Z" stroke="#FFFDF3" stroke-width="3" stroke-miterlimit="10"/>
</g>
<g filter="url(#filter4_f_1518_1920)">
<path d="M327.268 102.562C327.268 103.914 327.125 105.239 326.839 106.551C326.422 108.656 325.629 110.735 324.51 112.761C322.416 116.685 319.072 120.44 314.662 124C314.649 124.026 314.636 124.039 314.61 124.052C314.61 124.065 314.597 124.065 314.597 124.078C314.584 124.091 314.584 124.104 314.584 124.104C291.312 142.891 238.535 156 177.134 156C94.2162 155.987 27 132.068 27 102.562C27 97.7813 28.7692 93.143 32.0864 88.7256C32.7499 87.8292 33.4914 86.9457 34.2979 86.0622L34.3499 86.0102C34.48 85.8803 34.5971 85.7374 34.7272 85.6075C37.7322 82.3984 41.5828 79.3322 46.1619 76.4219C71.8802 60.1295 120.897 49.125 177.147 49.125C260.052 49.138 327.268 73.0569 327.268 102.562Z" stroke="#FFFDF3" stroke-width="3" stroke-miterlimit="10"/>
</g>
<g filter="url(#filter5_f_1518_1920)">
<path d="M346 78.9174C346 82.6332 337.74 95.6255 334.826 99.7311C331.743 104.071 327.983 108.8 324.51 112.775C325.641 110.736 326.422 108.67 326.838 106.565C327.124 105.253 327.268 103.928 327.268 102.576C327.268 73.0708 260.051 49.1519 177.134 49.1519C120.884 49.1519 71.8668 60.1564 46.1486 76.4488C41.5695 79.3461 37.7189 82.4253 34.7139 85.6344L50.7146 66.7565C67.717 43.8511 126.269 27 195.866 27C278.784 27 346 49.3988 346 78.9174Z" stroke="#FFFDF3" stroke-width="3" stroke-miterlimit="10"/>
</g>
<path d="M327.268 102.562C327.268 103.914 327.125 105.239 326.839 106.551C326.422 108.656 325.629 110.735 324.51 112.761C322.416 116.685 319.072 120.44 314.662 124C314.649 124.026 314.636 124.039 314.61 124.052C314.61 124.065 314.597 124.065 314.597 124.078C314.584 124.091 314.584 124.104 314.584 124.104C291.312 142.891 238.535 156 177.134 156C94.2162 155.987 27 132.068 27 102.562C27 97.7813 28.7692 93.143 32.0864 88.7256C32.7499 87.8292 33.4914 86.9457 34.2979 86.0622L34.3499 86.0102C34.48 85.8803 34.5971 85.7374 34.7272 85.6075C37.7322 82.3984 41.5828 79.3322 46.1619 76.4219C71.8802 60.1295 120.897 49.125 177.147 49.125C260.052 49.138 327.268 73.0569 327.268 102.562Z" stroke="#FFFDF3" stroke-width="3" stroke-miterlimit="10"/>
<path d="M346 78.9174C346 82.6332 337.74 95.6255 334.826 99.7311C331.743 104.071 327.983 108.8 324.51 112.775C325.641 110.736 326.422 108.67 326.838 106.565C327.124 105.253 327.268 103.928 327.268 102.576C327.268 73.0708 260.051 49.1519 177.134 49.1519C120.884 49.1519 71.8668 60.1564 46.1486 76.4488C41.5695 79.3461 37.7189 82.4253 34.7139 85.6344L50.7146 66.7565C67.717 43.8511 126.269 27 195.866 27C278.784 27 346 49.3988 346 78.9174Z" stroke="#FFFDF3" stroke-width="3" stroke-miterlimit="10"/>
<g filter="url(#filter6_f_1518_1920)">
<path d="M123.902 102.825H112.481V104.436H123.122V124.483H111.648V123.808H102.1V124.483H90.6781V104.436H101.267V102.825H89.8455V99.6421L85.5656 105.528L90.3658 106.203L85.7217 124.483L84.5249 124.276C79.8027 123.301 76.0042 122.626 73.1553 122.249C74.1309 119.962 74.9505 117.766 75.6269 115.688C76.3034 113.609 77.0449 111.153 77.8384 108.347C78.0856 107.308 78.4238 106.073 78.8791 104.644L83.0549 105.216C80.5833 104.072 77.4612 103.085 73.6626 102.241L79.5556 94.2763C80.7003 94.5491 81.9362 94.9259 83.2631 95.3676C84.59 95.8223 85.8648 96.2901 87.1267 96.7708L89.8325 97.8102V94.731H101.254V93.5357L91.1854 93.6396C91.1854 91.4829 91.1464 89.8848 91.0813 88.8455L86.9576 95.6664C82.7557 94.0034 78.3067 92.7821 73.6106 92.0156L78.9312 83.6875C80.5963 84.0643 83.172 84.8308 86.6453 85.9741L90.9252 87.3254C90.8862 86.9486 90.8081 86.3639 90.665 85.6104C104.22 85.4025 115.017 85.0777 123.044 84.6229C122.797 86.0131 122.654 87.3254 122.602 88.5856C122.549 89.8329 122.523 91.366 122.523 93.1719C120.338 93.2369 116.982 93.3148 112.455 93.3798V94.731H123.876V102.825H123.902ZM102.113 111.686V115.181H111.661V111.686H102.113Z" stroke="#FFFDF3" stroke-miterlimit="10"/>
<path d="M175.43 86.0515C175.574 92.4827 175.639 99.7324 175.639 107.827C175.639 113.387 175.456 117.155 175.092 119.156C174.728 121.157 173.869 122.443 172.516 123.015C171.164 123.586 168.627 123.872 164.906 123.872C164.633 120.819 164.243 118.402 163.762 116.635C163.41 118.169 162.942 119.65 162.357 121.092C161.758 122.534 161.16 123.755 160.535 124.769C158.207 123.456 155.917 122.391 153.654 121.586V123.353C150.454 123.456 145.068 123.547 137.484 123.612L127.051 123.768C127.051 122.456 127.025 121.352 126.973 120.468C126.921 119.585 126.778 118.675 126.531 117.74L136.703 117.688V116.752H127.727V111.335H136.703V110.451H127.727V98.0045H136.703V97.121H126.518V92.3268H136.69V91.4953C135.65 91.4563 134.089 91.4433 131.994 91.4433C129.939 91.4433 128.43 91.4563 127.454 91.4953C127.454 90.313 127.428 89.3126 127.376 88.4811C127.324 87.6496 127.181 86.8441 126.934 86.0905C135.975 85.9866 145.25 85.6877 154.786 85.207C154.538 86.0775 154.395 86.948 154.343 87.8055C154.291 88.663 154.265 89.8063 154.265 91.1965C152.392 91.3004 149.491 91.3914 145.562 91.4563V92.3398H154.005V97.134H145.562V98.0175H154.903V110.464H145.562V111.348H153.225V116.765H145.562V117.597L153.381 117.441C154.278 115.778 154.994 113.985 155.514 112.075C156.138 109.477 156.49 105.345 156.555 99.6805C156.555 97.8096 156.568 96.4714 156.607 95.6658H155.046V86.0775H156.607V84.3105H165.739V86.0775H175.43V86.0515ZM137.783 102.929V101.785H135.077V102.929H137.783ZM137.783 105.371H135.077V106.514H137.783V105.371ZM144.717 102.929H147.214V101.785H144.717V102.929ZM144.717 105.371V106.514H147.214V105.371H144.717ZM166.09 112.257C166.402 111.984 166.611 111.465 166.715 110.724C166.819 109.983 166.871 108.801 166.871 107.203C166.871 102.76 166.78 98.9009 166.611 95.6399H165.57L165.518 100.382C165.479 105.527 165.167 109.633 164.581 112.725C165.284 112.686 165.778 112.53 166.09 112.257Z" stroke="#FFFDF3" stroke-miterlimit="10"/>
<path d="M224.395 102.201L228.259 109.23C223.185 114.271 218.138 117.818 213.129 119.909C208.823 121.715 204.674 122.937 200.693 123.586C196.712 124.223 192.198 124.73 187.164 125.067C185.46 121.702 182.858 118.194 179.346 114.544C180.217 114.609 181.518 114.687 183.261 114.752C182.247 113.426 181.297 112.257 180.386 111.205C179.476 110.165 178.422 109.074 177.199 107.918C182.481 106.488 186.657 104.579 189.714 102.188H179.385V94.0157H185.278V85.5317H197.428V94.0157H198.937V84.2715H211.035V85.5187H226.216V93.1712H211.035V94.0027H227.777V102.175H224.395V102.201ZM197.337 113.816C196.855 112.387 196.088 111.023 195.047 109.697C192.68 111.503 190 113.192 187.021 114.752C190.416 114.648 193.85 114.336 197.337 113.816ZM199.73 103.76V102.201H196.712L199.73 103.76ZM198.794 108.06C199.171 108.008 199.431 107.892 199.548 107.723C199.665 107.554 199.73 107.268 199.73 106.891V105.54C199.145 106.138 198.221 106.982 196.973 108.086C197.805 108.125 198.403 108.112 198.794 108.06ZM216.186 106.943C217.904 105.631 219.569 104.046 221.169 102.201H211.048V107.827C211.048 108.762 210.853 109.581 210.476 110.269C212.557 109.373 214.469 108.255 216.186 106.943Z" stroke="#FFFDF3" stroke-miterlimit="10"/>
<path d="M281.087 120.689C279.799 121.209 278.641 121.833 277.614 122.56C276.586 123.288 275.48 124.145 274.296 125.107C272.449 122.183 271.057 119.104 270.12 115.83V124.73H262.51V118.013C260.286 121.001 258.048 123.47 255.785 125.406C254.77 123.808 253.248 122.145 251.193 120.404C250.985 121.833 250.425 122.794 249.528 123.327C248.617 123.846 247.082 124.197 244.884 124.366C244.884 124.054 244.845 123.587 244.779 122.963L243.479 123.171C243.27 121.638 242.997 120.014 242.672 118.273C242.347 116.532 242.035 115.116 241.761 113.998H244.103L244.519 115.765C244.766 115.492 244.884 114.999 244.884 114.31C244.884 113.829 244.871 113.427 244.831 113.115H235.751L235.699 113.998H237.989L238.145 115.142C238.704 118.611 239.017 121.534 239.082 123.898L236.48 124.158C236.415 122.976 236.22 120.845 235.907 117.753C235.842 117.441 235.764 116.922 235.699 116.194C235.634 119.39 235.452 122.119 235.179 124.366C233.891 124.119 232.369 123.937 230.587 123.795C231.003 121.534 231.276 119.728 231.419 118.351C231.563 116.974 231.641 115.233 231.68 113.115H231.263V85.3242H251.076V92.509H248.734V93.8082H250.711V99.226H248.734V100.525H250.711V105.683H248.734V106.982H251.336V109.802C252.728 109.425 254.549 108.606 256.813 107.359C254.796 107.567 253.287 107.71 252.272 107.775C252.207 106.84 252.116 105.891 252.012 104.943C251.908 103.994 251.739 103.059 251.492 102.162L252.689 102.11V92.7818H251.7V85.4411H267.61V92.7818H266.985V100.382C268.312 100.213 269.275 99.9796 269.912 99.7067C269.288 98.7713 268.572 97.524 267.779 95.952L268.976 93.4574H268.403V85.4411H280.658C280.41 91.5216 279.695 96.1208 278.524 99.239C279.149 99.4859 279.916 99.6548 280.814 99.7587C280.567 101.084 280.228 103.202 279.773 106.112L279.305 109.243L278.16 108.464L279.253 111.855L275.025 112.322C275.09 112.569 275.233 112.894 275.441 113.31L276.846 113.154C277.262 113.089 277.731 113.024 278.251 112.972C278.771 112.92 279.305 112.842 279.864 112.738L281.633 116.597C281.113 116.662 280.228 116.844 278.979 117.116L277.9 117.298C278.836 118.559 279.903 119.689 281.087 120.689ZM241.085 114.024C241.709 117.052 242.256 120.131 242.698 123.301L239.927 123.769C239.823 122.028 239.641 120.313 239.381 118.611C239.121 116.909 238.978 115.908 238.939 115.583L238.678 114.024H241.085ZM242.802 93.8212V92.522H239.355V93.8212H242.802ZM239.368 100.538H242.815V99.239H239.368V100.538ZM242.802 105.683H239.355V106.982H242.802V105.683ZM262.523 113.193V108.71C267.805 108.36 272.566 107.931 276.807 107.411C275.623 106.437 274.804 105.709 274.361 105.228C272.761 106.58 270.81 107.593 268.52 108.256C268.143 105.371 267.636 103.163 267.011 101.643V108.1H260.858V106.904C260.611 106.904 260.429 106.917 260.286 106.956L261.431 110.815C259.167 112.933 256.539 114.856 253.56 116.597C253.352 115.973 253.053 115.168 252.676 114.206C252.298 113.232 252.012 112.517 251.843 112.075L251.375 110.984V118.481V118.896C253.847 117.545 255.941 116.324 257.658 115.22C259.375 114.128 260.793 113.011 261.912 111.855L262.523 113.193ZM259.128 92.1452H260.845V91.2097H259.128V92.1452ZM260.845 95.952H259.128V96.8874H260.845V95.952ZM260.845 100.642H259.128V101.63L260.845 101.474V100.642ZM271.643 93.4444C272.163 94.2759 272.813 95.0945 273.568 95.887C273.815 95.1594 274.023 94.3409 274.192 93.4444H271.643Z" stroke="#FFFDF3" stroke-miterlimit="10"/>
</g>
<g filter="url(#filter7_f_1518_1920)">
<path d="M123.902 102.825H112.481V104.436H123.122V124.483H111.648V123.808H102.1V124.483H90.6781V104.436H101.267V102.825H89.8455V99.6421L85.5656 105.528L90.3658 106.203L85.7217 124.483L84.5249 124.276C79.8027 123.301 76.0042 122.626 73.1553 122.249C74.1309 119.962 74.9505 117.766 75.6269 115.688C76.3034 113.609 77.0449 111.153 77.8384 108.347C78.0856 107.308 78.4238 106.073 78.8791 104.644L83.0549 105.216C80.5833 104.072 77.4612 103.085 73.6626 102.241L79.5556 94.2763C80.7003 94.5491 81.9362 94.9259 83.2631 95.3676C84.59 95.8223 85.8648 96.2901 87.1267 96.7708L89.8325 97.8102V94.731H101.254V93.5357L91.1854 93.6396C91.1854 91.4829 91.1464 89.8848 91.0813 88.8455L86.9576 95.6664C82.7557 94.0034 78.3067 92.7821 73.6106 92.0156L78.9312 83.6875C80.5963 84.0643 83.172 84.8308 86.6453 85.9741L90.9252 87.3254C90.8862 86.9486 90.8081 86.3639 90.665 85.6104C104.22 85.4025 115.017 85.0777 123.044 84.6229C122.797 86.0131 122.654 87.3254 122.602 88.5856C122.549 89.8329 122.523 91.366 122.523 93.1719C120.338 93.2369 116.982 93.3148 112.455 93.3798V94.731H123.876V102.825H123.902ZM102.113 111.686V115.181H111.661V111.686H102.113Z" stroke="#FFFDF3" stroke-miterlimit="10"/>
<path d="M175.43 86.0515C175.574 92.4827 175.639 99.7324 175.639 107.827C175.639 113.387 175.456 117.155 175.092 119.156C174.728 121.157 173.869 122.443 172.516 123.015C171.164 123.586 168.627 123.872 164.906 123.872C164.633 120.819 164.243 118.402 163.762 116.635C163.41 118.169 162.942 119.65 162.357 121.092C161.758 122.534 161.16 123.755 160.535 124.769C158.207 123.456 155.917 122.391 153.654 121.586V123.353C150.454 123.456 145.068 123.547 137.484 123.612L127.051 123.768C127.051 122.456 127.025 121.352 126.973 120.468C126.921 119.585 126.778 118.675 126.531 117.74L136.703 117.688V116.752H127.727V111.335H136.703V110.451H127.727V98.0045H136.703V97.121H126.518V92.3268H136.69V91.4953C135.65 91.4563 134.089 91.4433 131.994 91.4433C129.939 91.4433 128.43 91.4563 127.454 91.4953C127.454 90.313 127.428 89.3126 127.376 88.4811C127.324 87.6496 127.181 86.8441 126.934 86.0905C135.975 85.9866 145.25 85.6877 154.786 85.207C154.538 86.0775 154.395 86.948 154.343 87.8055C154.291 88.663 154.265 89.8063 154.265 91.1965C152.392 91.3004 149.491 91.3914 145.562 91.4563V92.3398H154.005V97.134H145.562V98.0175H154.903V110.464H145.562V111.348H153.225V116.765H145.562V117.597L153.381 117.441C154.278 115.778 154.994 113.985 155.514 112.075C156.138 109.477 156.49 105.345 156.555 99.6805C156.555 97.8096 156.568 96.4714 156.607 95.6658H155.046V86.0775H156.607V84.3105H165.739V86.0775H175.43V86.0515ZM137.783 102.929V101.785H135.077V102.929H137.783ZM137.783 105.371H135.077V106.514H137.783V105.371ZM144.717 102.929H147.214V101.785H144.717V102.929ZM144.717 105.371V106.514H147.214V105.371H144.717ZM166.09 112.257C166.402 111.984 166.611 111.465 166.715 110.724C166.819 109.983 166.871 108.801 166.871 107.203C166.871 102.76 166.78 98.9009 166.611 95.6399H165.57L165.518 100.382C165.479 105.527 165.167 109.633 164.581 112.725C165.284 112.686 165.778 112.53 166.09 112.257Z" stroke="#FFFDF3" stroke-miterlimit="10"/>
<path d="M224.395 102.201L228.259 109.23C223.185 114.271 218.138 117.818 213.129 119.909C208.823 121.715 204.674 122.937 200.693 123.586C196.712 124.223 192.198 124.73 187.164 125.067C185.46 121.702 182.858 118.194 179.346 114.544C180.217 114.609 181.518 114.687 183.261 114.752C182.247 113.426 181.297 112.257 180.386 111.205C179.476 110.165 178.422 109.074 177.199 107.918C182.481 106.488 186.657 104.579 189.714 102.188H179.385V94.0157H185.278V85.5317H197.428V94.0157H198.937V84.2715H211.035V85.5187H226.216V93.1712H211.035V94.0027H227.777V102.175H224.395V102.201ZM197.337 113.816C196.855 112.387 196.088 111.023 195.047 109.697C192.68 111.503 190 113.192 187.021 114.752C190.416 114.648 193.85 114.336 197.337 113.816ZM199.73 103.76V102.201H196.712L199.73 103.76ZM198.794 108.06C199.171 108.008 199.431 107.892 199.548 107.723C199.665 107.554 199.73 107.268 199.73 106.891V105.54C199.145 106.138 198.221 106.982 196.973 108.086C197.805 108.125 198.403 108.112 198.794 108.06ZM216.186 106.943C217.904 105.631 219.569 104.046 221.169 102.201H211.048V107.827C211.048 108.762 210.853 109.581 210.476 110.269C212.557 109.373 214.469 108.255 216.186 106.943Z" stroke="#FFFDF3" stroke-miterlimit="10"/>
<path d="M281.087 120.689C279.799 121.209 278.641 121.833 277.614 122.56C276.586 123.288 275.48 124.145 274.296 125.107C272.449 122.183 271.057 119.104 270.12 115.83V124.73H262.51V118.013C260.286 121.001 258.048 123.47 255.785 125.406C254.77 123.808 253.248 122.145 251.193 120.404C250.985 121.833 250.425 122.794 249.528 123.327C248.617 123.846 247.082 124.197 244.884 124.366C244.884 124.054 244.845 123.587 244.779 122.963L243.479 123.171C243.27 121.638 242.997 120.014 242.672 118.273C242.347 116.532 242.035 115.116 241.761 113.998H244.103L244.519 115.765C244.766 115.492 244.884 114.999 244.884 114.31C244.884 113.829 244.871 113.427 244.831 113.115H235.751L235.699 113.998H237.989L238.145 115.142C238.704 118.611 239.017 121.534 239.082 123.898L236.48 124.158C236.415 122.976 236.22 120.845 235.907 117.753C235.842 117.441 235.764 116.922 235.699 116.194C235.634 119.39 235.452 122.119 235.179 124.366C233.891 124.119 232.369 123.937 230.587 123.795C231.003 121.534 231.276 119.728 231.419 118.351C231.563 116.974 231.641 115.233 231.68 113.115H231.263V85.3242H251.076V92.509H248.734V93.8082H250.711V99.226H248.734V100.525H250.711V105.683H248.734V106.982H251.336V109.802C252.728 109.425 254.549 108.606 256.813 107.359C254.796 107.567 253.287 107.71 252.272 107.775C252.207 106.84 252.116 105.891 252.012 104.943C251.908 103.994 251.739 103.059 251.492 102.162L252.689 102.11V92.7818H251.7V85.4411H267.61V92.7818H266.985V100.382C268.312 100.213 269.275 99.9796 269.912 99.7067C269.288 98.7713 268.572 97.524 267.779 95.952L268.976 93.4574H268.403V85.4411H280.658C280.41 91.5216 279.695 96.1208 278.524 99.239C279.149 99.4859 279.916 99.6548 280.814 99.7587C280.567 101.084 280.228 103.202 279.773 106.112L279.305 109.243L278.16 108.464L279.253 111.855L275.025 112.322C275.09 112.569 275.233 112.894 275.441 113.31L276.846 113.154C277.262 113.089 277.731 113.024 278.251 112.972C278.771 112.92 279.305 112.842 279.864 112.738L281.633 116.597C281.113 116.662 280.228 116.844 278.979 117.116L277.9 117.298C278.836 118.559 279.903 119.689 281.087 120.689ZM241.085 114.024C241.709 117.052 242.256 120.131 242.698 123.301L239.927 123.769C239.823 122.028 239.641 120.313 239.381 118.611C239.121 116.909 238.978 115.908 238.939 115.583L238.678 114.024H241.085ZM242.802 93.8212V92.522H239.355V93.8212H242.802ZM239.368 100.538H242.815V99.239H239.368V100.538ZM242.802 105.683H239.355V106.982H242.802V105.683ZM262.523 113.193V108.71C267.805 108.36 272.566 107.931 276.807 107.411C275.623 106.437 274.804 105.709 274.361 105.228C272.761 106.58 270.81 107.593 268.52 108.256C268.143 105.371 267.636 103.163 267.011 101.643V108.1H260.858V106.904C260.611 106.904 260.429 106.917 260.286 106.956L261.431 110.815C259.167 112.933 256.539 114.856 253.56 116.597C253.352 115.973 253.053 115.168 252.676 114.206C252.298 113.232 252.012 112.517 251.843 112.075L251.375 110.984V118.481V118.896C253.847 117.545 255.941 116.324 257.658 115.22C259.375 114.128 260.793 113.011 261.912 111.855L262.523 113.193ZM259.128 92.1452H260.845V91.2097H259.128V92.1452ZM260.845 95.952H259.128V96.8874H260.845V95.952ZM260.845 100.642H259.128V101.63L260.845 101.474V100.642ZM271.643 93.4444C272.163 94.2759 272.813 95.0945 273.568 95.887C273.815 95.1594 274.023 94.3409 274.192 93.4444H271.643Z" stroke="#FFFDF3" stroke-miterlimit="10"/>
</g>
<g filter="url(#filter8_f_1518_1920)">
<path d="M123.902 102.825H112.481V104.436H123.122V124.483H111.648V123.808H102.1V124.483H90.6781V104.436H101.267V102.825H89.8455V99.6421L85.5656 105.528L90.3658 106.203L85.7217 124.483L84.5249 124.276C79.8027 123.301 76.0042 122.626 73.1553 122.249C74.1309 119.962 74.9505 117.766 75.6269 115.688C76.3034 113.609 77.0449 111.153 77.8384 108.347C78.0856 107.308 78.4238 106.073 78.8791 104.644L83.0549 105.216C80.5833 104.072 77.4612 103.085 73.6626 102.241L79.5556 94.2763C80.7003 94.5491 81.9362 94.9259 83.2631 95.3676C84.59 95.8223 85.8648 96.2901 87.1267 96.7708L89.8325 97.8102V94.731H101.254V93.5357L91.1854 93.6396C91.1854 91.4829 91.1464 89.8848 91.0813 88.8455L86.9576 95.6664C82.7557 94.0034 78.3067 92.7821 73.6106 92.0156L78.9312 83.6875C80.5963 84.0643 83.172 84.8308 86.6453 85.9741L90.9252 87.3254C90.8862 86.9486 90.8081 86.3639 90.665 85.6104C104.22 85.4025 115.017 85.0777 123.044 84.6229C122.797 86.0131 122.654 87.3254 122.602 88.5856C122.549 89.8329 122.523 91.366 122.523 93.1719C120.338 93.2369 116.982 93.3148 112.455 93.3798V94.731H123.876V102.825H123.902ZM102.113 111.686V115.181H111.661V111.686H102.113Z" stroke="#FFFDF3" stroke-miterlimit="10"/>
<path d="M175.43 86.0515C175.574 92.4827 175.639 99.7324 175.639 107.827C175.639 113.387 175.456 117.155 175.092 119.156C174.728 121.157 173.869 122.443 172.516 123.015C171.164 123.586 168.627 123.872 164.906 123.872C164.633 120.819 164.243 118.402 163.762 116.635C163.41 118.169 162.942 119.65 162.357 121.092C161.758 122.534 161.16 123.755 160.535 124.769C158.207 123.456 155.917 122.391 153.654 121.586V123.353C150.454 123.456 145.068 123.547 137.484 123.612L127.051 123.768C127.051 122.456 127.025 121.352 126.973 120.468C126.921 119.585 126.778 118.675 126.531 117.74L136.703 117.688V116.752H127.727V111.335H136.703V110.451H127.727V98.0045H136.703V97.121H126.518V92.3268H136.69V91.4953C135.65 91.4563 134.089 91.4433 131.994 91.4433C129.939 91.4433 128.43 91.4563 127.454 91.4953C127.454 90.313 127.428 89.3126 127.376 88.4811C127.324 87.6496 127.181 86.8441 126.934 86.0905C135.975 85.9866 145.25 85.6877 154.786 85.207C154.538 86.0775 154.395 86.948 154.343 87.8055C154.291 88.663 154.265 89.8063 154.265 91.1965C152.392 91.3004 149.491 91.3914 145.562 91.4563V92.3398H154.005V97.134H145.562V98.0175H154.903V110.464H145.562V111.348H153.225V116.765H145.562V117.597L153.381 117.441C154.278 115.778 154.994 113.985 155.514 112.075C156.138 109.477 156.49 105.345 156.555 99.6805C156.555 97.8096 156.568 96.4714 156.607 95.6658H155.046V86.0775H156.607V84.3105H165.739V86.0775H175.43V86.0515ZM137.783 102.929V101.785H135.077V102.929H137.783ZM137.783 105.371H135.077V106.514H137.783V105.371ZM144.717 102.929H147.214V101.785H144.717V102.929ZM144.717 105.371V106.514H147.214V105.371H144.717ZM166.09 112.257C166.402 111.984 166.611 111.465 166.715 110.724C166.819 109.983 166.871 108.801 166.871 107.203C166.871 102.76 166.78 98.9009 166.611 95.6399H165.57L165.518 100.382C165.479 105.527 165.167 109.633 164.581 112.725C165.284 112.686 165.778 112.53 166.09 112.257Z" stroke="#FFFDF3" stroke-miterlimit="10"/>
<path d="M224.395 102.201L228.259 109.23C223.185 114.271 218.138 117.818 213.129 119.909C208.823 121.715 204.674 122.937 200.693 123.586C196.712 124.223 192.198 124.73 187.164 125.067C185.46 121.702 182.858 118.194 179.346 114.544C180.217 114.609 181.518 114.687 183.261 114.752C182.247 113.426 181.297 112.257 180.386 111.205C179.476 110.165 178.422 109.074 177.199 107.918C182.481 106.488 186.657 104.579 189.714 102.188H179.385V94.0157H185.278V85.5317H197.428V94.0157H198.937V84.2715H211.035V85.5187H226.216V93.1712H211.035V94.0027H227.777V102.175H224.395V102.201ZM197.337 113.816C196.855 112.387 196.088 111.023 195.047 109.697C192.68 111.503 190 113.192 187.021 114.752C190.416 114.648 193.85 114.336 197.337 113.816ZM199.73 103.76V102.201H196.712L199.73 103.76ZM198.794 108.06C199.171 108.008 199.431 107.892 199.548 107.723C199.665 107.554 199.73 107.268 199.73 106.891V105.54C199.145 106.138 198.221 106.982 196.973 108.086C197.805 108.125 198.403 108.112 198.794 108.06ZM216.186 106.943C217.904 105.631 219.569 104.046 221.169 102.201H211.048V107.827C211.048 108.762 210.853 109.581 210.476 110.269C212.557 109.373 214.469 108.255 216.186 106.943Z" stroke="#FFFDF3" stroke-miterlimit="10"/>
<path d="M281.087 120.689C279.799 121.209 278.641 121.833 277.614 122.56C276.586 123.288 275.48 124.145 274.296 125.107C272.449 122.183 271.057 119.104 270.12 115.83V124.73H262.51V118.013C260.286 121.001 258.048 123.47 255.785 125.406C254.77 123.808 253.248 122.145 251.193 120.404C250.985 121.833 250.425 122.794 249.528 123.327C248.617 123.846 247.082 124.197 244.884 124.366C244.884 124.054 244.845 123.587 244.779 122.963L243.479 123.171C243.27 121.638 242.997 120.014 242.672 118.273C242.347 116.532 242.035 115.116 241.761 113.998H244.103L244.519 115.765C244.766 115.492 244.884 114.999 244.884 114.31C244.884 113.829 244.871 113.427 244.831 113.115H235.751L235.699 113.998H237.989L238.145 115.142C238.704 118.611 239.017 121.534 239.082 123.898L236.48 124.158C236.415 122.976 236.22 120.845 235.907 117.753C235.842 117.441 235.764 116.922 235.699 116.194C235.634 119.39 235.452 122.119 235.179 124.366C233.891 124.119 232.369 123.937 230.587 123.795C231.003 121.534 231.276 119.728 231.419 118.351C231.563 116.974 231.641 115.233 231.68 113.115H231.263V85.3242H251.076V92.509H248.734V93.8082H250.711V99.226H248.734V100.525H250.711V105.683H248.734V106.982H251.336V109.802C252.728 109.425 254.549 108.606 256.813 107.359C254.796 107.567 253.287 107.71 252.272 107.775C252.207 106.84 252.116 105.891 252.012 104.943C251.908 103.994 251.739 103.059 251.492 102.162L252.689 102.11V92.7818H251.7V85.4411H267.61V92.7818H266.985V100.382C268.312 100.213 269.275 99.9796 269.912 99.7067C269.288 98.7713 268.572 97.524 267.779 95.952L268.976 93.4574H268.403V85.4411H280.658C280.41 91.5216 279.695 96.1208 278.524 99.239C279.149 99.4859 279.916 99.6548 280.814 99.7587C280.567 101.084 280.228 103.202 279.773 106.112L279.305 109.243L278.16 108.464L279.253 111.855L275.025 112.322C275.09 112.569 275.233 112.894 275.441 113.31L276.846 113.154C277.262 113.089 277.731 113.024 278.251 112.972C278.771 112.92 279.305 112.842 279.864 112.738L281.633 116.597C281.113 116.662 280.228 116.844 278.979 117.116L277.9 117.298C278.836 118.559 279.903 119.689 281.087 120.689ZM241.085 114.024C241.709 117.052 242.256 120.131 242.698 123.301L239.927 123.769C239.823 122.028 239.641 120.313 239.381 118.611C239.121 116.909 238.978 115.908 238.939 115.583L238.678 114.024H241.085ZM242.802 93.8212V92.522H239.355V93.8212H242.802ZM239.368 100.538H242.815V99.239H239.368V100.538ZM242.802 105.683H239.355V106.982H242.802V105.683ZM262.523 113.193V108.71C267.805 108.36 272.566 107.931 276.807 107.411C275.623 106.437 274.804 105.709 274.361 105.228C272.761 106.58 270.81 107.593 268.52 108.256C268.143 105.371 267.636 103.163 267.011 101.643V108.1H260.858V106.904C260.611 106.904 260.429 106.917 260.286 106.956L261.431 110.815C259.167 112.933 256.539 114.856 253.56 116.597C253.352 115.973 253.053 115.168 252.676 114.206C252.298 113.232 252.012 112.517 251.843 112.075L251.375 110.984V118.481V118.896C253.847 117.545 255.941 116.324 257.658 115.22C259.375 114.128 260.793 113.011 261.912 111.855L262.523 113.193ZM259.128 92.1452H260.845V91.2097H259.128V92.1452ZM260.845 95.952H259.128V96.8874H260.845V95.952ZM260.845 100.642H259.128V101.63L260.845 101.474V100.642ZM271.643 93.4444C272.163 94.2759 272.813 95.0945 273.568 95.887C273.815 95.1594 274.023 94.3409 274.192 93.4444H271.643Z" stroke="#FFFDF3" stroke-miterlimit="10"/>
</g>
<path d="M123.902 102.825H112.481V104.436H123.122V124.483H111.648V123.808H102.1V124.483H90.6781V104.436H101.267V102.825H89.8455V99.6421L85.5656 105.528L90.3658 106.203L85.7217 124.483L84.5249 124.276C79.8027 123.301 76.0042 122.626 73.1553 122.249C74.1309 119.962 74.9505 117.766 75.6269 115.688C76.3034 113.609 77.0449 111.153 77.8384 108.347C78.0856 107.308 78.4238 106.073 78.8791 104.644L83.0549 105.216C80.5833 104.072 77.4612 103.085 73.6626 102.241L79.5556 94.2763C80.7003 94.5491 81.9362 94.9259 83.2631 95.3676C84.59 95.8223 85.8648 96.2901 87.1267 96.7708L89.8325 97.8102V94.731H101.254V93.5357L91.1854 93.6396C91.1854 91.4829 91.1464 89.8848 91.0813 88.8455L86.9576 95.6664C82.7557 94.0034 78.3067 92.7821 73.6106 92.0156L78.9312 83.6875C80.5963 84.0643 83.172 84.8308 86.6453 85.9741L90.9252 87.3254C90.8862 86.9486 90.8081 86.3639 90.665 85.6104C104.22 85.4025 115.017 85.0777 123.044 84.6229C122.797 86.0131 122.654 87.3254 122.602 88.5856C122.549 89.8329 122.523 91.366 122.523 93.1719C120.338 93.2369 116.982 93.3148 112.455 93.3798V94.731H123.876V102.825H123.902ZM102.113 111.686V115.181H111.661V111.686H102.113Z" stroke="#FFFDF3" stroke-miterlimit="10"/>
<path d="M175.43 86.0515C175.574 92.4827 175.639 99.7324 175.639 107.827C175.639 113.387 175.456 117.155 175.092 119.156C174.728 121.157 173.869 122.443 172.516 123.015C171.164 123.586 168.627 123.872 164.906 123.872C164.633 120.819 164.243 118.402 163.762 116.635C163.41 118.169 162.942 119.65 162.357 121.092C161.758 122.534 161.16 123.755 160.535 124.769C158.207 123.456 155.917 122.391 153.654 121.586V123.353C150.454 123.456 145.068 123.547 137.484 123.612L127.051 123.768C127.051 122.456 127.025 121.352 126.973 120.468C126.921 119.585 126.778 118.675 126.531 117.74L136.703 117.688V116.752H127.727V111.335H136.703V110.451H127.727V98.0045H136.703V97.121H126.518V92.3268H136.69V91.4953C135.65 91.4563 134.089 91.4433 131.994 91.4433C129.939 91.4433 128.43 91.4563 127.454 91.4953C127.454 90.313 127.428 89.3126 127.376 88.4811C127.324 87.6496 127.181 86.8441 126.934 86.0905C135.975 85.9866 145.25 85.6877 154.786 85.207C154.538 86.0775 154.395 86.948 154.343 87.8055C154.291 88.663 154.265 89.8063 154.265 91.1965C152.392 91.3004 149.491 91.3914 145.562 91.4563V92.3398H154.005V97.134H145.562V98.0175H154.903V110.464H145.562V111.348H153.225V116.765H145.562V117.597L153.381 117.441C154.278 115.778 154.994 113.985 155.514 112.075C156.138 109.477 156.49 105.345 156.555 99.6805C156.555 97.8096 156.568 96.4714 156.607 95.6658H155.046V86.0775H156.607V84.3105H165.739V86.0775H175.43V86.0515ZM137.783 102.929V101.785H135.077V102.929H137.783ZM137.783 105.371H135.077V106.514H137.783V105.371ZM144.717 102.929H147.214V101.785H144.717V102.929ZM144.717 105.371V106.514H147.214V105.371H144.717ZM166.09 112.257C166.402 111.984 166.611 111.465 166.715 110.724C166.819 109.983 166.871 108.801 166.871 107.203C166.871 102.76 166.78 98.9009 166.611 95.6399H165.57L165.518 100.382C165.479 105.527 165.167 109.633 164.581 112.725C165.284 112.686 165.778 112.53 166.09 112.257Z" stroke="#FFFDF3" stroke-miterlimit="10"/>
<path d="M224.395 102.201L228.259 109.23C223.185 114.271 218.138 117.818 213.129 119.909C208.823 121.715 204.674 122.937 200.693 123.586C196.712 124.223 192.198 124.73 187.164 125.067C185.46 121.702 182.858 118.194 179.346 114.544C180.217 114.609 181.518 114.687 183.261 114.752C182.247 113.426 181.297 112.257 180.386 111.205C179.476 110.165 178.422 109.074 177.199 107.918C182.481 106.488 186.657 104.579 189.714 102.188H179.385V94.0157H185.278V85.5317H197.428V94.0157H198.937V84.2715H211.035V85.5187H226.216V93.1712H211.035V94.0027H227.777V102.175H224.395V102.201ZM197.337 113.816C196.855 112.387 196.088 111.023 195.047 109.697C192.68 111.503 190 113.192 187.021 114.752C190.416 114.648 193.85 114.336 197.337 113.816ZM199.73 103.76V102.201H196.712L199.73 103.76ZM198.794 108.06C199.171 108.008 199.431 107.892 199.548 107.723C199.665 107.554 199.73 107.268 199.73 106.891V105.54C199.145 106.138 198.221 106.982 196.973 108.086C197.805 108.125 198.403 108.112 198.794 108.06ZM216.186 106.943C217.904 105.631 219.569 104.046 221.169 102.201H211.048V107.827C211.048 108.762 210.853 109.581 210.476 110.269C212.557 109.373 214.469 108.255 216.186 106.943Z" stroke="#FFFDF3" stroke-miterlimit="10"/>
<path d="M281.087 120.689C279.799 121.209 278.641 121.833 277.614 122.56C276.586 123.288 275.48 124.145 274.296 125.107C272.449 122.183 271.057 119.104 270.12 115.83V124.73H262.51V118.013C260.286 121.001 258.048 123.47 255.785 125.406C254.77 123.808 253.248 122.145 251.193 120.404C250.985 121.833 250.425 122.794 249.528 123.327C248.617 123.846 247.082 124.197 244.884 124.366C244.884 124.054 244.845 123.587 244.779 122.963L243.479 123.171C243.27 121.638 242.997 120.014 242.672 118.273C242.347 116.532 242.035 115.116 241.761 113.998H244.103L244.519 115.765C244.766 115.492 244.884 114.999 244.884 114.31C244.884 113.829 244.871 113.427 244.831 113.115H235.751L235.699 113.998H237.989L238.145 115.142C238.704 118.611 239.017 121.534 239.082 123.898L236.48 124.158C236.415 122.976 236.22 120.845 235.907 117.753C235.842 117.441 235.764 116.922 235.699 116.194C235.634 119.39 235.452 122.119 235.179 124.366C233.891 124.119 232.369 123.937 230.587 123.795C231.003 121.534 231.276 119.728 231.419 118.351C231.563 116.974 231.641 115.233 231.68 113.115H231.263V85.3242H251.076V92.509H248.734V93.8082H250.711V99.226H248.734V100.525H250.711V105.683H248.734V106.982H251.336V109.802C252.728 109.425 254.549 108.606 256.813 107.359C254.796 107.567 253.287 107.71 252.272 107.775C252.207 106.84 252.116 105.891 252.012 104.943C251.908 103.994 251.739 103.059 251.492 102.162L252.689 102.11V92.7818H251.7V85.4411H267.61V92.7818H266.985V100.382C268.312 100.213 269.275 99.9796 269.912 99.7067C269.288 98.7713 268.572 97.524 267.779 95.952L268.976 93.4574H268.403V85.4411H280.658C280.41 91.5216 279.695 96.1208 278.524 99.239C279.149 99.4859 279.916 99.6548 280.814 99.7587C280.567 101.084 280.228 103.202 279.773 106.112L279.305 109.243L278.16 108.464L279.253 111.855L275.025 112.322C275.09 112.569 275.233 112.894 275.441 113.31L276.846 113.154C277.262 113.089 277.731 113.024 278.251 112.972C278.771 112.92 279.305 112.842 279.864 112.738L281.633 116.597C281.113 116.662 280.228 116.844 278.979 117.116L277.9 117.298C278.836 118.559 279.903 119.689 281.087 120.689ZM241.085 114.024C241.709 117.052 242.256 120.131 242.698 123.301L239.927 123.769C239.823 122.028 239.641 120.313 239.381 118.611C239.121 116.909 238.978 115.908 238.939 115.583L238.678 114.024H241.085ZM242.802 93.8212V92.522H239.355V93.8212H242.802ZM239.368 100.538H242.815V99.239H239.368V100.538ZM242.802 105.683H239.355V106.982H242.802V105.683ZM262.523 113.193V108.71C267.805 108.36 272.566 107.931 276.807 107.411C275.623 106.437 274.804 105.709 274.361 105.228C272.761 106.58 270.81 107.593 268.52 108.256C268.143 105.371 267.636 103.163 267.011 101.643V108.1H260.858V106.904C260.611 106.904 260.429 106.917 260.286 106.956L261.431 110.815C259.167 112.933 256.539 114.856 253.56 116.597C253.352 115.973 253.053 115.168 252.676 114.206C252.298 113.232 252.012 112.517 251.843 112.075L251.375 110.984V118.481V118.896C253.847 117.545 255.941 116.324 257.658 115.22C259.375 114.128 260.793 113.011 261.912 111.855L262.523 113.193ZM259.128 92.1452H260.845V91.2097H259.128V92.1452ZM260.845 95.952H259.128V96.8874H260.845V95.952ZM260.845 100.642H259.128V101.63L260.845 101.474V100.642ZM271.643 93.4444C272.163 94.2759 272.813 95.0945 273.568 95.887C273.815 95.1594 274.023 94.3409 274.192 93.4444H271.643Z" stroke="#FFFDF3" stroke-miterlimit="10"/>
<defs>
<filter id="filter0_f_1518_1920" x="20.5" y="42.625" width="313.268" height="119.875" filterUnits="userSpaceOnUse" color-interpolation-filters="sRGB">
<feFlood flood-opacity="0" result="BackgroundImageFix"/>
<feBlend mode="normal" in="SourceGraphic" in2="BackgroundImageFix" result="shape"/>
<feGaussianBlur stdDeviation="2.5" result="effect1_foregroundBlur_1518_1920"/>
</filter>
<filter id="filter1_f_1518_1920" x="28.5693" y="20.5" width="323.931" height="108.904" filterUnits="userSpaceOnUse" color-interpolation-filters="sRGB">
<feFlood flood-opacity="0" result="BackgroundImageFix"/>
<feBlend mode="normal" in="SourceGraphic" in2="BackgroundImageFix" result="shape"/>
<feGaussianBlur stdDeviation="2.5" result="effect1_foregroundBlur_1518_1920"/>
</filter>
<filter id="filter2_f_1518_1920" x="0.5" y="22.625" width="353.268" height="159.875" filterUnits="userSpaceOnUse" color-interpolation-filters="sRGB">
<feFlood flood-opacity="0" result="BackgroundImageFix"/>
<feBlend mode="normal" in="SourceGraphic" in2="BackgroundImageFix" result="shape"/>
<feGaussianBlur stdDeviation="12.5" result="effect1_foregroundBlur_1518_1920"/>
</filter>
<filter id="filter3_f_1518_1920" x="8.56934" y="0.5" width="363.931" height="148.904" filterUnits="userSpaceOnUse" color-interpolation-filters="sRGB">
<feFlood flood-opacity="0" result="BackgroundImageFix"/>
<feBlend mode="normal" in="SourceGraphic" in2="BackgroundImageFix" result="shape"/>
<feGaussianBlur stdDeviation="12.5" result="effect1_foregroundBlur_1518_1920"/>
</filter>
<filter id="filter4_f_1518_1920" x="15.5" y="37.625" width="323.268" height="129.875" filterUnits="userSpaceOnUse" color-interpolation-filters="sRGB">
<feFlood flood-opacity="0" result="BackgroundImageFix"/>
<feBlend mode="normal" in="SourceGraphic" in2="BackgroundImageFix" result="shape"/>
<feGaussianBlur stdDeviation="5" result="effect1_foregroundBlur_1518_1920"/>
</filter>
<filter id="filter5_f_1518_1920" x="23.5693" y="15.5" width="333.931" height="118.904" filterUnits="userSpaceOnUse" color-interpolation-filters="sRGB">
<feFlood flood-opacity="0" result="BackgroundImageFix"/>
<feBlend mode="normal" in="SourceGraphic" in2="BackgroundImageFix" result="shape"/>
<feGaussianBlur stdDeviation="5" result="effect1_foregroundBlur_1518_1920"/>
</filter>
<filter id="filter6_f_1518_1920" x="67.4365" y="78.123" width="219.936" height="53.0371" filterUnits="userSpaceOnUse" color-interpolation-filters="sRGB">
<feFlood flood-opacity="0" result="BackgroundImageFix"/>
<feBlend mode="normal" in="SourceGraphic" in2="BackgroundImageFix" result="shape"/>
<feGaussianBlur stdDeviation="2.5" result="effect1_foregroundBlur_1518_1920"/>
</filter>
<filter id="filter7_f_1518_1920" x="47.4365" y="58.123" width="259.936" height="93.0371" filterUnits="userSpaceOnUse" color-interpolation-filters="sRGB">
<feFlood flood-opacity="0" result="BackgroundImageFix"/>
<feBlend mode="normal" in="SourceGraphic" in2="BackgroundImageFix" result="shape"/>
<feGaussianBlur stdDeviation="12.5" result="effect1_foregroundBlur_1518_1920"/>
</filter>
<filter id="filter8_f_1518_1920" x="62.4365" y="73.123" width="229.936" height="63.0371" filterUnits="userSpaceOnUse" color-interpolation-filters="sRGB">
<feFlood flood-opacity="0" result="BackgroundImageFix"/>
<feBlend mode="normal" in="SourceGraphic" in2="BackgroundImageFix" result="shape"/>
<feGaussianBlur stdDeviation="5" result="effect1_foregroundBlur_1518_1920"/>
</filter>
</defs>
</svg>
