<svg width="371" height="160" viewBox="0 0 371 160" fill="none" xmlns="http://www.w3.org/2000/svg">
<g filter="url(#filter0_f_1518_1842)">
<path d="M45.1991 126.926L30.6478 112.708C28.3629 110.441 27 107.477 27 104.244V40.0239C27 32.8346 33.7746 27 42.1926 27H312.961C316.248 27 319.308 27.9121 321.807 29.4545L321.834 29.4814L326.323 33.8271L339.204 46.2742C336.505 44.0879 332.857 42.7332 328.782 42.7332H58.0133C49.6353 42.7332 42.8207 48.541 42.8207 55.7571V119.978C42.834 122.526 43.6758 124.927 45.1991 126.926Z" stroke="#ECCC27" stroke-width="3" stroke-miterlimit="10"/>
</g>
<g filter="url(#filter1_f_1518_1842)">
<path d="M328.781 133.001H58.0123C54.3377 133.001 50.9705 131.887 48.3248 130.01L48.2046 129.902C47.0153 129.071 46.0132 128.051 45.1981 126.938C43.6748 124.926 42.833 122.539 42.833 119.99V55.7563C42.833 48.5402 49.6343 42.7324 58.0257 42.7324H328.794C332.87 42.7324 336.504 44.0871 339.217 46.2734L340.98 47.9902L341.047 48.0439C342.905 50.2034 344 52.8323 344 55.7563V119.977C343.974 127.166 337.199 133.001 328.781 133.001Z" stroke="#ECCC27" stroke-width="3" stroke-miterlimit="10"/>
</g>
<g filter="url(#filter2_f_1518_1842)">
<path d="M45.1991 126.926L30.6478 112.708C28.3629 110.441 27 107.477 27 104.244V40.0239C27 32.8346 33.7746 27 42.1926 27H312.961C316.248 27 319.308 27.9121 321.807 29.4545L321.834 29.4814L326.323 33.8271L339.204 46.2742C336.505 44.0879 332.857 42.7332 328.782 42.7332H58.0133C49.6353 42.7332 42.8207 48.541 42.8207 55.7571V119.978C42.834 122.526 43.6758 124.927 45.1991 126.926Z" stroke="#ECCC27" stroke-width="3" stroke-miterlimit="10"/>
</g>
<g filter="url(#filter3_f_1518_1842)">
<path d="M328.781 133.001H58.0123C54.3377 133.001 50.9705 131.887 48.3248 130.01L48.2046 129.902C47.0153 129.071 46.0132 128.051 45.1981 126.938C43.6748 124.926 42.833 122.539 42.833 119.99V55.7563C42.833 48.5402 49.6343 42.7324 58.0257 42.7324H328.794C332.87 42.7324 336.504 44.0871 339.217 46.2734L340.98 47.9902L341.047 48.0439C342.905 50.2034 344 52.8323 344 55.7563V119.977C343.974 127.166 337.199 133.001 328.781 133.001Z" stroke="#ECCC27" stroke-width="3" stroke-miterlimit="10"/>
</g>
<g filter="url(#filter4_f_1518_1842)">
<path d="M45.1991 126.926L30.6478 112.708C28.3629 110.441 27 107.477 27 104.244V40.0239C27 32.8346 33.7746 27 42.1926 27H312.961C316.248 27 319.308 27.9121 321.807 29.4545L321.834 29.4814L326.323 33.8271L339.204 46.2742C336.505 44.0879 332.857 42.7332 328.782 42.7332H58.0133C49.6353 42.7332 42.8207 48.541 42.8207 55.7571V119.978C42.834 122.526 43.6758 124.927 45.1991 126.926Z" stroke="#ECCC27" stroke-width="3" stroke-miterlimit="10"/>
</g>
<g filter="url(#filter5_f_1518_1842)">
<path d="M328.781 133.001H58.0123C54.3377 133.001 50.9705 131.887 48.3248 130.01L48.2046 129.902C47.0153 129.071 46.0132 128.051 45.1981 126.938C43.6748 124.926 42.833 122.539 42.833 119.99V55.7563C42.833 48.5402 49.6343 42.7324 58.0257 42.7324H328.794C332.87 42.7324 336.504 44.0871 339.217 46.2734L340.98 47.9902L341.047 48.0439C342.905 50.2034 344 52.8323 344 55.7563V119.977C343.974 127.166 337.199 133.001 328.781 133.001Z" stroke="#ECCC27" stroke-width="3" stroke-miterlimit="10"/>
</g>
<path d="M45.1991 126.926L30.6478 112.708C28.3629 110.441 27 107.477 27 104.244V40.0239C27 32.8346 33.7746 27 42.1926 27H312.961C316.248 27 319.308 27.9121 321.807 29.4545L321.834 29.4814L326.323 33.8271L339.204 46.2742C336.505 44.0879 332.857 42.7332 328.782 42.7332H58.0133C49.6353 42.7332 42.8207 48.541 42.8207 55.7571V119.978C42.834 122.526 43.6758 124.927 45.1991 126.926Z" stroke="#FFE977" stroke-width="3" stroke-miterlimit="10"/>
<path d="M328.781 133.001H58.0123C54.3377 133.001 50.9705 131.887 48.3248 130.01L48.2046 129.902C47.0153 129.071 46.0132 128.051 45.1981 126.938C43.6748 124.926 42.833 122.539 42.833 119.99V55.7563C42.833 48.5402 49.6343 42.7324 58.0257 42.7324H328.794C332.87 42.7324 336.504 44.0871 339.217 46.2734L340.98 47.9902L341.047 48.0439C342.905 50.2034 344 52.8323 344 55.7563V119.977C343.974 127.166 337.199 133.001 328.781 133.001Z" stroke="#FFE977" stroke-width="3" stroke-miterlimit="10"/>
<g filter="url(#filter6_f_1518_1842)">
<path d="M73.7928 84.0702V86.8735L74.8083 86.7796C74.7549 88.5367 74.7148 91.1522 74.7148 94.6663L73.7794 94.7602V98.9852C73.7794 101.453 73.5656 103.143 73.138 104.082C72.7105 105.021 71.882 105.611 70.6527 105.866C69.4234 106.121 67.1118 106.309 63.7044 106.429L62.6889 106.47C62.5419 104.632 62.3549 103.103 62.1144 101.909C61.8738 100.702 61.4195 99.4413 60.7381 98.1C61.8872 98.1 62.7156 98.0464 63.1967 97.939C63.6911 97.8317 63.985 97.6708 64.0786 97.4428C64.1855 97.2148 64.2389 96.8526 64.2389 96.3563V95.6857L61.4463 95.9137C61.3527 94.0493 61.2592 92.4934 61.1523 91.2595C61.0454 90.0255 60.8717 88.8049 60.6445 87.5843C62.248 87.5307 63.4372 87.4636 64.2389 87.41V84.0702H61.4463V76.1834H64.2389V72.5352H73.7794V76.1834H74.7148V84.0702H73.7928ZM75.8773 87.9465H102.227V106.604H93.6221V106.161H84.5225V106.604H75.8773V87.9465ZM103.951 78.0478C101.973 78.3161 100.103 78.5441 98.3656 78.7185L96.5484 78.9465C97.8846 79.3086 99.0203 79.5635 99.9824 79.7244C100.944 79.8854 102.214 79.9793 103.777 80.0195C103.777 82.4875 103.376 84.258 102.575 85.3444C101.773 86.4308 100.463 86.9942 98.6328 87.0612C95.319 87.182 91.738 87.2356 87.9031 87.2356C85.057 87.2356 82.1441 87.1954 79.1643 87.1015C77.9217 87.0747 77.0665 86.7125 76.6122 86.0285C76.1579 85.3444 75.9307 84.1641 75.9307 82.4606V73.018H85.0303V74.4934C89.0255 73.9569 92.9406 73.3265 96.7889 72.5754L103.951 78.0478ZM93.6221 94.3042V93.3653H84.5225V94.3042H93.6221ZM84.5225 100.179H93.6221V99.2401H84.5225V100.179ZM91.8182 81.0791C92.4596 80.9852 92.9139 80.8109 93.1945 80.5158C93.4751 80.2341 93.6488 79.7915 93.7022 79.2013C90.2147 79.5635 87.3152 79.8988 85.0035 80.2207C85.0303 80.6365 85.2975 80.9048 85.7785 81.0255C86.2729 81.1462 87.3152 81.1998 88.9053 81.1998C90.2147 81.2133 91.1902 81.173 91.8182 81.0791Z" stroke="#ECCC27" stroke-miterlimit="10"/>
<path d="M134.603 97.8318C137.45 97.8318 139.895 97.7513 141.966 97.5903C144.037 97.4294 146.122 97.0806 148.219 96.5441C147.925 98.1537 147.698 99.79 147.551 101.467C147.404 103.143 147.311 104.189 147.284 104.605C147.284 104.9 147.257 105.343 147.191 105.947C141.338 106.161 136.728 106.255 133.347 106.255C129.379 106.255 126.145 105.933 123.607 105.276C121.081 104.619 119.09 103.626 117.634 102.298C116.979 104.015 116.364 105.45 115.776 106.577C111.875 105.356 108.28 104.632 104.993 104.391C106.744 101.695 108 99.0658 108.788 96.5307C109.576 93.9957 109.964 91.6887 109.964 89.6097H119.504V90.951C119.678 92.3191 120.012 93.4324 120.48 94.3176C120.947 95.1894 121.602 95.8735 122.431 96.3429V88.5099H110.231V85.2103H105.701V73.9838H120.653V72.334H132.76V73.9838H147.712V85.2103H143.048V88.5099H132.091V89.6231H144.598V96.6112H132.091V97.8586H132.76H134.603V97.8318ZM137.263 82.018V80.9048H115.803V82.018H137.263Z" stroke="#ECCC27" stroke-miterlimit="10"/>
<path d="M192.581 86.6471H190.403V87.4922H191.646V94.1315H190.403V100.368C190.403 102.233 190.123 103.547 189.562 104.312C189 105.063 187.878 105.573 186.194 105.801C184.511 106.042 181.584 106.163 177.415 106.163C177.362 104.446 177.242 103.158 177.055 102.327L174.302 104.513C173.006 102.903 171.79 101.535 170.681 100.395C169.572 99.2552 168.356 98.2224 167.02 97.2969L171.189 94.1315H167.862V87.4922H181.397V86.6471H167.113V84.0182H165.203V87.6263C165.59 87.5995 166.231 87.519 167.153 87.3983V95.2314L165.203 95.4996V99.282C165.203 101.24 164.882 102.716 164.227 103.695C163.572 104.674 162.383 105.371 160.659 105.787C158.936 106.203 156.277 106.471 152.696 106.592C152.495 103.708 151.734 100.798 150.438 97.8603C152.776 97.8603 154.339 97.8334 155.141 97.7932C155.943 97.753 156.424 97.6457 156.611 97.4847C156.784 97.3238 156.878 96.9884 156.878 96.4787V96.3446C155.542 96.4653 153.404 96.6129 150.451 96.7872C150.277 93.3133 149.997 90.51 149.609 88.3774C151.052 88.3774 152.134 88.364 152.843 88.3372C152.255 87.6531 151.48 86.9154 150.531 86.1106L149.596 85.3059C150.691 81.7381 151.239 78.2641 151.239 74.8841H155.943L155.983 76.5741H156.865V72.6576H165.203V76.5741H167.153V80.9869H174.957V80.1822H168.169V73.6769H174.957V72.5234H184.097V73.6769H191.553V80.1822H184.097V80.9869H192.568V86.6471H192.581ZM156.878 84.0182H155.502C155.234 85.7082 154.927 87.13 154.566 88.2969L156.878 88.2567V84.0182ZM181.411 94.1315H174.315C175.759 95.3252 177.215 96.7872 178.658 98.5443C179.433 98.598 179.901 98.6382 180.075 98.6382C180.636 98.6382 180.997 98.5711 181.157 98.4102C181.317 98.2627 181.397 97.9944 181.397 97.6054V94.1315H181.411Z" stroke="#ECCC27" stroke-miterlimit="10"/>
<path d="M236.275 102.836C235.955 103.801 235.046 104.566 233.55 105.129C232.053 105.693 229.568 106.055 226.08 106.202C222.473 106.35 218.771 106.43 214.99 106.43C211.088 106.43 207.534 106.377 204.34 106.256C202.216 106.162 200.612 105.988 199.557 105.719C198.488 105.451 197.739 104.982 197.298 104.311C196.857 103.64 196.63 102.621 196.63 101.266V89.329L195.428 89.9996C195.013 85.4526 194.466 82.2202 193.784 80.2887C194.813 80.1412 195.962 79.7254 197.218 79.0681C198.474 78.3975 199.516 77.6598 200.345 76.8684C201.32 75.943 202.029 75.1382 202.47 74.4139C202.91 73.6896 203.138 72.9921 203.138 72.2812H211.916L211.743 73.3945H231.131L233.657 78.9608C233.069 79.4974 232.16 80.2082 230.944 81.0935H234.672V95.3916H227.483C229.113 96.2768 230.557 96.8938 231.813 97.2425C233.069 97.5778 234.712 97.8595 236.757 98.0607C236.77 100.274 236.61 101.87 236.275 102.836ZM211.222 89.1009V87.2231H206.879V89.0875H211.222V89.1009ZM225.639 97.3364C225.933 96.9474 226.054 96.3036 226 95.3781H206.879V96.7597C206.879 97.2023 206.999 97.5108 207.253 97.6986C207.507 97.8729 208.055 97.9802 208.91 98.0071C209.939 98.0339 212.531 98.0473 216.673 98.0473C220.669 98.0473 222.994 98.0339 223.635 98.0071C224.677 97.94 225.332 97.7254 225.639 97.3364ZM208.87 79.7522C208.509 80.1412 208.122 80.5436 207.667 80.9594L207.534 81.0935H220.214L222.205 79.7522H208.87ZM225.105 87.2231H220.535V89.0875H225.105V87.2231Z" stroke="#ECCC27" stroke-miterlimit="10"/>
<path d="M254.421 72.3086H265.284V103.614C265.284 104.473 265.004 105.116 264.469 105.546C263.921 105.975 262.679 106.297 260.741 106.525C258.804 106.753 255.757 106.86 251.575 106.86C251.575 105.318 251.321 103.748 250.8 102.139C250.279 100.543 249.49 99.0538 248.421 97.6857C247.767 99.2281 247.032 100.771 246.203 102.313C244.132 101.213 242.302 100.315 240.698 99.6171C239.108 98.9196 237.451 98.3965 235.728 98.0344C237.825 94.708 239.589 91.0463 241.006 87.0627C242.422 83.0657 243.384 79.3235 243.892 75.8228L253.606 77.5128C252.898 81.6439 252.149 85.2922 251.361 88.4845C250.573 91.6767 249.624 94.6544 248.502 97.4174L250.052 97.4576C251.348 97.4576 252.31 97.3906 252.938 97.2296C253.552 97.0821 253.953 96.8675 254.14 96.6126C254.328 96.3578 254.408 95.9688 254.408 95.4994V72.3086H254.421ZM275.854 75.8228C276.362 79.3235 277.324 83.0791 278.74 87.0627C280.156 91.0597 281.92 94.7214 284.018 98.0344C282.308 98.3965 280.651 98.9196 279.047 99.6171C277.444 100.315 275.613 101.213 273.542 102.313C271.765 99.0538 270.322 95.4323 269.213 91.4755C268.104 87.5053 267.075 82.8645 266.126 77.5128L275.854 75.8228Z" stroke="#ECCC27" stroke-miterlimit="10"/>
<path d="M325.707 81.309H309.031L308.59 82.5161H324.251V90.2687H321.939C319.721 90.2687 318.01 90.4431 316.795 90.7784C315.579 91.1138 314.63 91.6234 313.962 92.2673C313.28 92.9245 312.532 93.917 311.704 95.2449C311.316 95.8619 311.129 96.3716 311.129 96.7606C311.129 97.2702 311.53 97.5117 312.332 97.5117H315.164C315.605 97.5117 315.913 97.2434 316.073 96.6935C316.233 96.1436 316.313 95.2583 316.313 94.0378C316.313 92.8574 316.3 91.9051 316.273 91.1942C317.81 91.9319 319.454 92.5758 321.204 93.1257C322.954 93.6756 324.438 94.0512 325.68 94.2658C325.68 98.5176 325.587 101.348 325.413 102.77C325.239 104.191 324.825 105.09 324.17 105.465C323.516 105.841 322.193 106.056 320.175 106.109C317.57 106.203 314.991 106.243 312.412 106.243C311.169 106.243 309.338 106.217 306.907 106.15C304.809 106.056 303.352 105.693 302.537 105.036C301.722 104.379 301.321 103.467 301.321 102.273C301.321 101.857 301.335 101.549 301.361 101.334C301.629 99.1614 302.163 97.1764 302.951 95.3656C303.753 93.5549 304.769 91.999 306.011 90.6845H304.154C303.566 91.543 302.778 92.5355 301.802 93.6622C301.241 90.4029 300.72 87.8276 300.252 85.9632V104.58H291.42V105.465H283.884V73.2747H300.252V80.531C301.495 78.3984 302.136 75.689 302.163 72.4297L311.129 72.5236L310.995 73.7307H325.72V81.309H325.707ZM291.42 81.4431V95.7412H292.97V81.4431H291.42Z" stroke="#ECCC27" stroke-miterlimit="10"/>
</g>
<g filter="url(#filter7_f_1518_1842)">
<path d="M73.7928 84.0702V86.8735L74.8083 86.7796C74.7549 88.5367 74.7148 91.1522 74.7148 94.6663L73.7794 94.7602V98.9852C73.7794 101.453 73.5656 103.143 73.138 104.082C72.7105 105.021 71.882 105.611 70.6527 105.866C69.4234 106.121 67.1118 106.309 63.7044 106.429L62.6889 106.47C62.5419 104.632 62.3549 103.103 62.1144 101.909C61.8738 100.702 61.4195 99.4413 60.7381 98.1C61.8872 98.1 62.7156 98.0464 63.1967 97.939C63.6911 97.8317 63.985 97.6708 64.0786 97.4428C64.1855 97.2148 64.2389 96.8526 64.2389 96.3563V95.6857L61.4463 95.9137C61.3527 94.0493 61.2592 92.4934 61.1523 91.2595C61.0454 90.0255 60.8717 88.8049 60.6445 87.5843C62.248 87.5307 63.4372 87.4636 64.2389 87.41V84.0702H61.4463V76.1834H64.2389V72.5352H73.7794V76.1834H74.7148V84.0702H73.7928ZM75.8773 87.9465H102.227V106.604H93.6221V106.161H84.5225V106.604H75.8773V87.9465ZM103.951 78.0478C101.973 78.3161 100.103 78.5441 98.3656 78.7185L96.5484 78.9465C97.8846 79.3086 99.0203 79.5635 99.9824 79.7244C100.944 79.8854 102.214 79.9793 103.777 80.0195C103.777 82.4875 103.376 84.258 102.575 85.3444C101.773 86.4308 100.463 86.9942 98.6328 87.0612C95.319 87.182 91.738 87.2356 87.9031 87.2356C85.057 87.2356 82.1441 87.1954 79.1643 87.1015C77.9217 87.0747 77.0665 86.7125 76.6122 86.0285C76.1579 85.3444 75.9307 84.1641 75.9307 82.4606V73.018H85.0303V74.4934C89.0255 73.9569 92.9406 73.3265 96.7889 72.5754L103.951 78.0478ZM93.6221 94.3042V93.3653H84.5225V94.3042H93.6221ZM84.5225 100.179H93.6221V99.2401H84.5225V100.179ZM91.8182 81.0791C92.4596 80.9852 92.9139 80.8109 93.1945 80.5158C93.4751 80.2341 93.6488 79.7915 93.7022 79.2013C90.2147 79.5635 87.3152 79.8988 85.0035 80.2207C85.0303 80.6365 85.2975 80.9048 85.7785 81.0255C86.2729 81.1462 87.3152 81.1998 88.9053 81.1998C90.2147 81.2133 91.1902 81.173 91.8182 81.0791Z" stroke="#ECCC27" stroke-miterlimit="10"/>
<path d="M134.603 97.8318C137.45 97.8318 139.895 97.7513 141.966 97.5903C144.037 97.4294 146.122 97.0806 148.219 96.5441C147.925 98.1537 147.698 99.79 147.551 101.467C147.404 103.143 147.311 104.189 147.284 104.605C147.284 104.9 147.257 105.343 147.191 105.947C141.338 106.161 136.728 106.255 133.347 106.255C129.379 106.255 126.145 105.933 123.607 105.276C121.081 104.619 119.09 103.626 117.634 102.298C116.979 104.015 116.364 105.45 115.776 106.577C111.875 105.356 108.28 104.632 104.993 104.391C106.744 101.695 108 99.0658 108.788 96.5307C109.576 93.9957 109.964 91.6887 109.964 89.6097H119.504V90.951C119.678 92.3191 120.012 93.4324 120.48 94.3176C120.947 95.1894 121.602 95.8735 122.431 96.3429V88.5099H110.231V85.2103H105.701V73.9838H120.653V72.334H132.76V73.9838H147.712V85.2103H143.048V88.5099H132.091V89.6231H144.598V96.6112H132.091V97.8586H132.76H134.603V97.8318ZM137.263 82.018V80.9048H115.803V82.018H137.263Z" stroke="#ECCC27" stroke-miterlimit="10"/>
<path d="M192.581 86.6471H190.403V87.4922H191.646V94.1315H190.403V100.368C190.403 102.233 190.123 103.547 189.562 104.312C189 105.063 187.878 105.573 186.194 105.801C184.511 106.042 181.584 106.163 177.415 106.163C177.362 104.446 177.242 103.158 177.055 102.327L174.302 104.513C173.006 102.903 171.79 101.535 170.681 100.395C169.572 99.2552 168.356 98.2224 167.02 97.2969L171.189 94.1315H167.862V87.4922H181.397V86.6471H167.113V84.0182H165.203V87.6263C165.59 87.5995 166.231 87.519 167.153 87.3983V95.2314L165.203 95.4996V99.282C165.203 101.24 164.882 102.716 164.227 103.695C163.572 104.674 162.383 105.371 160.659 105.787C158.936 106.203 156.277 106.471 152.696 106.592C152.495 103.708 151.734 100.798 150.438 97.8603C152.776 97.8603 154.339 97.8334 155.141 97.7932C155.943 97.753 156.424 97.6457 156.611 97.4847C156.784 97.3238 156.878 96.9884 156.878 96.4787V96.3446C155.542 96.4653 153.404 96.6129 150.451 96.7872C150.277 93.3133 149.997 90.51 149.609 88.3774C151.052 88.3774 152.134 88.364 152.843 88.3372C152.255 87.6531 151.48 86.9154 150.531 86.1106L149.596 85.3059C150.691 81.7381 151.239 78.2641 151.239 74.8841H155.943L155.983 76.5741H156.865V72.6576H165.203V76.5741H167.153V80.9869H174.957V80.1822H168.169V73.6769H174.957V72.5234H184.097V73.6769H191.553V80.1822H184.097V80.9869H192.568V86.6471H192.581ZM156.878 84.0182H155.502C155.234 85.7082 154.927 87.13 154.566 88.2969L156.878 88.2567V84.0182ZM181.411 94.1315H174.315C175.759 95.3252 177.215 96.7872 178.658 98.5443C179.433 98.598 179.901 98.6382 180.075 98.6382C180.636 98.6382 180.997 98.5711 181.157 98.4102C181.317 98.2627 181.397 97.9944 181.397 97.6054V94.1315H181.411Z" stroke="#ECCC27" stroke-miterlimit="10"/>
<path d="M236.275 102.836C235.955 103.801 235.046 104.566 233.55 105.129C232.053 105.693 229.568 106.055 226.08 106.202C222.473 106.35 218.771 106.43 214.99 106.43C211.088 106.43 207.534 106.377 204.34 106.256C202.216 106.162 200.612 105.988 199.557 105.719C198.488 105.451 197.739 104.982 197.298 104.311C196.857 103.64 196.63 102.621 196.63 101.266V89.329L195.428 89.9996C195.013 85.4526 194.466 82.2202 193.784 80.2887C194.813 80.1412 195.962 79.7254 197.218 79.0681C198.474 78.3975 199.516 77.6598 200.345 76.8684C201.32 75.943 202.029 75.1382 202.47 74.4139C202.91 73.6896 203.138 72.9921 203.138 72.2812H211.916L211.743 73.3945H231.131L233.657 78.9608C233.069 79.4974 232.16 80.2082 230.944 81.0935H234.672V95.3916H227.483C229.113 96.2768 230.557 96.8938 231.813 97.2425C233.069 97.5778 234.712 97.8595 236.757 98.0607C236.77 100.274 236.61 101.87 236.275 102.836ZM211.222 89.1009V87.2231H206.879V89.0875H211.222V89.1009ZM225.639 97.3364C225.933 96.9474 226.054 96.3036 226 95.3781H206.879V96.7597C206.879 97.2023 206.999 97.5108 207.253 97.6986C207.507 97.8729 208.055 97.9802 208.91 98.0071C209.939 98.0339 212.531 98.0473 216.673 98.0473C220.669 98.0473 222.994 98.0339 223.635 98.0071C224.677 97.94 225.332 97.7254 225.639 97.3364ZM208.87 79.7522C208.509 80.1412 208.122 80.5436 207.667 80.9594L207.534 81.0935H220.214L222.205 79.7522H208.87ZM225.105 87.2231H220.535V89.0875H225.105V87.2231Z" stroke="#ECCC27" stroke-miterlimit="10"/>
<path d="M254.421 72.3086H265.284V103.614C265.284 104.473 265.004 105.116 264.469 105.546C263.921 105.975 262.679 106.297 260.741 106.525C258.804 106.753 255.757 106.86 251.575 106.86C251.575 105.318 251.321 103.748 250.8 102.139C250.279 100.543 249.49 99.0538 248.421 97.6857C247.767 99.2281 247.032 100.771 246.203 102.313C244.132 101.213 242.302 100.315 240.698 99.6171C239.108 98.9196 237.451 98.3965 235.728 98.0344C237.825 94.708 239.589 91.0463 241.006 87.0627C242.422 83.0657 243.384 79.3235 243.892 75.8228L253.606 77.5128C252.898 81.6439 252.149 85.2922 251.361 88.4845C250.573 91.6767 249.624 94.6544 248.502 97.4174L250.052 97.4576C251.348 97.4576 252.31 97.3906 252.938 97.2296C253.552 97.0821 253.953 96.8675 254.14 96.6126C254.328 96.3578 254.408 95.9688 254.408 95.4994V72.3086H254.421ZM275.854 75.8228C276.362 79.3235 277.324 83.0791 278.74 87.0627C280.156 91.0597 281.92 94.7214 284.018 98.0344C282.308 98.3965 280.651 98.9196 279.047 99.6171C277.444 100.315 275.613 101.213 273.542 102.313C271.765 99.0538 270.322 95.4323 269.213 91.4755C268.104 87.5053 267.075 82.8645 266.126 77.5128L275.854 75.8228Z" stroke="#ECCC27" stroke-miterlimit="10"/>
<path d="M325.707 81.309H309.031L308.59 82.5161H324.251V90.2687H321.939C319.721 90.2687 318.01 90.4431 316.795 90.7784C315.579 91.1138 314.63 91.6234 313.962 92.2673C313.28 92.9245 312.532 93.917 311.704 95.2449C311.316 95.8619 311.129 96.3716 311.129 96.7606C311.129 97.2702 311.53 97.5117 312.332 97.5117H315.164C315.605 97.5117 315.913 97.2434 316.073 96.6935C316.233 96.1436 316.313 95.2583 316.313 94.0378C316.313 92.8574 316.3 91.9051 316.273 91.1942C317.81 91.9319 319.454 92.5758 321.204 93.1257C322.954 93.6756 324.438 94.0512 325.68 94.2658C325.68 98.5176 325.587 101.348 325.413 102.77C325.239 104.191 324.825 105.09 324.17 105.465C323.516 105.841 322.193 106.056 320.175 106.109C317.57 106.203 314.991 106.243 312.412 106.243C311.169 106.243 309.338 106.217 306.907 106.15C304.809 106.056 303.352 105.693 302.537 105.036C301.722 104.379 301.321 103.467 301.321 102.273C301.321 101.857 301.335 101.549 301.361 101.334C301.629 99.1614 302.163 97.1764 302.951 95.3656C303.753 93.5549 304.769 91.999 306.011 90.6845H304.154C303.566 91.543 302.778 92.5355 301.802 93.6622C301.241 90.4029 300.72 87.8276 300.252 85.9632V104.58H291.42V105.465H283.884V73.2747H300.252V80.531C301.495 78.3984 302.136 75.689 302.163 72.4297L311.129 72.5236L310.995 73.7307H325.72V81.309H325.707ZM291.42 81.4431V95.7412H292.97V81.4431H291.42Z" stroke="#ECCC27" stroke-miterlimit="10"/>
</g>
<g filter="url(#filter8_f_1518_1842)">
<path d="M73.7928 84.0702V86.8735L74.8083 86.7796C74.7549 88.5367 74.7148 91.1522 74.7148 94.6663L73.7794 94.7602V98.9852C73.7794 101.453 73.5656 103.143 73.138 104.082C72.7105 105.021 71.882 105.611 70.6527 105.866C69.4234 106.121 67.1118 106.309 63.7044 106.429L62.6889 106.47C62.5419 104.632 62.3549 103.103 62.1144 101.909C61.8738 100.702 61.4195 99.4413 60.7381 98.1C61.8872 98.1 62.7156 98.0464 63.1967 97.939C63.6911 97.8317 63.985 97.6708 64.0786 97.4428C64.1855 97.2148 64.2389 96.8526 64.2389 96.3563V95.6857L61.4463 95.9137C61.3527 94.0493 61.2592 92.4934 61.1523 91.2595C61.0454 90.0255 60.8717 88.8049 60.6445 87.5843C62.248 87.5307 63.4372 87.4636 64.2389 87.41V84.0702H61.4463V76.1834H64.2389V72.5352H73.7794V76.1834H74.7148V84.0702H73.7928ZM75.8773 87.9465H102.227V106.604H93.6221V106.161H84.5225V106.604H75.8773V87.9465ZM103.951 78.0478C101.973 78.3161 100.103 78.5441 98.3656 78.7185L96.5484 78.9465C97.8846 79.3086 99.0203 79.5635 99.9824 79.7244C100.944 79.8854 102.214 79.9793 103.777 80.0195C103.777 82.4875 103.376 84.258 102.575 85.3444C101.773 86.4308 100.463 86.9942 98.6328 87.0612C95.319 87.182 91.738 87.2356 87.9031 87.2356C85.057 87.2356 82.1441 87.1954 79.1643 87.1015C77.9217 87.0747 77.0665 86.7125 76.6122 86.0285C76.1579 85.3444 75.9307 84.1641 75.9307 82.4606V73.018H85.0303V74.4934C89.0255 73.9569 92.9406 73.3265 96.7889 72.5754L103.951 78.0478ZM93.6221 94.3042V93.3653H84.5225V94.3042H93.6221ZM84.5225 100.179H93.6221V99.2401H84.5225V100.179ZM91.8182 81.0791C92.4596 80.9852 92.9139 80.8109 93.1945 80.5158C93.4751 80.2341 93.6488 79.7915 93.7022 79.2013C90.2147 79.5635 87.3152 79.8988 85.0035 80.2207C85.0303 80.6365 85.2975 80.9048 85.7785 81.0255C86.2729 81.1462 87.3152 81.1998 88.9053 81.1998C90.2147 81.2133 91.1902 81.173 91.8182 81.0791Z" stroke="#ECCC27" stroke-miterlimit="10"/>
<path d="M134.603 97.8318C137.45 97.8318 139.895 97.7513 141.966 97.5903C144.037 97.4294 146.122 97.0806 148.219 96.5441C147.925 98.1537 147.698 99.79 147.551 101.467C147.404 103.143 147.311 104.189 147.284 104.605C147.284 104.9 147.257 105.343 147.191 105.947C141.338 106.161 136.728 106.255 133.347 106.255C129.379 106.255 126.145 105.933 123.607 105.276C121.081 104.619 119.09 103.626 117.634 102.298C116.979 104.015 116.364 105.45 115.776 106.577C111.875 105.356 108.28 104.632 104.993 104.391C106.744 101.695 108 99.0658 108.788 96.5307C109.576 93.9957 109.964 91.6887 109.964 89.6097H119.504V90.951C119.678 92.3191 120.012 93.4324 120.48 94.3176C120.947 95.1894 121.602 95.8735 122.431 96.3429V88.5099H110.231V85.2103H105.701V73.9838H120.653V72.334H132.76V73.9838H147.712V85.2103H143.048V88.5099H132.091V89.6231H144.598V96.6112H132.091V97.8586H132.76H134.603V97.8318ZM137.263 82.018V80.9048H115.803V82.018H137.263Z" stroke="#ECCC27" stroke-miterlimit="10"/>
<path d="M192.581 86.6471H190.403V87.4922H191.646V94.1315H190.403V100.368C190.403 102.233 190.123 103.547 189.562 104.312C189 105.063 187.878 105.573 186.194 105.801C184.511 106.042 181.584 106.163 177.415 106.163C177.362 104.446 177.242 103.158 177.055 102.327L174.302 104.513C173.006 102.903 171.79 101.535 170.681 100.395C169.572 99.2552 168.356 98.2224 167.02 97.2969L171.189 94.1315H167.862V87.4922H181.397V86.6471H167.113V84.0182H165.203V87.6263C165.59 87.5995 166.231 87.519 167.153 87.3983V95.2314L165.203 95.4996V99.282C165.203 101.24 164.882 102.716 164.227 103.695C163.572 104.674 162.383 105.371 160.659 105.787C158.936 106.203 156.277 106.471 152.696 106.592C152.495 103.708 151.734 100.798 150.438 97.8603C152.776 97.8603 154.339 97.8334 155.141 97.7932C155.943 97.753 156.424 97.6457 156.611 97.4847C156.784 97.3238 156.878 96.9884 156.878 96.4787V96.3446C155.542 96.4653 153.404 96.6129 150.451 96.7872C150.277 93.3133 149.997 90.51 149.609 88.3774C151.052 88.3774 152.134 88.364 152.843 88.3372C152.255 87.6531 151.48 86.9154 150.531 86.1106L149.596 85.3059C150.691 81.7381 151.239 78.2641 151.239 74.8841H155.943L155.983 76.5741H156.865V72.6576H165.203V76.5741H167.153V80.9869H174.957V80.1822H168.169V73.6769H174.957V72.5234H184.097V73.6769H191.553V80.1822H184.097V80.9869H192.568V86.6471H192.581ZM156.878 84.0182H155.502C155.234 85.7082 154.927 87.13 154.566 88.2969L156.878 88.2567V84.0182ZM181.411 94.1315H174.315C175.759 95.3252 177.215 96.7872 178.658 98.5443C179.433 98.598 179.901 98.6382 180.075 98.6382C180.636 98.6382 180.997 98.5711 181.157 98.4102C181.317 98.2627 181.397 97.9944 181.397 97.6054V94.1315H181.411Z" stroke="#ECCC27" stroke-miterlimit="10"/>
<path d="M236.275 102.836C235.955 103.801 235.046 104.566 233.55 105.129C232.053 105.693 229.568 106.055 226.08 106.202C222.473 106.35 218.771 106.43 214.99 106.43C211.088 106.43 207.534 106.377 204.34 106.256C202.216 106.162 200.612 105.988 199.557 105.719C198.488 105.451 197.739 104.982 197.298 104.311C196.857 103.64 196.63 102.621 196.63 101.266V89.329L195.428 89.9996C195.013 85.4526 194.466 82.2202 193.784 80.2887C194.813 80.1412 195.962 79.7254 197.218 79.0681C198.474 78.3975 199.516 77.6598 200.345 76.8684C201.32 75.943 202.029 75.1382 202.47 74.4139C202.91 73.6896 203.138 72.9921 203.138 72.2812H211.916L211.743 73.3945H231.131L233.657 78.9608C233.069 79.4974 232.16 80.2082 230.944 81.0935H234.672V95.3916H227.483C229.113 96.2768 230.557 96.8938 231.813 97.2425C233.069 97.5778 234.712 97.8595 236.757 98.0607C236.77 100.274 236.61 101.87 236.275 102.836ZM211.222 89.1009V87.2231H206.879V89.0875H211.222V89.1009ZM225.639 97.3364C225.933 96.9474 226.054 96.3036 226 95.3781H206.879V96.7597C206.879 97.2023 206.999 97.5108 207.253 97.6986C207.507 97.8729 208.055 97.9802 208.91 98.0071C209.939 98.0339 212.531 98.0473 216.673 98.0473C220.669 98.0473 222.994 98.0339 223.635 98.0071C224.677 97.94 225.332 97.7254 225.639 97.3364ZM208.87 79.7522C208.509 80.1412 208.122 80.5436 207.667 80.9594L207.534 81.0935H220.214L222.205 79.7522H208.87ZM225.105 87.2231H220.535V89.0875H225.105V87.2231Z" stroke="#ECCC27" stroke-miterlimit="10"/>
<path d="M254.421 72.3086H265.284V103.614C265.284 104.473 265.004 105.116 264.469 105.546C263.921 105.975 262.679 106.297 260.741 106.525C258.804 106.753 255.757 106.86 251.575 106.86C251.575 105.318 251.321 103.748 250.8 102.139C250.279 100.543 249.49 99.0538 248.421 97.6857C247.767 99.2281 247.032 100.771 246.203 102.313C244.132 101.213 242.302 100.315 240.698 99.6171C239.108 98.9196 237.451 98.3965 235.728 98.0344C237.825 94.708 239.589 91.0463 241.006 87.0627C242.422 83.0657 243.384 79.3235 243.892 75.8228L253.606 77.5128C252.898 81.6439 252.149 85.2922 251.361 88.4845C250.573 91.6767 249.624 94.6544 248.502 97.4174L250.052 97.4576C251.348 97.4576 252.31 97.3906 252.938 97.2296C253.552 97.0821 253.953 96.8675 254.14 96.6126C254.328 96.3578 254.408 95.9688 254.408 95.4994V72.3086H254.421ZM275.854 75.8228C276.362 79.3235 277.324 83.0791 278.74 87.0627C280.156 91.0597 281.92 94.7214 284.018 98.0344C282.308 98.3965 280.651 98.9196 279.047 99.6171C277.444 100.315 275.613 101.213 273.542 102.313C271.765 99.0538 270.322 95.4323 269.213 91.4755C268.104 87.5053 267.075 82.8645 266.126 77.5128L275.854 75.8228Z" stroke="#ECCC27" stroke-miterlimit="10"/>
<path d="M325.707 81.309H309.031L308.59 82.5161H324.251V90.2687H321.939C319.721 90.2687 318.01 90.4431 316.795 90.7784C315.579 91.1138 314.63 91.6234 313.962 92.2673C313.28 92.9245 312.532 93.917 311.704 95.2449C311.316 95.8619 311.129 96.3716 311.129 96.7606C311.129 97.2702 311.53 97.5117 312.332 97.5117H315.164C315.605 97.5117 315.913 97.2434 316.073 96.6935C316.233 96.1436 316.313 95.2583 316.313 94.0378C316.313 92.8574 316.3 91.9051 316.273 91.1942C317.81 91.9319 319.454 92.5758 321.204 93.1257C322.954 93.6756 324.438 94.0512 325.68 94.2658C325.68 98.5176 325.587 101.348 325.413 102.77C325.239 104.191 324.825 105.09 324.17 105.465C323.516 105.841 322.193 106.056 320.175 106.109C317.57 106.203 314.991 106.243 312.412 106.243C311.169 106.243 309.338 106.217 306.907 106.15C304.809 106.056 303.352 105.693 302.537 105.036C301.722 104.379 301.321 103.467 301.321 102.273C301.321 101.857 301.335 101.549 301.361 101.334C301.629 99.1614 302.163 97.1764 302.951 95.3656C303.753 93.5549 304.769 91.999 306.011 90.6845H304.154C303.566 91.543 302.778 92.5355 301.802 93.6622C301.241 90.4029 300.72 87.8276 300.252 85.9632V104.58H291.42V105.465H283.884V73.2747H300.252V80.531C301.495 78.3984 302.136 75.689 302.163 72.4297L311.129 72.5236L310.995 73.7307H325.72V81.309H325.707ZM291.42 81.4431V95.7412H292.97V81.4431H291.42Z" stroke="#ECCC27" stroke-miterlimit="10"/>
</g>
<path d="M73.7928 84.0702V86.8735L74.8083 86.7796C74.7549 88.5367 74.7148 91.1522 74.7148 94.6663L73.7794 94.7602V98.9852C73.7794 101.453 73.5656 103.143 73.138 104.082C72.7105 105.021 71.882 105.611 70.6527 105.866C69.4234 106.121 67.1118 106.309 63.7044 106.429L62.6889 106.47C62.5419 104.632 62.3549 103.103 62.1144 101.909C61.8738 100.702 61.4195 99.4413 60.7381 98.1C61.8872 98.1 62.7156 98.0464 63.1967 97.939C63.6911 97.8317 63.985 97.6708 64.0786 97.4428C64.1855 97.2148 64.2389 96.8526 64.2389 96.3563V95.6857L61.4463 95.9137C61.3527 94.0493 61.2592 92.4934 61.1523 91.2595C61.0454 90.0255 60.8717 88.8049 60.6445 87.5843C62.248 87.5307 63.4372 87.4636 64.2389 87.41V84.0702H61.4463V76.1834H64.2389V72.5352H73.7794V76.1834H74.7148V84.0702H73.7928ZM75.8773 87.9465H102.227V106.604H93.6221V106.161H84.5225V106.604H75.8773V87.9465ZM103.951 78.0478C101.973 78.3161 100.103 78.5441 98.3656 78.7185L96.5484 78.9465C97.8846 79.3086 99.0203 79.5635 99.9824 79.7244C100.944 79.8854 102.214 79.9793 103.777 80.0195C103.777 82.4875 103.376 84.258 102.575 85.3444C101.773 86.4308 100.463 86.9942 98.6328 87.0612C95.319 87.182 91.738 87.2356 87.9031 87.2356C85.057 87.2356 82.1441 87.1954 79.1643 87.1015C77.9217 87.0747 77.0665 86.7125 76.6122 86.0285C76.1579 85.3444 75.9307 84.1641 75.9307 82.4606V73.018H85.0303V74.4934C89.0255 73.9569 92.9406 73.3265 96.7889 72.5754L103.951 78.0478ZM93.6221 94.3042V93.3653H84.5225V94.3042H93.6221ZM84.5225 100.179H93.6221V99.2401H84.5225V100.179ZM91.8182 81.0791C92.4596 80.9852 92.9139 80.8109 93.1945 80.5158C93.4751 80.2341 93.6488 79.7915 93.7022 79.2013C90.2147 79.5635 87.3152 79.8988 85.0035 80.2207C85.0303 80.6365 85.2975 80.9048 85.7785 81.0255C86.2729 81.1462 87.3152 81.1998 88.9053 81.1998C90.2147 81.2133 91.1902 81.173 91.8182 81.0791Z" stroke="#FFE977" stroke-miterlimit="10"/>
<path d="M134.603 97.8318C137.45 97.8318 139.895 97.7513 141.966 97.5903C144.037 97.4294 146.122 97.0806 148.219 96.5441C147.925 98.1537 147.698 99.79 147.551 101.467C147.404 103.143 147.311 104.189 147.284 104.605C147.284 104.9 147.257 105.343 147.191 105.947C141.338 106.161 136.728 106.255 133.347 106.255C129.379 106.255 126.145 105.933 123.607 105.276C121.081 104.619 119.09 103.626 117.634 102.298C116.979 104.015 116.364 105.45 115.776 106.577C111.875 105.356 108.28 104.632 104.993 104.391C106.744 101.695 108 99.0658 108.788 96.5307C109.576 93.9957 109.964 91.6887 109.964 89.6097H119.504V90.951C119.678 92.3191 120.012 93.4324 120.48 94.3176C120.947 95.1894 121.602 95.8735 122.431 96.3429V88.5099H110.231V85.2103H105.701V73.9838H120.653V72.334H132.76V73.9838H147.712V85.2103H143.048V88.5099H132.091V89.6231H144.598V96.6112H132.091V97.8586H132.76H134.603V97.8318ZM137.263 82.018V80.9048H115.803V82.018H137.263Z" stroke="#FFE977" stroke-miterlimit="10"/>
<path d="M192.581 86.6471H190.403V87.4922H191.646V94.1315H190.403V100.368C190.403 102.233 190.123 103.547 189.562 104.312C189 105.063 187.878 105.573 186.194 105.801C184.511 106.042 181.584 106.163 177.415 106.163C177.362 104.446 177.242 103.158 177.055 102.327L174.302 104.513C173.006 102.903 171.79 101.535 170.681 100.395C169.572 99.2552 168.356 98.2224 167.02 97.2969L171.189 94.1315H167.862V87.4922H181.397V86.6471H167.113V84.0182H165.203V87.6263C165.59 87.5995 166.231 87.519 167.153 87.3983V95.2314L165.203 95.4996V99.282C165.203 101.24 164.882 102.716 164.227 103.695C163.572 104.674 162.383 105.371 160.659 105.787C158.936 106.203 156.277 106.471 152.696 106.592C152.495 103.708 151.734 100.798 150.438 97.8603C152.776 97.8603 154.339 97.8334 155.141 97.7932C155.943 97.753 156.424 97.6457 156.611 97.4847C156.784 97.3238 156.878 96.9884 156.878 96.4787V96.3446C155.542 96.4653 153.404 96.6129 150.451 96.7872C150.277 93.3133 149.997 90.51 149.609 88.3774C151.052 88.3774 152.134 88.364 152.843 88.3372C152.255 87.6531 151.48 86.9154 150.531 86.1106L149.596 85.3059C150.691 81.7381 151.239 78.2641 151.239 74.8841H155.943L155.983 76.5741H156.865V72.6576H165.203V76.5741H167.153V80.9869H174.957V80.1822H168.169V73.6769H174.957V72.5234H184.097V73.6769H191.553V80.1822H184.097V80.9869H192.568V86.6471H192.581ZM156.878 84.0182H155.502C155.234 85.7082 154.927 87.13 154.566 88.2969L156.878 88.2567V84.0182ZM181.411 94.1315H174.315C175.759 95.3252 177.215 96.7872 178.658 98.5443C179.433 98.598 179.901 98.6382 180.075 98.6382C180.636 98.6382 180.997 98.5711 181.157 98.4102C181.317 98.2627 181.397 97.9944 181.397 97.6054V94.1315H181.411Z" stroke="#FFE977" stroke-miterlimit="10"/>
<path d="M236.275 102.836C235.955 103.801 235.046 104.566 233.55 105.129C232.053 105.693 229.568 106.055 226.08 106.202C222.473 106.35 218.771 106.43 214.99 106.43C211.088 106.43 207.534 106.377 204.34 106.256C202.216 106.162 200.612 105.988 199.557 105.719C198.488 105.451 197.739 104.982 197.298 104.311C196.857 103.64 196.63 102.621 196.63 101.266V89.329L195.428 89.9996C195.013 85.4526 194.466 82.2202 193.784 80.2887C194.813 80.1412 195.962 79.7254 197.218 79.0681C198.474 78.3975 199.516 77.6598 200.345 76.8684C201.32 75.943 202.029 75.1382 202.47 74.4139C202.91 73.6896 203.138 72.9921 203.138 72.2812H211.916L211.743 73.3945H231.131L233.657 78.9608C233.069 79.4974 232.16 80.2082 230.944 81.0935H234.672V95.3916H227.483C229.113 96.2768 230.557 96.8938 231.813 97.2425C233.069 97.5778 234.712 97.8595 236.757 98.0607C236.77 100.274 236.61 101.87 236.275 102.836ZM211.222 89.1009V87.2231H206.879V89.0875H211.222V89.1009ZM225.639 97.3364C225.933 96.9474 226.054 96.3036 226 95.3781H206.879V96.7597C206.879 97.2023 206.999 97.5108 207.253 97.6986C207.507 97.8729 208.055 97.9802 208.91 98.0071C209.939 98.0339 212.531 98.0473 216.673 98.0473C220.669 98.0473 222.994 98.0339 223.635 98.0071C224.677 97.94 225.332 97.7254 225.639 97.3364ZM208.87 79.7522C208.509 80.1412 208.122 80.5436 207.667 80.9594L207.534 81.0935H220.214L222.205 79.7522H208.87ZM225.105 87.2231H220.535V89.0875H225.105V87.2231Z" stroke="#FFE977" stroke-miterlimit="10"/>
<path d="M254.421 72.3086H265.284V103.614C265.284 104.473 265.004 105.116 264.469 105.546C263.921 105.975 262.679 106.297 260.741 106.525C258.804 106.753 255.757 106.86 251.575 106.86C251.575 105.318 251.321 103.748 250.8 102.139C250.279 100.543 249.49 99.0538 248.421 97.6857C247.767 99.2281 247.032 100.771 246.203 102.313C244.132 101.213 242.302 100.315 240.698 99.6171C239.108 98.9196 237.451 98.3965 235.728 98.0344C237.825 94.708 239.589 91.0463 241.006 87.0627C242.422 83.0657 243.384 79.3235 243.892 75.8228L253.606 77.5128C252.898 81.6439 252.149 85.2922 251.361 88.4845C250.573 91.6767 249.624 94.6544 248.502 97.4174L250.052 97.4576C251.348 97.4576 252.31 97.3906 252.938 97.2296C253.552 97.0821 253.953 96.8675 254.14 96.6126C254.328 96.3578 254.408 95.9688 254.408 95.4994V72.3086H254.421ZM275.854 75.8228C276.362 79.3235 277.324 83.0791 278.74 87.0627C280.156 91.0597 281.92 94.7214 284.018 98.0344C282.308 98.3965 280.651 98.9196 279.047 99.6171C277.444 100.315 275.613 101.213 273.542 102.313C271.765 99.0538 270.322 95.4323 269.213 91.4755C268.104 87.5053 267.075 82.8645 266.126 77.5128L275.854 75.8228Z" stroke="#FFE977" stroke-miterlimit="10"/>
<path d="M325.707 81.309H309.031L308.59 82.5161H324.251V90.2687H321.939C319.721 90.2687 318.01 90.4431 316.795 90.7784C315.579 91.1138 314.63 91.6234 313.962 92.2673C313.28 92.9245 312.532 93.917 311.704 95.2449C311.316 95.8619 311.129 96.3716 311.129 96.7606C311.129 97.2702 311.53 97.5117 312.332 97.5117H315.164C315.605 97.5117 315.913 97.2434 316.073 96.6935C316.233 96.1436 316.313 95.2583 316.313 94.0378C316.313 92.8574 316.3 91.9051 316.273 91.1942C317.81 91.9319 319.454 92.5758 321.204 93.1257C322.954 93.6756 324.438 94.0512 325.68 94.2658C325.68 98.5176 325.587 101.348 325.413 102.77C325.239 104.191 324.825 105.09 324.17 105.465C323.516 105.841 322.193 106.056 320.175 106.109C317.57 106.203 314.991 106.243 312.412 106.243C311.169 106.243 309.338 106.217 306.907 106.15C304.809 106.056 303.352 105.693 302.537 105.036C301.722 104.379 301.321 103.467 301.321 102.273C301.321 101.857 301.335 101.549 301.361 101.334C301.629 99.1614 302.163 97.1764 302.951 95.3656C303.753 93.5549 304.769 91.999 306.011 90.6845H304.154C303.566 91.543 302.778 92.5355 301.802 93.6622C301.241 90.4029 300.72 87.8276 300.252 85.9632V104.58H291.42V105.465H283.884V73.2747H300.252V80.531C301.495 78.3984 302.136 75.689 302.163 72.4297L311.129 72.5236L310.995 73.7307H325.72V81.309H325.707ZM291.42 81.4431V95.7412H292.97V81.4431H291.42Z" stroke="#FFE977" stroke-miterlimit="10"/>
<defs>
<filter id="filter0_f_1518_1842" x="20.5" y="20.5" width="324.746" height="112.498" filterUnits="userSpaceOnUse" color-interpolation-filters="sRGB">
<feFlood flood-opacity="0" result="BackgroundImageFix"/>
<feBlend mode="normal" in="SourceGraphic" in2="BackgroundImageFix" result="shape"/>
<feGaussianBlur stdDeviation="2.5" result="effect1_foregroundBlur_1518_1842"/>
</filter>
<filter id="filter1_f_1518_1842" x="36.333" y="36.2324" width="314.167" height="103.268" filterUnits="userSpaceOnUse" color-interpolation-filters="sRGB">
<feFlood flood-opacity="0" result="BackgroundImageFix"/>
<feBlend mode="normal" in="SourceGraphic" in2="BackgroundImageFix" result="shape"/>
<feGaussianBlur stdDeviation="2.5" result="effect1_foregroundBlur_1518_1842"/>
</filter>
<filter id="filter2_f_1518_1842" x="0.5" y="0.5" width="364.746" height="152.498" filterUnits="userSpaceOnUse" color-interpolation-filters="sRGB">
<feFlood flood-opacity="0" result="BackgroundImageFix"/>
<feBlend mode="normal" in="SourceGraphic" in2="BackgroundImageFix" result="shape"/>
<feGaussianBlur stdDeviation="12.5" result="effect1_foregroundBlur_1518_1842"/>
</filter>
<filter id="filter3_f_1518_1842" x="16.333" y="16.2324" width="354.167" height="143.268" filterUnits="userSpaceOnUse" color-interpolation-filters="sRGB">
<feFlood flood-opacity="0" result="BackgroundImageFix"/>
<feBlend mode="normal" in="SourceGraphic" in2="BackgroundImageFix" result="shape"/>
<feGaussianBlur stdDeviation="12.5" result="effect1_foregroundBlur_1518_1842"/>
</filter>
<filter id="filter4_f_1518_1842" x="10.5" y="10.5" width="344.746" height="132.498" filterUnits="userSpaceOnUse" color-interpolation-filters="sRGB">
<feFlood flood-opacity="0" result="BackgroundImageFix"/>
<feBlend mode="normal" in="SourceGraphic" in2="BackgroundImageFix" result="shape"/>
<feGaussianBlur stdDeviation="7.5" result="effect1_foregroundBlur_1518_1842"/>
</filter>
<filter id="filter5_f_1518_1842" x="26.333" y="26.2324" width="334.167" height="123.268" filterUnits="userSpaceOnUse" color-interpolation-filters="sRGB">
<feFlood flood-opacity="0" result="BackgroundImageFix"/>
<feBlend mode="normal" in="SourceGraphic" in2="BackgroundImageFix" result="shape"/>
<feGaussianBlur stdDeviation="7.5" result="effect1_foregroundBlur_1518_1842"/>
</filter>
<filter id="filter6_f_1518_1842" x="54.9229" y="66.7812" width="276.298" height="45.5781" filterUnits="userSpaceOnUse" color-interpolation-filters="sRGB">
<feFlood flood-opacity="0" result="BackgroundImageFix"/>
<feBlend mode="normal" in="SourceGraphic" in2="BackgroundImageFix" result="shape"/>
<feGaussianBlur stdDeviation="2.5" result="effect1_foregroundBlur_1518_1842"/>
</filter>
<filter id="filter7_f_1518_1842" x="34.9229" y="46.7812" width="316.298" height="85.5781" filterUnits="userSpaceOnUse" color-interpolation-filters="sRGB">
<feFlood flood-opacity="0" result="BackgroundImageFix"/>
<feBlend mode="normal" in="SourceGraphic" in2="BackgroundImageFix" result="shape"/>
<feGaussianBlur stdDeviation="12.5" result="effect1_foregroundBlur_1518_1842"/>
</filter>
<filter id="filter8_f_1518_1842" x="49.9229" y="61.7812" width="286.298" height="55.5781" filterUnits="userSpaceOnUse" color-interpolation-filters="sRGB">
<feFlood flood-opacity="0" result="BackgroundImageFix"/>
<feBlend mode="normal" in="SourceGraphic" in2="BackgroundImageFix" result="shape"/>
<feGaussianBlur stdDeviation="5" result="effect1_foregroundBlur_1518_1842"/>
</filter>
</defs>
</svg>
