<svg width="42" height="45" viewBox="0 0 42 45" fill="none" xmlns="http://www.w3.org/2000/svg">
<g clip-path="url(#clip0_2201_2608)">
<path d="M21.4001 44.4776C32.4942 44.4776 41.4878 34.6356 41.4878 22.4949C41.4878 10.3542 32.4942 0.512207 21.4001 0.512207C10.306 0.512207 1.3125 10.3542 1.3125 22.4949C1.3125 34.6356 10.306 44.4776 21.4001 44.4776Z" fill="#FFE24A" stroke="black" stroke-miterlimit="10"/>
<path d="M17.0875 26.1826C17.0875 26.1826 18.245 27.3299 21.7176 27.3299C24.9034 27.3299 25.7024 26.1826 25.7024 26.1826" fill="#FFE24A"/>
<path d="M17.0875 26.1826C17.0875 26.1826 18.245 27.3299 21.7176 27.3299C24.9034 27.3299 25.7024 26.1826 25.7024 26.1826" stroke="black" stroke-width="0.5" stroke-miterlimit="10"/>
<path d="M14.2091 20.1491C14.69 20.1491 15.0798 19.585 15.0798 18.8891C15.0798 18.1933 14.69 17.6292 14.2091 17.6292C13.7282 17.6292 13.3384 18.1933 13.3384 18.8891C13.3384 19.585 13.7282 20.1491 14.2091 20.1491Z" fill="black"/>
<path d="M28.3657 20.1491C28.8466 20.1491 29.2364 19.585 29.2364 18.8891C29.2364 18.1933 28.8466 17.6292 28.3657 17.6292C27.8848 17.6292 27.495 18.1933 27.495 18.8891C27.495 19.585 27.8848 20.1491 28.3657 20.1491Z" fill="black"/>
<path d="M5.49185 6.50473C5.49185 6.50473 7.27423 12.1694 12.2833 12.1694C17.2924 12.1694 19.5972 6.50473 19.5972 6.50473C19.5972 6.50473 20.8162 4.05651 17.9583 3.99505C15.1003 3.92335 7.15131 4.06676 7.15131 4.06676C7.15131 4.06676 4.64164 3.9131 5.49185 6.50473Z" fill="black"/>
<path d="M22.7523 6.50473C22.7523 6.50473 24.5347 12.1694 29.5438 12.1694C34.5529 12.1694 36.8577 6.50473 36.8577 6.50473C36.8577 6.50473 38.0767 4.05651 35.2187 3.99505C32.3505 3.92335 24.4015 4.06676 24.4015 4.06676C24.4015 4.06676 21.8918 3.9131 22.7523 6.50473Z" fill="black"/>
<path d="M23.9098 5.26526H18.5831V7.273H23.9098V5.26526Z" fill="black"/>
<path d="M13.0823 10.9914H11.8121L7.80688 8.37927H9.07709L13.0823 10.9914Z" fill="white"/>
<path d="M30.5579 10.9914H29.2877L25.2825 8.37927H26.5527L30.5579 10.9914Z" fill="white"/>
</g>
<defs>
<clipPath id="clip0_2201_2608">
<rect width="41.1996" height="45" fill="white" transform="translate(0.800293)"/>
</clipPath>
</defs>
</svg>
