<svg width="46" height="45" viewBox="0 0 46 45" fill="none" xmlns="http://www.w3.org/2000/svg">
<g clip-path="url(#clip0_2201_6686)">
<path d="M30.0957 11.6562C30.0543 11.6977 30.0336 11.7391 29.9922 11.7598" stroke="#60BF8B" stroke-miterlimit="10"/>
<path d="M27.9428 10.5283C27.5287 10.8078 27.2285 10.9217 27.2285 10.9217" stroke="#60BF8B" stroke-miterlimit="10"/>
<path d="M45.2716 19.2962C45.1681 20.2486 45.3337 22.0705 36.2964 21.1803C36.3999 21.8945 36.4724 22.6295 36.4724 23.3749C36.4724 24.4825 36.3378 25.5384 36.0997 26.5633C38.0563 27.1741 40.9755 28.1264 42.2592 28.8614C44.3192 30.0312 43.8844 32.1326 42.7146 33.6337C41.5449 35.1037 38.8741 32.9608 37.4041 30.7455C36.8451 29.8966 36.0169 29.3997 35.2095 29.1409C34.4331 30.8801 33.3047 32.4328 31.8968 33.6751C32.1349 34.4515 32.4144 35.2175 32.549 36.056C32.8492 38.1782 32.7457 41.9981 30.4269 42.8469C28.0873 43.7165 27.6732 41.6979 28.3047 38.4059C28.4807 37.5157 28.5635 36.6668 28.5635 35.9111C27.4351 36.4701 26.224 36.8635 24.961 37.0809C24.9196 37.5364 24.8989 38.054 24.8989 38.6233C24.8989 42.2258 23.8534 44.8656 21.2964 44.4515C18.7602 44.0167 20.5614 40.6316 21.2964 39.7931C21.6691 39.3583 21.8865 38.2507 21.99 37.2776C19.2571 37.174 16.7416 36.3045 14.6401 34.8242C13.0563 35.9318 12.6215 35.4763 12.0832 35.0001C11.6277 34.6275 11.0687 33.3542 11.8865 32.3293C10.7788 31.025 9.90927 29.5136 9.37096 27.8366C7.90098 27.878 6.09974 27.878 4.64012 27.6813C1.6691 27.2465 0.602849 25.4453 1.6691 23.4266C2.73535 21.408 5.0749 22.4743 5.5925 23.4266C5.94446 24.0374 7.59043 24.8138 8.7602 25.3107C8.65668 24.6792 8.60492 24.0271 8.60492 23.3542C8.60492 23.0333 8.62562 22.702 8.64633 22.4018C8.25295 22.3604 7.93204 22.2465 7.69395 22.0498C6.46206 21.1389 6.72086 19.2962 9.19498 19.3169C9.97138 16.7393 11.4931 14.4618 13.491 12.7641C13.4496 12.7434 13.3875 12.7227 13.3358 12.702C12.0832 12.2879 6.24467 11.6357 8.04591 8.26101C9.84715 4.85521 12.6008 6.35624 12.9217 8.26101C13.077 9.21339 14.3503 10.3418 15.6546 11.232C17.5387 10.1451 19.7333 9.49289 22.0728 9.43078C21.9693 6.57364 22.1556 2.75376 24.1536 2.4225C27.1246 1.9256 27.4248 3.92353 26.1515 9.88627C26.783 10.0415 27.3834 10.2589 27.9527 10.5177C28.8844 9.86556 30.4683 8.35417 30.8409 5.18647C31.3792 0.631608 33.3979 0.414216 34.1329 0.528088C34.8679 0.631608 35.8202 1.15956 35.3026 3.17819C34.7643 5.17612 32.725 9.44113 30.0956 11.6565C31.4206 12.5053 32.549 13.5405 33.4807 14.762C34.9507 14.1306 37.0418 13.0747 37.8389 12.0291C39.1225 10.3418 40.696 10.1244 41.224 10.7455C41.7623 11.3977 42.0935 12.1326 40.0749 13.4991C38.2322 14.7827 36.2757 15.9525 34.6712 16.5322C35.0852 17.2258 35.4269 17.9608 35.6857 18.7476C36.7933 18.644 41.4517 18.1575 43.0356 17.495C44.8368 16.76 45.3544 18.3335 45.2716 19.2962Z" fill="#7DE5AF" stroke="black" stroke-miterlimit="10"/>
<path d="M34.6711 16.543C34.5158 16.6051 34.3916 16.6465 34.2363 16.6982" stroke="#60BF8B" stroke-miterlimit="10"/>
<path d="M33.4803 14.7617C32.5694 15.1758 31.8965 15.4139 31.8965 15.4139" stroke="#60BF8B" stroke-miterlimit="10" stroke-linecap="round"/>
<path d="M36.2961 21.1803C36.0166 21.1803 35.7371 21.1389 35.4473 21.1182" stroke="#60BF8B" stroke-miterlimit="10"/>
<path d="M35.6854 18.7471C35.5301 18.7678 35.4473 18.7678 35.4473 18.7678" stroke="#60BF8B" stroke-miterlimit="10"/>
<path d="M16.4101 14.3276C16.4101 14.3276 14.7434 13.2406 13.4805 12.7852" stroke="#60BF8B" stroke-miterlimit="10" stroke-linecap="round"/>
<path d="M18.646 12.7229C18.2733 12.7229 16.9379 12.1121 15.6543 11.2529" stroke="#60BF8B" stroke-miterlimit="10" stroke-linecap="round"/>
<path d="M8.64648 22.4126C10.2303 22.63 12.7873 21.719 15.3442 19.6797" stroke="#60BF8B" stroke-miterlimit="10" stroke-linecap="round"/>
<path d="M9.19531 19.338C9.32989 19.338 9.47482 19.338 9.6301 19.3587C12.4872 19.6382 14.2885 17.3193 14.2885 17.3193" stroke="#60BF8B" stroke-miterlimit="10" stroke-linecap="round"/>
<path d="M12.0726 27.6816C12.0726 27.6816 10.9028 27.7852 9.36035 27.8369" stroke="#60BF8B" stroke-miterlimit="10" stroke-linecap="round"/>
<path d="M14.6299 34.8137C14.8473 34.6585 15.1061 34.4618 15.3649 34.2547C17.5802 32.4535 19.5885 29.4411 20.5512 27.8779" stroke="#60BF8B" stroke-miterlimit="10" stroke-linecap="round"/>
<path d="M11.876 32.3295C12.1969 31.9155 12.7662 31.5531 13.6565 31.284C16.731 30.4351 19.2776 25.9941 19.2776 25.9941" stroke="#60BF8B" stroke-miterlimit="10" stroke-linecap="round"/>
<path d="M24.9502 37.0703C25.1676 34.5961 25.8405 33.623 25.8405 33.623" stroke="#60BF8B" stroke-miterlimit="10" stroke-linecap="round"/>
<path d="M22.1348 35.5078C22.1348 35.5078 22.1141 36.3153 21.9795 37.2676" stroke="#60BF8B" stroke-miterlimit="10"/>
<path d="M31.8966 33.665C31.4826 32.4952 31.1202 31.284 31.3376 29.7002" stroke="#60BF8B" stroke-miterlimit="10" stroke-linecap="round"/>
<path d="M28.2939 32.3496C28.2939 32.3496 28.6459 33.8196 28.5527 35.9107" stroke="#60BF8B" stroke-miterlimit="10" stroke-linecap="round"/>
<path d="M32.6729 28.7477C32.6729 28.7477 33.9047 28.6649 35.2091 29.1411" stroke="#60BF8B" stroke-miterlimit="10" stroke-linecap="round"/>
<path d="M36.0993 26.5531C34.9502 26.2012 34.1221 25.9941 34.1221 25.9941" stroke="#60BF8B" stroke-miterlimit="10" stroke-linecap="round"/>
<path d="M23.4184 19.3682C23.4184 19.3682 23.8429 13.9024 20.5509 15.0618C17.259 16.2212 21.1824 18.685 21.1824 19.3682" stroke="#60BF8B" stroke-miterlimit="10" stroke-linecap="round"/>
<path d="M28.0254 17.1328C28.0254 17.1328 28.719 14.9589 29.8784 15.9112C31.0482 16.8636 30.0854 17.7125 29.8784 18.3543" stroke="#60BF8B" stroke-miterlimit="10" stroke-linecap="round"/>
<path d="M28.0256 22.2883C28.0256 22.2883 31.949 22.0606 31.3382 24.3898C30.7275 26.719 27.9739 26.2945 27.2285 25.984" stroke="#60BF8B" stroke-miterlimit="10" stroke-linecap="round"/>
<path d="M22.9219 29.2754C22.9219 29.2754 23.3152 31.4804 25.3339 30.7454C27.3525 30.0104 25.8618 29.2754 25.8618 29.2754" stroke="#60BF8B" stroke-miterlimit="10"/>
<path d="M26.1518 9.90723C26.069 10.342 25.9551 10.7768 25.8516 11.253" stroke="#60BF8B" stroke-miterlimit="10" stroke-linecap="round"/>
<path d="M22.3527 12.6189C22.3527 12.4636 22.1561 11.1178 22.0732 9.45117" stroke="#60BF8B" stroke-miterlimit="10" stroke-linecap="round"/>
</g>
<defs>
<clipPath id="clip0_2201_6686">
<rect width="45.0518" height="45" fill="white" transform="translate(0.748047)"/>
</clipPath>
</defs>
</svg>
