<svg width="28" height="51" viewBox="0 0 28 51" fill="none" xmlns="http://www.w3.org/2000/svg">
<g clip-path="url(#clip0_2208_4084)">
<path d="M14.2211 1.17303C14.2211 1.17303 0.693864 0.80272 1.31468 16.2251C1.81569 28.7285 8.42682 36.6684 8.42682 36.6684C8.42682 36.6684 12.119 42.6151 14.2973 42.6042C16.4756 42.6042 20.1461 36.6466 20.1461 36.6466C20.1461 36.6466 26.7354 28.6849 27.182 16.1815C27.7483 0.748263 14.2211 1.17303 14.2211 1.17303ZM18.5886 21.1589C16.1924 23.555 12.3042 23.555 9.90806 21.1589C7.51193 18.7628 7.51193 14.8745 9.90806 12.4784C12.3042 10.0823 16.1924 10.0823 18.5886 12.4784C20.9847 14.8745 20.9847 18.7628 18.5886 21.1589Z" fill="#F5695A" stroke="black" stroke-miterlimit="10"/>
<path d="M10.9856 4.50652C11.9985 5.75904 10.1034 5.70458 8.30627 7.40366C6.80324 8.81955 6.20421 10.4859 5.25665 9.3968C4.43979 8.47102 5.33289 6.73927 6.96661 5.49764C8.60034 4.25602 10.5063 3.91838 10.9856 4.50652Z" fill="#F2A19C"/>
<path d="M14.3951 49.8256C20.1637 49.8256 24.8401 48.5431 24.8401 46.9611C24.8401 45.3791 20.1637 44.0967 14.3951 44.0967C8.62655 44.0967 3.9502 45.3791 3.9502 46.9611C3.9502 48.5431 8.62655 49.8256 14.3951 49.8256Z" fill="#F5695A" stroke="black" stroke-miterlimit="10"/>
<path d="M14.3954 48.1052C16.9098 48.1052 18.9481 47.52 18.9481 46.7982C18.9481 46.0764 16.9098 45.4912 14.3954 45.4912C11.8811 45.4912 9.84277 46.0764 9.84277 46.7982C9.84277 47.52 11.8811 48.1052 14.3954 48.1052Z" fill="#2D2D2D"/>
</g>
<defs>
<clipPath id="clip0_2208_4084">
<rect width="27" height="49.7414" fill="white" transform="translate(0.748047 0.628906)"/>
</clipPath>
</defs>
</svg>
