<svg width="42" height="45" viewBox="0 0 42 45" fill="none" xmlns="http://www.w3.org/2000/svg">
<g clip-path="url(#clip0_2201_6613)">
<path d="M21.3992 44.4771C32.4933 44.4771 41.4868 34.6351 41.4868 22.4944C41.4868 10.3537 32.4933 0.511719 21.3992 0.511719C10.3051 0.511719 1.31152 10.3537 1.31152 22.4944C1.31152 34.6351 10.3051 44.4771 21.3992 44.4771Z" fill="#FFE24A" stroke="black" stroke-miterlimit="10"/>
<path d="M17.0869 26.1826C17.0869 26.1826 18.2444 27.3299 21.717 27.3299C24.9028 27.3299 25.7018 26.1826 25.7018 26.1826" fill="#FFE24A"/>
<path d="M17.0869 26.1826C17.0869 26.1826 18.2444 27.3299 21.717 27.3299C24.9028 27.3299 25.7018 26.1826 25.7018 26.1826" stroke="black" stroke-width="0.5" stroke-miterlimit="10"/>
<path d="M14.2086 20.1488C14.6895 20.1488 15.0793 19.5847 15.0793 18.8889C15.0793 18.193 14.6895 17.6289 14.2086 17.6289C13.7277 17.6289 13.3379 18.193 13.3379 18.8889C13.3379 19.5847 13.7277 20.1488 14.2086 20.1488Z" fill="black"/>
<path d="M28.3648 20.1488C28.8457 20.1488 29.2355 19.5847 29.2355 18.8889C29.2355 18.193 28.8457 17.6289 28.3648 17.6289C27.884 17.6289 27.4941 18.193 27.4941 18.8889C27.4941 19.5847 27.884 20.1488 28.3648 20.1488Z" fill="black"/>
<path d="M5.49124 17.6089C5.49124 17.6089 7.27362 23.2736 12.2827 23.2736C17.2918 23.2736 19.5966 17.6089 19.5966 17.6089C19.5966 17.6089 20.8156 15.1607 17.9577 15.0992C15.0997 15.0378 7.1507 15.1709 7.1507 15.1709C7.1507 15.1709 4.64103 15.0173 5.49124 17.6089Z" fill="black"/>
<path d="M22.7519 17.6089C22.7519 17.6089 24.5343 23.2736 29.5434 23.2736C34.5525 23.2736 36.8573 17.6089 36.8573 17.6089C36.8573 17.6089 38.0763 15.1607 35.2184 15.0992C32.3604 15.0378 24.4011 15.1709 24.4011 15.1709C24.4011 15.1709 21.8915 15.0173 22.7519 17.6089Z" fill="black"/>
<path d="M23.9097 16.3691H18.583V18.3769H23.9097V16.3691Z" fill="black"/>
<path d="M13.0821 22.0955H11.8119L7.80664 19.4834H9.07684L13.0821 22.0955Z" fill="white"/>
<path d="M30.5577 22.0955H29.2875L25.2822 19.4834H26.5524L30.5577 22.0955Z" fill="white"/>
</g>
<defs>
<clipPath id="clip0_2201_6613">
<rect width="41.1996" height="45" fill="white" transform="translate(0.799805)"/>
</clipPath>
</defs>
</svg>
