<svg width="28" height="45" viewBox="0 0 28 45" fill="none" xmlns="http://www.w3.org/2000/svg">
<g clip-path="url(#clip0_2208_2398)">
<path d="M14.4474 44.46C20.216 44.46 24.8923 43.1884 24.8923 41.6198C24.8923 40.0513 20.216 38.7797 14.4474 38.7797C8.6788 38.7797 4.00244 40.0513 4.00244 41.6198C4.00244 43.1884 8.6788 44.46 14.4474 44.46Z" fill="#F5695A" stroke="black" stroke-miterlimit="10"/>
<path d="M14.4474 42.7538C16.9618 42.7538 19.0001 42.1736 19.0001 41.4579C19.0001 40.7422 16.9618 40.162 14.4474 40.162C11.9331 40.162 9.89478 40.7422 9.89478 41.4579C9.89478 42.1736 11.9331 42.7538 14.4474 42.7538Z" fill="#2D2D2D"/>
<path d="M14.2731 0.539965C14.2731 0.539965 0.745866 0.172794 1.36668 15.4644C1.86769 27.8618 8.47882 35.7343 8.47882 35.7343C8.47882 35.7343 12.171 41.6307 14.3493 41.6199C16.5276 41.6199 20.1981 35.7127 20.1981 35.7127C20.1981 35.7127 26.7874 27.8186 27.234 15.4212C27.8003 0.118798 14.2731 0.539965 14.2731 0.539965ZM18.6406 20.3564C16.2445 22.7322 12.3562 22.7322 9.96006 20.3564C7.56394 17.9806 7.56394 14.1253 9.96006 11.7495C12.3562 9.37366 16.2445 9.37366 18.6406 11.7495C21.0367 14.1253 21.0367 17.9806 18.6406 20.3564Z" fill="#F5695A" stroke="black" stroke-miterlimit="10"/>
<path d="M11.0383 3.84447C12.0512 5.08637 10.1561 5.03237 8.359 6.71704C6.85598 8.12093 6.25694 9.7732 5.30939 8.69328C4.49252 7.77536 5.38563 6.05829 7.01935 4.82719C8.65307 3.59609 10.5591 3.26132 11.0383 3.84447Z" fill="#F2A19C"/>
</g>
<defs>
<clipPath id="clip0_2208_2398">
<rect width="27" height="45" fill="white" transform="translate(0.800293)"/>
</clipPath>
</defs>
</svg>
